<?xml version="1.0" encoding="UTF-8"?>
<svg id="Layer_1" data-name="Layer 1" xmlns="http://www.w3.org/2000/svg" viewBox="0 0 4652 4652">
  <defs>
    <style>
      .cls-1 {
        fill: #fff;
      }

      .cls-2 {
        fill: #e3901c;
      }

      .cls-3 {
        fill: #373737;
      }
    </style>
  </defs>
  <circle class="cls-1" cx="2326" cy="2326" r="2326"/>
  <path class="cls-2" d="m1386.898,1366.904l282.206,226.11,522.1-523.481,569.915,756.48,430.919,234.819,382.731-389.723,835.168,1149.557c42.516-168.443,65.109-344.813,65.109-526.461,0-1184.321-960.082-2144.404-2144.404-2144.404S186.239,1109.883,186.239,2294.205c0,182.927,22.914,360.501,66.012,530.017l1134.647-1457.318Z"/>
  <g>
    <polygon class="cls-3" points="213.59 2932.371 1383.889 1429.261 1667.047 1656.134 2190.907 1130.888 2762.743 1889.918 3195.115 2125.529 3579.136 1734.492 4455.867 2941.258 3879.552 2279.773 3996.978 2577.718 3580.706 1924.26 3390.124 2335.028 3401.91 2072.516 2914.286 2542.215 3158.128 2169.634 2944.352 2060.933 3054.047 2185.722 2850.496 2067.088 2705.912 1963.111 2189.433 1218.974 2068.873 1426.015 2163.617 1378.122 2019.3 1609.876 2083.847 2096.53 1946.518 1660.96 1735.731 1929.49 1572.609 2150.9 1521.714 2425.153 1497.841 2116.44 1758.522 1724.231 1479.431 1946.3 1600.294 1743.87 1384.513 1494.055 1141.013 1982.389 1360.551 1792.011 1018.432 2435.006 1055.506 2226.409 718.892 2676.941 841.228 2386.425 213.59 2932.371"/>
    <polygon class="cls-3" points="1906.867 1830.277 1672.021 2118.91 1638.4 2324.879 1906.867 1830.277"/>
    <polygon class="cls-3" points="2241.201 1484.178 2478.492 1978.027 2373.102 2139.992 2553.595 2128.154 2422.703 2454.05 2700.868 2162.576 2241.201 1484.178"/>
    <polygon class="cls-3" points="3601.345 2017.843 3612.989 2195.373 3848.028 2462.45 3601.345 2017.843"/>
    <path class="cls-3" d="m315.314,3352.957v-369.538c0-106.144,55.037-169.045,159.216-169.045s159.215,62.901,159.215,169.045v72.727h-102.213v-79.609c0-45.208-21.622-63.883-54.055-63.883s-54.055,18.675-54.055,63.883v384.282c0,45.208,21.622,62.899,54.055,62.899s54.055-17.691,54.055-62.899v-105.162h102.213v97.3c0,106.144-55.037,169.043-159.215,169.043s-159.216-62.899-159.216-169.043Z"/>
    <path class="cls-3" d="m788.042,3352.957v-369.538c0-106.144,55.037-169.045,159.216-169.045s159.215,62.901,159.215,169.045v72.727h-102.213v-79.609c0-45.208-21.622-63.883-54.055-63.883s-54.055,18.675-54.055,63.883v384.282c0,45.208,21.622,62.899,54.055,62.899s54.055-17.691,54.055-62.899v-105.162h102.213v97.3c0,106.144-55.037,169.043-159.215,169.043s-159.216-62.899-159.216-169.043Z"/>
    <path class="cls-3" d="m1259.786,3349.024v-361.675c0-110.075,57.986-172.976,164.13-172.976s164.13,62.901,164.13,172.976v361.675c0,110.076-57.986,172.976-164.13,172.976s-164.13-62.899-164.13-172.976Zm220.151,6.881v-375.436c0-49.141-21.622-67.815-56.021-67.815s-56.02,18.675-56.02,67.815v375.436c0,49.141,21.622,67.813,56.02,67.813s56.021-18.673,56.021-67.813Z"/>
    <path class="cls-3" d="m1755.119,2824.201h163.147c112.041,0,160.199,52.089,160.199,158.234v27.519c0,70.762-21.622,114.989-69.78,134.645v1.965c57.986,19.656,80.591,70.764,80.591,143.491v58.969c0,106.144-56.021,163.148-164.13,163.148h-170.027v-687.971Zm150.371,280.103c40.295,0,64.865-17.691,64.865-72.729v-38.329c0-49.141-16.707-70.764-55.037-70.764h-52.089v181.822h42.261Zm19.656,309.586c36.364,0,56.02-16.707,56.02-67.813v-59.952c0-63.883-20.639-83.539-69.78-83.539h-48.158v211.305h61.918Z"/>
    <path class="cls-3" d="m2246.517,2824.201h163.148c112.041,0,160.199,52.089,160.199,158.234v27.519c0,70.762-21.622,114.989-69.78,134.645v1.965c57.986,19.656,80.59,70.764,80.59,143.491v58.969c0,106.144-56.02,163.148-164.13,163.148h-170.027v-687.971Zm150.371,280.103c40.296,0,64.866-17.691,64.866-72.729v-38.329c0-49.141-16.708-70.764-55.038-70.764h-52.089v181.822h42.26Zm19.656,309.586c36.365,0,56.021-16.707,56.021-67.813v-59.952c0-63.883-20.639-83.539-69.78-83.539h-48.158v211.305h61.917Z"/>
    <path class="cls-3" d="m2737.915,3407.993h104.179v104.179h-104.179v-104.179Z"/>
    <path class="cls-3" d="m3017.021,2824.201h165.113c108.11,0,161.182,59.952,161.182,170.027v347.917c0,110.076-53.072,170.027-161.182,170.027h-165.113v-687.971Zm163.148,589.689c34.398,0,55.037-17.691,55.037-66.832v-357.745c0-49.141-20.639-66.832-55.037-66.832h-55.037v491.408h55.037Z"/>
    <path class="cls-3" d="m3510.383,2824.201h294.845v98.281h-186.734v181.822h148.405v98.281h-148.405v211.305h186.734v98.281h-294.845v-687.971Z"/>
    <path class="cls-3" d="m3932.984,2824.201h109.093l70.763,533.669h1.965l70.763-533.669h99.264l-104.178,687.971h-143.491l-104.179-687.971Z"/>
  </g>
</svg>