<?xml version="1.0" encoding="UTF-8"?>
<svg id="Layer_1" data-name="Layer 1" xmlns="http://www.w3.org/2000/svg" viewBox="0 0 4582 3602.73">
  <defs>
    <style>
      .cls-1 {
        fill: #e3901c;
      }

      .cls-2 {
        fill: #373737;
      }
    </style>
  </defs>
  <path class="cls-1" d="m1282.739,1300.306l301.499,241.568,557.792-559.268,608.876,808.195,460.377,250.872,408.896-416.366,892.261,1228.143c45.422-179.958,69.56-368.385,69.56-562.451C4582,1025.716,3556.284,0,2291,0S0,1025.716,0,2291c0,195.433,24.481,385.146,70.525,566.25l1212.214-1556.944Z"/>
  <g>
    <polygon class="cls-2" points="29.221 2972.792 1279.525 1366.927 1582.04 1609.309 2141.712 1048.156 2752.64 1859.076 3214.57 2110.793 3624.844 1693.024 4561.51 2982.287 3945.796 2275.581 4071.25 2593.895 3626.521 1895.765 3422.91 2334.614 3435.502 2054.156 2914.543 2555.965 3175.055 2157.913 2946.665 2041.781 3063.859 2175.101 2846.392 2048.357 2691.924 1937.272 2140.137 1142.264 2011.336 1363.459 2112.557 1312.291 1958.374 1559.889 2027.333 2079.812 1880.616 1614.465 1655.419 1901.353 1481.145 2137.899 1426.771 2430.9 1401.266 2101.083 1679.769 1682.061 1381.598 1919.312 1510.723 1703.043 1280.192 1436.15 1020.044 1957.868 1254.591 1754.476 889.084 2441.427 928.693 2218.569 569.067 2699.901 699.766 2389.525 29.221 2972.792"/>
    <polygon class="cls-2" points="1838.255 1795.357 1587.354 2103.721 1551.434 2323.772 1838.255 1795.357"/>
    <polygon class="cls-2" points="2195.444 1425.598 2448.957 1953.207 2336.363 2126.245 2529.194 2113.598 2389.354 2461.772 2686.535 2150.372 2195.444 1425.598"/>
    <polygon class="cls-2" points="3648.571 1995.745 3661.011 2185.412 3912.118 2470.747 3648.571 1995.745"/>
    <path class="cls-2" d="m137.9,3422.131v-394.801c0-113.4,58.8-180.602,170.101-180.602s170.1,67.201,170.1,180.602v77.699h-109.2v-85.051c0-48.299-23.1-68.25-57.75-68.25s-57.75,19.951-57.75,68.25v410.553c0,48.299,23.1,67.199,57.75,67.199s57.75-18.9,57.75-67.199v-112.352h109.2v103.951c0,113.4-58.8,180.6-170.1,180.6s-170.101-67.199-170.101-180.6Z"/>
    <path class="cls-2" d="m642.944,3422.131v-394.801c0-113.4,58.8-180.602,170.101-180.602s170.1,67.201,170.1,180.602v77.699h-109.2v-85.051c0-48.299-23.1-68.25-57.75-68.25s-57.75,19.951-57.75,68.25v410.553c0,48.299,23.1,67.199,57.75,67.199s57.75-18.9,57.75-67.199v-112.352h109.2v103.951c0,113.4-58.8,180.6-170.1,180.6s-170.101-67.199-170.101-180.6Z"/>
    <path class="cls-2" d="m1146.938,3417.929v-386.4c0-117.6,61.95-184.801,175.351-184.801s175.351,67.201,175.351,184.801v386.4c0,117.602-61.95,184.801-175.351,184.801s-175.351-67.199-175.351-184.801Zm235.201,7.352v-401.102c0-52.5-23.101-72.451-59.851-72.451s-59.85,19.951-59.85,72.451v401.102c0,52.5,23.1,72.449,59.85,72.449s59.851-19.949,59.851-72.449Z"/>
    <path class="cls-2" d="m1676.132,2857.228h174.3c119.7,0,171.15,55.65,171.15,169.051v29.4c0,75.6-23.1,122.85-74.55,143.85v2.1c61.95,21,86.101,75.602,86.101,153.301v63c0,113.4-59.851,174.301-175.351,174.301h-181.65v-735.002Zm160.65,299.252c43.05,0,69.3-18.9,69.3-77.701v-40.949c0-52.5-17.85-75.602-58.8-75.602h-55.65v194.252h45.15Zm21,330.75c38.85,0,59.85-17.85,59.85-72.449v-64.051c0-68.25-22.05-89.25-74.55-89.25h-51.45v225.75h66.15Z"/>
    <path class="cls-2" d="m2201.123,2857.228h174.301c119.7,0,171.15,55.65,171.15,169.051v29.4c0,75.6-23.1,122.85-74.55,143.85v2.1c61.95,21,86.1,75.602,86.1,153.301v63c0,113.4-59.85,174.301-175.351,174.301h-181.65v-735.002Zm160.65,299.252c43.051,0,69.301-18.9,69.301-77.701v-40.949c0-52.5-17.851-75.602-58.801-75.602h-55.649v194.252h45.149Zm21,330.75c38.851,0,59.851-17.85,59.851-72.449v-64.051c0-68.25-22.05-89.25-74.55-89.25h-51.45v225.75h66.149Z"/>
    <path class="cls-2" d="m2726.115,3480.929h111.301v111.301h-111.301v-111.301Z"/>
    <path class="cls-2" d="m3024.301,2857.228h176.4c115.501,0,172.201,64.051,172.201,181.65v371.701c0,117.602-56.7,181.65-172.201,181.65h-176.4v-735.002Zm174.301,630.002c36.75,0,58.8-18.9,58.8-71.4v-382.201c0-52.5-22.05-71.4-58.8-71.4h-58.8v525.002h58.8Z"/>
    <path class="cls-2" d="m3551.391,2857.228h315.001v105h-199.5v194.252h158.55v105h-158.55v225.75h199.5v105h-315.001v-735.002Z"/>
    <path class="cls-2" d="m4002.881,2857.228h116.551l75.601,570.152h2.1l75.601-570.152h106.05l-111.3,735.002h-153.301l-111.301-735.002Z"/>
  </g>
</svg>