<?xml version="1.0" encoding="utf-8"?>
<!-- Generator: Adobe Illustrator 27.7.0, SVG Export Plug-In . SVG Version: 6.00 Build 0)  -->
<svg version="1.1" baseProfile="basic" id="Layer_1"
	 xmlns="http://www.w3.org/2000/svg" xmlns:xlink="http://www.w3.org/1999/xlink" x="0px" y="0px" viewBox="0 0 500 500"
	 xml:space="preserve">
<style type="text/css">
	.st0{fill:#FFFFFF;}
	.st1{fill:#E3901C;}
	.st2{fill:#373737;}
	.st3{fill:#848484;}
</style>
<path class="st1" d="M347.375,490.976c2.325-3.58,4.651-7.161,7.053-10.689c3.923-5.762,7.623-11.663,11.217-17.635
	c1.468-2.439,2.972-4.876,4.689-7.14c1.957-2.58,2.622-5.625,3.58-8.578c0.315-0.971,0.634-1.985,0.669-2.989
	c0.025-0.728-0.252-1.59-0.684-2.181c-0.718-0.984-1.539-1.993-2.541-2.651c-5.129-3.37-10.292-6.694-15.518-9.911
	c-3.762-2.315-7.635-4.45-11.473-6.641c-2.169-1.239-4.325-2.514-6.563-3.615c-2.225-1.095-4.531-2.035-6.832-2.967
	c-2.131-0.863-4.307-1.613-6.455-2.433c-4.041-1.543-8.217-2.609-12.42-3.594c-3.254-0.762-6.489-1.601-9.732-2.408
	c-0.059-0.015-0.114-0.077-0.169-0.075c-2.227,0.093-4.342-0.634-6.522-0.881c-0.479-0.23-0.938-0.594-1.44-0.669
	c-4.457-0.663-8.944-0.563-13.429-0.435c-0.673,0.019-1.34,0.243-2.009,0.372c-2.784,0.905-5.22,2.5-7.181,4.559
	c-1.099,1.154-1.497,3.008-2.107,4.587c-0.495,1.283-0.836,2.626-1.316,4.174c-0.671-0.478-1.18-0.873-1.722-1.216
	c-0.513-0.326-1.059-0.6-1.592-0.893c-2.042-1.123-4.066-2.282-6.136-3.351c-1.13-0.583-2.339-1.012-3.512-1.511
	c-0.979-0.955-2.168-0.945-3.399-0.742c-1.485-0.257-2.969-0.515-4.454-0.772c-0.465-0.236-0.916-0.63-1.399-0.677
	c-1.039-0.1-2.094-0.021-3.143-0.015c-1.101-0.054-2.203-0.108-3.304-0.162c-1.276-0.06-2.553-0.119-3.829-0.179
	c-4.477-0.208-8.955-0.417-13.432-0.625c-0.163-0.03-0.327-0.059-0.49-0.089c-1.281-0.063-2.563-0.126-3.845-0.19
	c-2.059-0.087-4.118-0.174-6.176-0.261c-2.244-0.078-4.489-0.156-6.733-0.234c-0.266-0.041-0.533-0.082-0.799-0.122
	c-2.857-0.003-5.715-0.006-8.572-0.009c-2.307-0.054-4.614-0.13-6.921-0.157c-2.429-0.028-4.859-0.011-7.289-0.013
	c-0.169-0.044-0.339-0.087-0.508-0.131c-1.573-0.097-3.145-0.194-4.718-0.291c-1.01-0.058-2.021-0.116-3.031-0.173
	c-4.265-0.03-8.53-0.051-12.795-0.095c-1.728-0.018-3.456-0.085-5.184-0.13c-0.388-0.047-0.776-0.093-1.164-0.14
	c-1.387-0.265-1.476-1.518-1.78-2.507c-0.427-1.387-0.55-2.871-1.004-4.247c-0.621-1.882-1.438-3.7-2.156-5.55
	c-1.247-3.211-2.483-6.426-3.722-9.64c-0.217-0.562-0.429-1.126-0.644-1.689c0.498-0.519,0.132-0.662-0.332-0.762
	c-0.133-0.391-0.266-0.783-0.399-1.174c0,0,0.057-0.159,0.057-0.159l-0.132-0.106c-0.195-1.362-0.389-2.724-0.584-4.087
	c0.374-0.617-0.174-0.874-0.479-1.225c0.137-1.73-0.701-3.26-0.999-4.901c-0.064-0.354-0.089-0.715-0.132-1.073
	c-0.011-0.25-0.022-0.5-0.033-0.75c-0.091-2.765-1.659-5.091-2.289-7.698c-0.344-1.424-0.622-2.896-1.209-4.222
	c-1.183-2.67-2.079-5.483-3.895-7.862c-0.688-0.902-1.047-2.057-1.55-3.1c-1.136-2.355-2.299-4.698-3.391-7.073
	c-0.564-1.227-0.979-2.522-1.507-3.767c-0.327-0.771-0.668-1.553-1.129-2.246c-0.872-1.31-1.755-2.628-2.782-3.815
	c-1.089-1.258-2.621-1.922-4.133-2.564c-0.203-0.086-0.378-0.238-0.566-0.359c-1.131-1.148-2.426-0.932-3.753-0.451
	c-2.103,1.015-3.545,2.317-3.528,5.012c0.018,2.939,0.484,5.79,1.01,8.637c0.189,1.02,0.923,1.939,1.408,2.905
	c0.36,0.649,0.719,1.298,1.079,1.946c0.074,0.3,0.148,0.6,0.222,0.899c0.067,0.425,0.135,0.85,0.202,1.275
	c0.173,1.831,0.776,3.519,1.617,5.147c0.64,1.239,1.08,2.593,1.808,3.773c0.58,0.94,0.535,1.854,0.489,2.846
	c-0.046,0.988-0.01,1.98-0.01,2.933c-1.554,0.287-2.295-0.115-2.778-1.432c-0.817-2.229-1.72-4.405-3.255-6.263
	c-0.224-0.271-0.328-0.648-0.456-0.988c-1.071-2.832-2.544-5.415-4.702-7.567c-2.039-2.033-3.597-4.405-5.139-6.826
	c-1.336-2.098-2.85-4.204-5.396-5.033c-1.253-0.408-2.588-0.563-3.886-0.833c-1.132-0.548-2.262-0.906-3.383,0.024
	c-0.125,0.121-0.25,0.243-0.375,0.365c-0.149,0.107-0.298,0.214-0.447,0.32c-0.56,0.579-1.448,0.912-1.44,1.918
	c-0.052,0.267-0.103,0.534-0.155,0.801c-0.472,2.091-0.429,4.179,0.028,6.266c0.119,0.328,0.237,0.657,0.356,0.986
	c0.097,0.182,0.195,0.363,0.292,0.545c0.074,0.137,0.148,0.274,0.222,0.41c0.122,0.25,0.244,0.5,0.366,0.749
	c0.243,0.389,0.486,0.778,0.729,1.167c0.023,0.123,0.084,0.222,0.183,0.297c0.071,0.14,0.142,0.281,0.213,0.421
	c-0.019,0.119,0,0.232,0.057,0.339c0.109,0.129,0.218,0.258,0.327,0.387c0,0,0.006,0.003,0.006,0.003
	c0.123,0.125,0.247,0.25,0.371,0.375c1.271,1.782,2.555,3.556,3.802,5.354c0.194,0.28,0.226,0.673,0.333,1.014
	c-0.561,1.229-1.554,0.482-2.376,0.52c-0.303-0.236-0.605-0.471-0.908-0.707c-0.132-0.083-0.265-0.166-0.397-0.249
	c-1.697-1.952-4.35-2.385-6.293-3.967c-0.818-0.666-1.825-1.101-2.745-1.64c-0.57-1.134-1.463-0.789-2.341-0.511
	c-0.847,0.206-1.694,0.412-2.541,0.618c-1.623-0.014-3.245-0.027-4.868-0.041c-1.146,0.005-2.293,0.01-3.439,0.015
	c-0.863-0.906-1.238-2.277-0.506-2.925c2.264-2.004,3.146-4.899,4.886-7.237c0.86-1.156,1.386-2.594,1.902-3.965
	c1.242-3.3,2.928-6.182,6.31-7.736c0.393-0.18,0.806-0.692,0.887-1.112c0.452-2.335,0.805-4.689,1.192-7.036
	c0.431-0.414,0.86-0.828,0.457-1.496c0.041-0.211,0.081-0.422,0.122-0.633c0.052-0.414,0.103-0.827,0.155-1.241
	c0.229-1.472,1.471-2.139,2.545-2.672c1.434-0.711,2.272-1.874,2.997-3.111c2.253-3.841,4.45-7.716,6.068-11.89
	c1.249-3.221,2.517-6.441,3.946-9.584c0.586-1.289,1.601-2.386,2.445-3.552c2.609-3.601,5.23-7.193,7.846-10.788
	c0.18-0.279,0.36-0.559,0.539-0.838c0.176-1.534,0.434-3.065,0.508-4.604c0.094-1.949,1.043-3.429,2.303-4.781
	c0.152-0.163,0.425-0.207,0.615-0.344c1.319-0.953,2.631-1.917,3.945-2.877c0.117-0.132,0.234-0.263,0.352-0.395
	c0.065-0.657,0.23-1.323,0.177-1.971c-0.158-1.906-0.429-3.802-0.603-5.707c-0.083-0.905-0.209-1.869,0.737-2.49
	c0.267-0.231,0.533-0.463,0.8-0.694c1.071-0.655,2.097-1.406,3.227-1.938c1.182-0.556,2.448-0.952,3.703-1.329
	c3.628-1.09,7.269-2.141,10.909-3.192c0.521-0.15,1.065-0.219,1.599-0.326c1.897-0.111,3.793-0.222,5.69-0.333
	c0.489-0.131,0.979-0.261,1.468-0.392c2.744-0.743,5.501-1.442,8.226-2.251c1.022-0.303,1.965-0.867,2.95-1.299
	c0.661-0.29,1.312-0.641,2.004-0.815c1.934-0.487,3.887-0.896,5.833-1.336c1.051-0.088,2.104-0.157,3.152-0.269
	c0.981-0.104,1.957-0.253,2.936-0.382c1.166-0.254,2.351-0.444,3.494-0.778c1.666-0.487,3.301-1.081,4.952-1.622
	c0.669-0.219,1.344-0.418,2.017-0.626c1.5-0.257,3-0.514,4.5-0.771c0.13-0.022,0.26-0.045,0.39-0.067
	c0.103,0.071,0.216,0.096,0.339,0.074c1.384-0.241,2.768-0.482,4.152-0.723c0.936-0.229,1.867-0.622,2.81-0.652
	c1.935-0.062,3.44-1.032,4.643-2.298c1.865-1.963,4.261-2.308,6.679-2.751c0.789-0.107,1.583-0.19,2.365-0.331
	c0.373-0.067,0.727-0.246,1.089-0.375c0.508-0.48,1.015-0.96,1.523-1.439c0.603-0.653,1.206-1.305,1.809-1.958
	c0.773-0.844,1.546-1.687,2.319-2.531c0.989-0.765,1.978-1.531,2.967-2.296c1.577,0.232,2.06,0.75,2.202,2.479
	c0.065,0.791,0.039,1.589,0.054,2.384c0.145,0.63,0.291,1.26,0.436,1.89c0.077,2.623,0.155,5.247,0.232,7.87
	c-0.003,0.496-0.006,0.993-0.009,1.489c-0.066,0.339-0.131,0.678-0.197,1.018c-0.156,0.29-0.311,0.579-0.467,0.869
	c-0.628,2.37-1.256,4.74-1.883,7.111c-0.023,0.25-0.046,0.5-0.069,0.75c-0.174,3.732-0.365,7.464-0.516,11.197
	c-0.078,1.929-0.027,3.865-0.135,5.792c-0.171,3.069,0.152,6.096,0.619,9.117c0.071,0.584,0.141,1.167,0.212,1.751
	c0.054,0.332,0.108,0.664,0.163,0.996c0.039,0.374,0.077,0.748,0.116,1.122c1.649,5.091,3.365,10.162,4.931,15.279
	c2.207,7.214,4.316,14.459,6.433,21.701c0.305,1.045,0.397,2.15,0.642,3.215c0.086,0.375,0.336,0.713,0.595,1.237
	c0.468-0.398,0.816-0.629,1.081-0.932c0.656-0.751,1.296-1.518,1.904-2.308c3.366-4.37,7.631-7.757,11.877-11.214
	c5.811-4.732,11.387-9.753,17.078-14.633c2.96-2.538,5.951-5.04,8.928-7.559c0.42-0.33,0.839-0.661,1.259-0.991
	c0.589-0.528,1.178-1.056,1.767-1.584c0.657-0.6,1.313-1.2,1.969-1.8c0.716-0.65,1.431-1.301,2.147-1.951
	c1.404-1.35,2.809-2.701,4.213-4.051c1.748-1.742,3.495-3.484,5.243-5.226c0.335-0.415,0.671-0.829,1.006-1.244
	c2.294-2.749,4.584-5.502,6.882-8.247c2.192-2.619,4.401-5.223,6.585-7.848c2.172-2.611,4.341-5.225,6.478-7.864
	c1.443-1.783,2.846-3.599,4.237-5.424c1.459-1.915,2.887-3.854,4.319-5.79c0.537-0.726,1.049-1.472,1.573-2.208
	c0.226-0.391,0.451-0.782,0.677-1.174c0,0,0.006-0.007,0.006-0.006c0.729-0.065,0.662-0.647,0.736-1.136
	c0.153-0.226,0.306-0.452,0.459-0.678c0.223-0.397,0.447-0.794,0.67-1.191c0.049-0.097,0.081-0.199,0.093-0.306
	c0.098-0.144,0.197-0.287,0.295-0.431c0.067-0.087,0.133-0.175,0.199-0.264c0.776-1.767,1.558-3.532,2.312-5.308
	c0.033-0.078-0.179-0.26-0.277-0.394c0.085-0.331,0.171-0.661,0.256-0.992c0.089-0.543,0.178-1.085,0.267-1.628
	c0.04-0.206,0.081-0.411,0.122-0.617c0.05-0.419,0.1-0.837,0.151-1.256c0.415-1.354,0.4-2.911,1.796-3.801
	c0.893,0.148,1.787,0.296,2.68,0.443c0.497,0.252,0.995,0.503,1.492,0.755c0.159,0.083,0.318,0.166,0.476,0.248
	c0.242,0.266,0.483,0.532,0.725,0.798c0.102,0.269,0.203,0.538,0.305,0.807c0.011,0.122,0.018,0.243,0.019,0.366
	c0.502,1.252,1.004,2.505,1.506,3.757c0.874,3.745,1.747,7.489,2.621,11.234c0.147,0.755,0.14,1.592,1.033,1.952
	c0.051,0.077,0.104,0.152,0.16,0.225c0.121,0.124,0.242,0.248,0.363,0.372c1.087,1.033,2.174,2.065,3.262,3.098
	c0.262,0.245,0.524,0.489,0.786,0.734c4.739,2.096,8.763,5.174,12.169,9.046c2.04,2.319,3.852,4.841,5.94,7.112
	c1.888,2.052,3.971,3.933,6.057,5.789c0.661,0.588,1.611,0.852,2.429,1.264c0.393,0.237,0.787,0.475,1.18,0.712
	c0.715,0.651,1.431,1.301,2.147,1.952c0.654,0.603,1.308,1.206,1.962,1.809c0.972,0.893,1.944,1.786,2.916,2.678
	c0.511,0.493,1.022,0.986,1.533,1.479c0,0-0.001-0.002-0.001-0.002c0.13,0.12,0.259,0.239,0.389,0.359
	c1.143,0.733,2.286,1.466,3.429,2.2c0.711,0.663,1.423,1.326,2.134,1.989c0.998,0.993,1.995,1.986,2.993,2.979
	c0.511,0.493,1.022,0.985,1.532,1.478c0,0-0.001-0.002-0.001-0.002c0.133,0.118,0.265,0.236,0.398,0.354
	c1.063,0.896,2.059,1.892,3.204,2.666c2.656,1.797,5.394,3.473,8.077,5.232c0.648,0.425,1.208,0.983,1.808,1.48
	c0.395,0.236,0.789,0.473,1.184,0.709c0.622,0.62,1.245,1.241,1.867,1.861c0.347,0.408,0.693,0.815,1.04,1.223
	c0.408,0.462,0.815,0.925,1.223,1.387c0.607,0.643,1.214,1.286,1.821,1.928c0.742,0.506,1.484,1.012,2.226,1.519
	c0.151,0.099,0.301,0.198,0.452,0.296c0.088,0.052,0.182,0.082,0.284,0.09c0.164,0.088,0.328,0.176,0.492,0.264
	c0.241,0.253,0.483,0.506,0.724,0.759c0.204,0.415,0.409,0.831,0.613,1.246c0.535,0.979,1.07,1.958,1.605,2.937
	c0.091,0.152,0.183,0.303,0.274,0.455c0.079,0.607,0.244,1.218,0.222,1.822c-0.113,3.147-0.321,6.291-0.398,9.438
	c-0.045,1.845,0.094,3.694,0.15,5.542c0.056,0.749,0.112,1.497,0.168,2.246c0.807,9.195,1.612,18.391,2.426,27.586
	c0.148,1.67,0.334,3.336,0.503,5.004c0.164,0.547,0.328,1.093,0.492,1.64c0.04,0.208,0.08,0.416,0.121,0.624
	c0.076,0.542,0.152,1.085,0.229,1.627c0.439,5.454,0.877,10.908,1.316,16.362c-0.002,0.247-0.004,0.494-0.006,0.74
	c-0.058,0.465-0.116,0.929-0.173,1.394c-0.072,0.659-0.144,1.318-0.215,1.977c-0.325,4.042-1.586,7.91-2.224,11.888
	c-0.701,4.376-3.255,7.808-5.448,11.425c-1.12,1.848-1.8,3.814-2.374,5.87c-0.568,2.032-1.337,4.007-1.992,6.016
	c-0.244,0.747-0.414,1.518-0.618,2.277c-0.022,0.372-0.044,0.744-0.066,1.115c-0.306,2.589-0.612,5.178-0.918,7.767
	c-0.074,0.659-0.147,1.318-0.221,1.976c-0.058,0.465-0.115,0.93-0.173,1.395c-0.033,0.286-0.066,0.572-0.099,0.858
	c-0.302,2.013-0.465,4.06-0.946,6.03c-0.429,1.757-1.245,3.415-1.831,5.137c-1.872,5.501-3.827,10.977-5.535,16.528
	c-1.266,4.114-2.275,8.314-3.246,12.51c-0.507,2.194,0.017,4.407,0.478,6.585c0.239,1.13,0.395,2.277,0.589,3.416
	c0.174,0.523,0.348,1.047,0.522,1.57c0.082,0.847,0.163,1.694,0.245,2.541c-0.015,0.536-0.411,1.162,0.357,1.512
	c0.092,0.341,0.183,0.682,0.275,1.022c0.063,0.407,0.127,0.814,0.19,1.22c0.044,0.22,0.089,0.44,0.133,0.659
	c0.043,0.407,0.087,0.814,0.13,1.221c0.045,0.482,0.09,0.964,0.136,1.446c0.111,0.264,0.223,0.529,0.334,0.793
	c-0.011,1.128-0.021,2.256-0.032,3.384c-0.128,0.255-0.256,0.509-0.384,0.764c-0.905,1.718-1.735,3.481-2.735,5.143"/>
<path class="st1" d="M280.327,83.215c3.069-0.003,6.014,0.827,8.995,1.387c0.756,0.142,1.784-0.168,2.224,0.869
	c0.952,0.726,2.023,0.287,3.047,0.309c0.617,0.002,1.235,0.004,1.852,0.006c0,0-0.015,0.033-0.015,0.033
	c1.014,0.248,2.028,0.496,3.042,0.744c2.053,0.878,4.09,1.796,6.164,2.622c2.025,0.807,4.088,1.521,6.134,2.275
	c3.459,2.112,7.592,3.774,9.433,3.665c-0.475-0.438-0.765-0.832-1.154-1.038c-0.809-0.428-1.674-0.749-2.51-1.128
	c-1.664-0.756-3.324-1.522-4.985-2.284c-0.463-0.8-0.799-1.615-0.307-2.531c0.686-0.153,0.635-0.684,0.617-1.199
	c0.122-0.245,0.243-0.49,0.365-0.736c0.578,0.057,0.719-0.308,0.749-0.779c0.038-0.211,0.075-0.423,0.113-0.634
	c1.169-0.935,1.204-2.23,1.126-3.56c-0.077-2.841-0.1-5.686-0.254-8.523c-0.083-1.533-0.356-3.059-0.609-4.578
	c-0.22-1.322-0.531-2.629-0.802-3.943c-0.567-1.043-1.134-2.086-1.701-3.128c-0.896-0.987-1.792-1.974-2.687-2.962
	c-0.26-0.108-0.52-0.216-0.781-0.325c-0.62-0.379-1.241-0.759-1.861-1.138c-0.617-1.004-1.573-1.188-2.644-1.094
	c0,0,0.026-0.035,0.026-0.035c-0.84-1.113-2.026-1.465-3.345-1.526c-1.626-0.62-3.252-1.24-4.878-1.86
	c-1.023-0.967-3.012-1.626-4.523-1.499c-0.909-0.255-1.834-0.464-2.724-0.774c-1.742-0.608-3.477-1.24-5.189-1.925
	c-1.369-0.548-2.701-1.19-4.049-1.79c-0.316-0.255-0.606-0.682-0.952-0.734c-1.303-0.193-2.625-0.264-3.94-0.381
	c-0.228-0.009-0.455-0.018-0.683-0.027c-0.626-0.17-1.253-0.341-1.879-0.511c-0.164-0.076-0.328-0.219-0.492-0.219
	c-3.452-0.015-6.903-0.017-10.355-0.006c-0.163,0.001-0.326,0.145-0.489,0.222c-0.367,0.177-0.734,0.353-1.102,0.53
	c-0.102,0.019-0.204,0.034-0.307,0.047c-1.52,0.123-3.015,0.319-4.225,1.387c-0.087,0.058-0.183,0.097-0.285,0.118
	c-0.482-0.034-0.964-0.085-1.446-0.1c-1.644-0.051-3.289-0.089-4.934-0.131c-0.144-0.05-0.288-0.1-0.431-0.15
	c-1.99-0.008-3.98-0.016-5.969-0.024c-0.359-0.06-0.719-0.12-1.078-0.18c-0.265,0.013-0.53,0.026-0.795,0.039
	c-0.115,0.044-0.23,0.091-0.343,0.14c-0.771,0.461-1.542,0.922-2.313,1.383c-1.628,1.008-3.257,2.017-4.885,3.025
	c-0.243,0.121-0.485,0.243-0.728,0.364c0,0-0.018,0.025-0.018,0.025c-0.604,0.256-1.208,0.511-1.812,0.766
	c-0.479,0.153-0.959,0.306-1.438,0.459c-1.086,0.35-2.375,0.234-3.119,1.366c-0.08,0.071-0.173,0.107-0.281,0.106
	c-0.668-0.266-1.019,0.056-1.219,0.658c-1.611,1.633-3.223,3.266-4.835,4.898c-0.488,0.515-0.975,1.03-1.462,1.544
	c0,0,0.003-0.001,0.003-0.001c-0.116,0.134-0.232,0.268-0.348,0.401c0.009,0.112-0.024,0.209-0.1,0.293
	c-0.338,0.409-0.676,0.819-1.014,1.228c-0.399,0.469-0.798,0.938-1.198,1.407c-0.244,0.257-0.488,0.513-0.732,0.77
	c0,0-0.002,0.001-0.002,0.001c-0.111,0.138-0.223,0.277-0.334,0.415c-0.416,0.59-0.832,1.181-1.248,1.772
	c-0.189,0.302-0.377,0.605-0.566,0.907c-0.045,0.083-0.089,0.166-0.134,0.248c-0.483,0.888-0.967,1.776-1.45,2.665
	c-0.376,1.254-0.752,2.509-1.128,3.763c-0.338,0.777-0.677,1.554-1.015,2.331c-0.036,0.094-0.094,0.174-0.172,0.238
	c-0.243,0.231-0.487,0.463-0.73,0.694c-0.186,0.098-0.373,0.195-0.559,0.293c-1.051-0.23-1.904-0.654-2.109-1.874
	c-0.037-0.22-0.406-0.385-0.622-0.576c-1.265-1.863-2.66-3.66-3.031-5.977c0.352-0.33,0.349-0.614-0.11-0.837
	c-0.011-1.94-0.023-3.881-0.034-5.821c0.567-0.446,0.669-0.97,0.261-1.577c0.285-1.857,0.57-3.714,0.855-5.571
	c0.519-0.167,0.551-0.442,0.18-0.807c-0.034-0.123-0.03-0.245,0.013-0.365c0.916-0.43,0.8-1.123,0.475-1.868
	c0.048-0.229,0.097-0.458,0.145-0.688c0.416-0.72,1.101-1.382,0.507-2.323c0.558-2.263,1.067-4.54,1.693-6.784
	c0.318-1.143,0.845-2.227,1.277-3.338c0.484-0.765,0.969-1.529,1.453-2.294c0.625-0.618,1.25-1.237,1.875-1.855
	c0.873-0.881,1.746-1.763,2.619-2.644c0.54-0.582,1.081-1.163,1.621-1.745c0.741-0.752,1.483-1.505,2.224-2.257
	c0.943-0.554,1.886-1.107,2.829-1.661c0.809-0.042,1.606-0.108,2.034-0.957c0.336-0.173,0.672-0.345,1.008-0.518
	c1.355-0.277,2.94-0.254,2.959-2.272c0.081-0.184,0.163-0.367,0.244-0.551c0.178-0.307,0.356-0.614,0.534-0.92
	c0.044-0.082,0.093-0.163,0.144-0.241c0.323-0.419,0.646-0.838,0.968-1.257c1.429-2.498,3.626-4.116,6.048-5.579
	c3.026-1.828,6.277-2.947,9.689-3.706c0.525-0.117,1.043-0.264,1.564-0.397c1.015-0.361,2.031-0.722,3.046-1.084
	c0.36-0.017,0.72-0.035,1.08-0.052c0.738,0.514,1.306,0.08,1.876-0.338c0.093-0.072,0.198-0.116,0.315-0.133
	c0.791-0.01,1.582-0.02,2.372-0.03c1.103,0.051,2.207,0.102,3.31,0.153c0.516,0.104,1.032,0.207,1.548,0.311
	c0.363-0.023,0.726-0.046,1.089-0.07c0,0-0.001,0.085-0.001,0.085c1.377,0.259,2.753,0.519,4.13,0.778
	c3.129,0.81,6.256,1.626,9.389,2.422c0.466,0.118,0.957,0.141,1.436,0.208c2.131,0.871,4.262,1.741,6.393,2.612
	c0.243,0.135,0.485,0.269,0.728,0.404c1.15,0.478,2.299,0.957,3.449,1.435c0.088,0.021,0.166,0.06,0.235,0.118
	c0.274,0.227,0.548,0.454,0.821,0.681c1.48,0.891,2.961,1.783,4.441,2.674c0.641,0.358,1.281,0.716,1.922,1.074
	c0.246,0.131,0.492,0.262,0.738,0.393c0.221,0.106,0.438,0.293,0.665,0.306c2.659,0.151,5.32,0.276,7.98,0.407
	c2.502,0.457,4.884,1.272,7.165,2.394c0.213,0.105,0.446,0.167,0.67,0.248c0.878,0.375,1.755,0.749,2.633,1.124
	c0.855,0.521,1.71,1.042,2.565,1.564c0.294,0.203,0.587,0.406,0.881,0.609c0.073,0.05,0.146,0.101,0.217,0.154
	c0.782,0.718,1.563,1.435,2.345,2.152c0.108-0.005,0.207,0.02,0.3,0.076c0.286,0.211,0.573,0.422,0.859,0.632
	c0.376,0.377,0.752,0.754,1.128,1.13c0.328,0.541,0.657,1.082,0.985,1.622c0.3,0.586,0.601,1.172,0.901,1.757
	c0.615,1.51,1.231,3.019,1.846,4.529c0.456,1.026,0.912,2.052,1.367,3.078c0.076,0.188,0.152,0.375,0.229,0.563
	c0.254,1.239,0.255,2.57,1.286,3.525c1.049,0.713,2.098,1.426,3.147,2.139c0.37,0.255,0.739,0.51,1.108,0.765
	c0.25,0.246,0.501,0.492,0.751,0.738c0.324,0.42,0.648,0.84,0.971,1.26c0.53,0.851,1.059,1.703,1.589,2.554
	c0.221,0.267,0.442,0.534,0.662,0.801c0.089,0.083,0.124,0.184,0.105,0.304c0.438,0.659,0.875,1.317,1.313,1.976
	c0.087,0.189,0.173,0.378,0.26,0.567c0.199,1.147,0.378,2.302,1.321,3.134c0.116,0.081,0.148,0.188,0.097,0.32
	c-0.206,0.691,0.118,1.165,0.64,1.557c0.12,0.082,0.154,0.191,0.1,0.326c0.302,1.154,0.605,2.308,0.907,3.463
	c0.226,2.464,0.452,4.929,0.678,7.393c0.111,0.376,0.223,0.752,0.334,1.128c-0.24,5.082-0.326,10.156,0.321,15.224
	c0.163,1.278-0.004,2.598-0.019,3.899c-0.613,2.252-1.226,4.504-1.838,6.756c-0.137,0.496-0.274,0.992-0.411,1.488
	c-0.373,0.989-0.747,1.978-1.12,2.968c0,0,0.01,0.018,0.01,0.018c-0.885,0.366-1.77,0.732-2.654,1.098
	c-0.221,0.024-0.443,0.047-0.664,0.071c-0.156,0.075-0.311,0.149-0.467,0.224c0,0,0.025,0.107,0.025,0.107
	c-0.969-0.068-1.939-0.136-2.908-0.203c-0.667-0.109-1.407-1.086-1.961,0.163c-1.233-0.364-2.466-0.727-3.699-1.091
	c-0.405-0.34-0.81-0.68-1.215-1.02c-1.075-1.097-1.425-2.54-1.716-3.953c-0.157-0.764-0.316-1.208-1.143-1.418
	c-1.044-0.265-2.07-0.658-3.047-1.117c-3.474-1.63-7.026-3.055-10.702-4.155c-2.497-0.748-4.98-1.645-7.537-2.049
	c-1.687-0.267-3.13,0.795-3.936,2.435c-0.683,0.635-0.983,1.377-0.64,2.298c0.03,0.873-0.035,1.761,0.107,2.616
	c0.709,4.25-0.145,8.325-1.282,12.377c-0.37,0.753-0.74,1.506-1.11,2.259c-0.206,0.452-0.412,0.904-0.619,1.356
	c-0.153,0.312-0.307,0.625-0.46,0.937c-0.156,0.219-0.312,0.439-0.467,0.658c-0.115,0.137-0.23,0.273-0.344,0.41
	c-0.862,1.531-2.033,2.716-3.686,3.396c-3.559,1.465-7.081,3.036-10.898,3.749c-0.124-0.056-0.248-0.111-0.372-0.167
	c-0.132-0.038-0.265-0.075-0.397-0.113c-1.243,0.066-2.486,0.181-3.73,0.19c-2.983,0.023-5.967-0.004-8.95-0.011
	c0,0-0.014-0.027-0.013-0.027c-1.607-0.365-3.215-0.73-4.822-1.095c-2.568-1.408-4.683-3.29-6.138-5.864
	c-0.567-1.996-1.527-3.775-2.923-5.315c-1.129-3.109-2.249-6.221-3.394-9.324c-0.332-0.899-0.738-1.771-1.111-2.655
	c-0.07-0.156-0.139-0.312-0.209-0.469c-0.413-0.365-0.826-0.73-1.24-1.095c-0.157-0.088-0.314-0.176-0.471-0.264
	c-0.102-0.026-0.206-0.049-0.309-0.068c-0.236-0.151-0.473-0.302-0.709-0.453c-0.911-0.46-1.829-0.492-2.755-0.042
	c-0.335,0.177-0.67,0.354-1.004,0.531c-0.263,0.251-0.526,0.502-0.79,0.753c-0.099,0.125-0.197,0.249-0.296,0.374
	c-0.127,0.741-0.254,1.482-0.382,2.223c-0.151,0.378-0.301,0.755-0.452,1.133c-0.127,0.75-0.255,1.5-0.382,2.25
	c-0.017,0.248-0.034,0.495-0.051,0.743c-0.073,0.583-0.146,1.166-0.219,1.749c-0.153,0.42-0.305,0.84-0.458,1.26
	c-1.09,4.182-2.828,8.024-6.224,10.846c-2.335,1.94-4.863,3.657-7.683,4.831c-1.811,0.754-3.709,1.298-5.568,1.936
	c-0.986,0.049-1.975,0.066-2.958,0.153c-2.288,0.203-4.571,0.486-6.862,0.643c-1.222,0.083-2.458-0.03-3.688-0.054
	c-2.487-0.558-3.861-2.446-5.159-4.387c-2.53-3.782-4.039-7.948-4.532-12.477c-0.033-0.25-0.066-0.499-0.099-0.749
	c-0.202-1.501-0.404-3.002-0.606-4.504c0.377-0.747,0.425-1.418-0.43-1.883c-0.468-1.311-1.319-2.278-2.639-2.739
	c-0.749-0.262-1.099-0.892-1.129-1.49c-0.095-1.853-0.092-3.719,0.02-5.571c0.05-0.826,0.348-1.713,1.447-1.835
	c1.388-0.235,2.776-0.47,4.164-0.704c1.845-0.402,3.691-0.803,5.536-1.205c1.369-0.13,2.737-0.26,4.106-0.39
	c5.167,0.027,10.335,0.056,15.502,0.069c0.228,0.001,0.457-0.16,0.685-0.246c1.502-0.004,3.004-0.008,4.506-0.012
	c0.883,0.076,1.767,0.151,2.651,0.227c0.227,0.036,0.453,0.073,0.68,0.109c0.406,0.08,0.812,0.16,1.219,0.24
	c0.575,0.19,1.14,0.421,1.727,0.563c1.506,0.363,3.022,0.685,4.534,1.024c2.714,0.69,5.456,0.441,8.195,0.236
	c0.142-0.011,0.269-0.219,0.403-0.335c3.146-1.177,5.935-2.987,8.664-4.902c0.741-0.125,1.482-0.251,2.224-0.376
	c0.989-0.222,1.978-0.444,2.966-0.667c1.009-0.115,2.018-0.23,3.028-0.345c-0.014-0.149-0.027-0.299-0.041-0.448
	c-1.359,0.103-2.718,0.205-4.077,0.308c-1.375,0.059-2.75,0.119-4.125,0.178c-1.049-0.615-0.951-1.465-0.461-2.371
	c0.261-0.483,0.573-0.939,0.862-1.407c0.354-0.397,0.708-0.793,1.062-1.19c0.243-0.257,0.485-0.514,0.728-0.772
	c0.608-0.085,1.218-0.253,1.825-0.242c4.178,0.076,8.354,0.19,12.532,0.292c2.818,0.039,5.508,0.843,8.243,1.383
	c0.355,0.07,0.716,0.109,1.074,0.163C278.059,82.736,279.193,82.976,280.327,83.215z M200.532,124.825
	c0.128,0.123,0.256,0.247,0.385,0.37c0.739,0.247,1.478,0.495,2.218,0.742c2.126,0.127,4.252,0.255,6.379,0.382
	c1.506-0.239,3.012-0.478,4.518-0.717c0.596-0.157,1.193-0.314,1.789-0.471c0.414-0.211,0.827-0.422,1.241-0.634
	c0.086-0.036,0.173-0.072,0.259-0.107c1.055-0.176,2.083-0.407,2.749-1.367c2.338-1.038,4.234-2.728,6.253-4.237
	c0.293-0.208,0.586-0.416,0.879-0.624c0.49-0.508,0.979-1.015,1.469-1.523c0.215-0.408,0.429-0.816,0.644-1.225
	c2.805-4.099,3.641-8.694,3.338-13.549c-0.109-1.739-0.604-3.474-2.042-4.531c-1.451-1.067-3.109-1.895-4.97-2.118
	c-0.408-0.233-0.792-0.584-1.23-0.673c-0.783-0.159-1.598-0.161-2.4-0.229c-1.797-0.187-3.594-0.374-5.391-0.561
	c-1.371-0.004-2.742-0.008-4.112-0.012c-0.232-0.04-0.464-0.081-0.696-0.121c-0.466-0.1-0.931-0.278-1.399-0.286
	c-2.028-0.035-4.057-0.036-6.085-0.011c-0.409,0.005-0.815,0.176-1.222,0.27c-0.22,0.01-0.44,0.021-0.66,0.031
	c-0.647,0.019-1.294,0.037-1.942,0.056c-0.252,0.136-0.504,0.273-0.757,0.409c-2.52-0.296-4.247,1.249-6.021,2.64
	c-0.607,0.476-0.529,1.262,0.068,1.559c1.768,0.88,3,2.594,5.054,3.047c1.46,0.322,2.858,0.926,4.284,1.404
	c0.485,0.145,0.969,0.29,1.454,0.435c0.1,0.667,0.2,1.335,0.3,2.002c-0.02,0.469-0.04,0.937-0.059,1.406
	c0,0-0.054,0.077-0.054,0.077c-0.529-0.067-1.058-0.133-1.587-0.2c-0.127-0.038-0.253-0.077-0.38-0.115
	c-0.25-0.086-0.499-0.173-0.749-0.259c-0.125-0.037-0.25-0.074-0.375-0.111c-0.248-0.089-0.497-0.178-0.745-0.267
	c-0.126-0.04-0.252-0.081-0.378-0.121c-0.259-0.078-0.518-0.156-0.777-0.233c-1.346-0.402-2.691-0.805-4.037-1.207
	c-0.557-0.757-1.051-0.741-1.474,0.121c0.13,1.972,0.26,3.943,0.39,5.915c0.067,0.157,0.134,0.315,0.2,0.472
	c0.133,0.846,0.346,1.688,0.384,2.538c0.15,3.302,1.225,6.277,3.037,9.01c0.121,0.132,0.241,0.263,0.362,0.395l0-0.001
	c0.125,0.125,0.249,0.25,0.374,0.375c0.398,0.475,0.797,0.95,1.195,1.425c0.107,0.144,0.214,0.287,0.322,0.431L200.532,124.825z
	 M255.208,118.836c0.135,0.114,0.271,0.228,0.406,0.342l0.002,0.003c0.215,0.283,0.429,0.566,0.644,0.849
	c0.375,0.374,0.75,0.748,1.126,1.122c0.275,0.226,0.55,0.452,0.825,0.678c0.371,0.25,0.741,0.5,1.112,0.75
	c1.001,0.289,2.001,0.578,3.002,0.868c0.633,0.076,1.266,0.151,1.899,0.227c3.022,0.013,6.044,0.055,9.066,0.021
	c0.968-0.011,1.934-0.223,2.9-0.343c3.612-0.802,7.092-1.939,10.183-4.053c0.348-0.238,0.796-0.415,1.014-0.743
	c2.264-3.402,3.536-7.183,4.278-11.181c0.566-3.053,0.053-6.096,0.021-9.138c-0.015-1.381-0.578-2.756-0.892-4.133
	c-0.117-0.257-0.234-0.513-0.351-0.77c0.006-0.118-0.005-0.234-0.034-0.349c-0.088-0.15-0.176-0.3-0.264-0.45
	c-0.297-0.342-0.594-0.683-0.891-1.025c-0.222-0.772-0.645-1.338-1.497-1.468c-0.621-0.372-1.241-0.745-1.862-1.117
	c-0.785-0.78-1.744-0.369-2.64-0.387c-3.101-0.069-6.202-0.138-9.303-0.208c-0.135-0.002-0.27-0.004-0.405-0.006
	c-1.488,0.067-2.975,0.133-4.463,0.2c-0.882,0.108-1.764,0.215-2.646,0.323l0.014,0.014c-0.99,0.011-1.981,0.022-2.971,0.033
	c-0.264,0.055-0.528,0.11-0.792,0.165c-0.754,0.181-1.508,0.362-2.262,0.543c-0.902,0.142-1.804,0.286-2.706,0.427
	c-3.483,0.543-6.221,2.169-7.853,5.403c-0.51,0.116-0.801,0.367-0.579,0.935c-0.006,2.247-0.011,4.495-0.017,6.742
	c-0.242,0.489-0.117,1.333,0.33,2.228c0.126,0.627,0.251,1.254,0.377,1.881c0.633,1.862,1.267,3.725,1.9,5.587
	c0.417,0.802,0.834,1.604,1.251,2.406c0.341,0.688,0.682,1.375,1.024,2.063c0.2,0.292,0.4,0.583,0.601,0.875
	c0.072,0.084,0.105,0.182,0.1,0.293c0.118,0.132,0.236,0.264,0.354,0.396L255.208,118.836z"/>
<path class="st1" d="M209.094,172.041c-0.058-0.96-0.117-1.921-0.175-2.881c-0.087-0.663-0.174-1.325-0.261-1.988
	c-0.04-0.211-0.08-0.422-0.12-0.633c0.29-0.682,0.207-1.253-0.488-1.643c-0.138-0.741-0.277-1.482-0.415-2.223
	c-0.018-0.249-0.037-0.497-0.055-0.746c-0.051-0.46-0.102-0.92-0.153-1.38c0.241-0.823-0.262-1.272-0.844-1.682
	c-0.292-0.33-0.585-0.661-0.877-0.991c-0.496-0.648-0.992-1.296-1.489-1.944c-0.104-0.692-0.167-1.368,0.685-1.667
	c0.531,0.074,1.062,0.149,1.593,0.223c0.635,0.106,1.271,0.213,1.906,0.319c1.884,0.608,3.795,0.527,5.712,0.209
	c0.092-0.015,0.16-0.171,0.24-0.261c0.368-0.159,0.734-0.324,1.106-0.476c1.802-0.737,3.129-2.007,4.074-3.682
	c1.816-3.218,4.727-5.082,7.998-6.491c0.587-0.253,1.244-0.343,1.868-0.509c0.87,0.083,1.741,0.165,2.612,0.248
	c0,0,0.015,0.053,0.016,0.053c0.961,0.411,1.921,0.823,2.881,1.234c0.146,0.085,0.293,0.171,0.439,0.256
	c0.378,0.022,0.756,0.043,1.135,0.065c1.369,0.476,2.735,0.79,4.085-0.059c0.04-0.097,0.068-0.198,0.083-0.302
	c1.466-0.527,2.932-1.054,4.398-1.582c2.288-0.4,4.576-0.551,6.867-0.022c0.346,0.031,0.693,0.061,1.04,0.092
	c1.254,0.245,2.509,0.49,3.763,0.735c1.123,0.252,2.246,0.504,3.368,0.756c0.252,0.117,0.505,0.235,0.758,0.352
	c1.019,0.339,2.037,0.679,3.056,1.018c0.096,0.038,0.188,0.083,0.277,0.134c0.757,0.37,1.514,0.74,2.272,1.111
	c2.305,0.979,3.973,2.502,4.979,4.903c0.436,1.042,1.649,1.758,2.509,2.622c0.873,0.534,1.753,0.549,2.638,0.031
	c1.443-0.716,2.917-1.376,4.318-2.167c1.1-0.622,2.158-0.713,3.293-0.216c0.092,0.135,0.185,0.27,0.278,0.405
	c0.034,0.389,0.068,0.779,0.103,1.168c-0.733,0.919-1.564,1.793-1.4,3.115c0.005,0.667,0.01,1.334,0.015,2.001
	c-0.172,0.715,0.151,1.122,0.816,1.317c0.509,0.488,1.017,0.977,1.526,1.465c0.128,0.121,0.255,0.243,0.382,0.364
	c0,0,0,0.003,0,0.003c0.138,0.112,0.277,0.224,0.415,0.335c1.491,0.632,2.982,1.265,4.473,1.897c0.755,0.235,1.509,0.47,2.264,0.705
	c2.375,0.739,4.763,0.528,7.154,0.098c0.48-0.145,0.961-0.291,1.441-0.436c2.218-0.218,4.036-1.431,5.945-2.408
	c0.531-0.272,0.992-0.682,1.485-1.029c0.293-0.209,0.585-0.417,0.878-0.626c0.205-0.165,0.411-0.329,0.617-0.494
	c1.24-0.512,2.122-1.38,2.621-2.63c0.163-0.21,0.325-0.42,0.488-0.63c0.335-0.411,0.67-0.822,1.005-1.232
	c0.887-1.564,1.838-3.096,2.634-4.704c0.415-0.839,0.56-1.811,0.827-2.724c0.587-0.779,1.021-1.817,1.797-2.278
	c1.244-0.739,1.813-1.786,2.235-3.033c0.125-0.155,0.249-0.31,0.374-0.465c1.042,0.14,2.084,0.281,3.127,0.421
	c0,0,0.046,0.044,0.046,0.044c0.155,0.314,0.311,0.627,0.466,0.941c-0.104,5.61-0.204,11.22-0.318,16.83
	c-0.014,0.684-0.099,1.366-0.151,2.049c-0.519,0.736-0.587,1.515-0.216,2.334c-0.042,0.223-0.085,0.445-0.127,0.667
	c-0.168,0.406-0.336,0.812-0.504,1.219c-0.584,1.649-1.042,3.357-1.777,4.937c-1.737,3.735-3.541,7.444-5.443,11.097
	c-1.407,2.701-2.977,5.32-4.544,7.933c-0.767,1.28-1.693,2.464-2.548,3.692c-0.336,0.414-0.671,0.827-1.007,1.24
	c-1.782,1.835-3.564,3.671-5.346,5.506c-0.336,0.416-0.672,0.832-1.009,1.248c-0.624,0.618-1.248,1.237-1.872,1.856
	c-0.539,0.465-1.077,0.931-1.616,1.396c-0.203,0.168-0.406,0.336-0.609,0.504c-0.544,0.46-1.087,0.919-1.631,1.379
	c-0.205,0.166-0.409,0.332-0.614,0.498c-0.304,0.189-0.609,0.378-0.913,0.568c-3.677,2.81-7.62,5.21-11.628,7.508
	c-0.227,0.138-0.453,0.276-0.68,0.414c0,0-0.019,0.009-0.019,0.009c-0.136,0.064-0.273,0.127-0.409,0.191
	c-0.106,0.065-0.216,0.124-0.329,0.178c-0.903,0.442-1.806,0.884-2.709,1.327c-0.098,0.058-0.199,0.111-0.303,0.158
	c-0.359,0.137-0.717,0.275-1.076,0.412c-3.118,1.311-6.24,2.613-9.354,3.934c-3.015,1.279-6.005,2.619-9.043,3.84
	c-0.893,0.359-1.911,0.406-2.872,0.596c-1.125,0.11-2.25,0.219-3.374,0.329c-0.149,0.043-0.299,0.087-0.448,0.13
	c-2.361,0.013-4.722,0.027-7.084,0.04c-0.411-0.301-0.808-0.412-1.159,0.086c-0.715-0.101-1.448-0.133-2.143-0.313
	c-3.79-0.985-7.619-1.859-11.336-3.074c-1.981-0.647-3.762-1.905-5.633-2.888c-0.387-0.361-0.774-0.721-1.161-1.082
	c-0.25-0.256-0.499-0.511-0.749-0.767c-0.229-0.265-0.458-0.53-0.688-0.795c-0.273-0.48-0.545-0.961-0.818-1.441
	c-0.546-1.409-1.06-2.832-1.656-4.219c-0.179-0.416-0.589-0.732-0.892-1.094c-0.253-0.757-0.413-1.562-0.776-2.261
	c-1.153-2.217-1.726-4.606-2.236-7.021c-0.112-0.528-0.235-1.054-0.353-1.581c0.387-0.455,0.312-0.859-0.132-1.224
	c-0.057-0.343-0.115-0.686-0.172-1.03c0.354-0.476,0.168-0.713-0.353-0.803c-0.113-1.071-0.227-2.142-0.34-3.213
	c0.395-0.641-0.207-0.874-0.503-1.232c-0.184-0.889-0.323-1.79-0.561-2.665c-0.541-1.988-1.131-3.963-1.701-5.943
	c0.23-1.133-0.27-1.952-1.129-2.615c-0.991-3.375-1.983-6.751-2.974-10.126C209.134,172.79,209.114,172.416,209.094,172.041z
	 M240.562,154.005l-0.007,0.008c-0.221,0.279-0.442,0.558-0.662,0.837c-0.749,0.752-1.498,1.505-2.247,2.257
	c-0.15,0.089-0.301,0.178-0.451,0.267c-0.586,0.294-1.172,0.588-1.758,0.883c-0.642,0.113-1.285,0.227-1.927,0.34
	c-0.767,0.171-1.534,0.343-2.302,0.514c-1.868,0.072-3.737,0.145-5.605,0.217c-0.115-0.024-0.231-0.034-0.348-0.029
	c-0.784-0.905-1.663-1.248-2.733-0.463c-0.091,0.023-0.169,0.069-0.233,0.137c-0.155,0.092-0.309,0.184-0.464,0.276
	c-1.125,0.548-1.556,1.7-2.271,2.605c-0.329,0.474-0.793,0.908-0.95,1.433c-0.159,0.528-0.535,1.294,0.416,1.611
	c0.086,0.501,0.172,1.003,0.258,1.504c0.149,0.379,0.299,0.758,0.448,1.137c0.093,0.752,0.185,1.504,0.278,2.256
	c0.371,0.998,0.743,1.995,1.114,2.993c0.621,1.369,1.171,2.777,1.887,4.095c0.512,0.942,1.246,1.763,1.881,2.638
	c0.346,0.403,0.692,0.807,1.037,1.21c0.51,0.485,1.02,0.971,1.53,1.456c0.266,0.241,0.532,0.481,0.798,0.722
	c0.541,0.257,1.081,0.514,1.772,0.842c0.3-0.573,0.647-1.069,0.829-1.619c0.32-0.967,0.54-1.968,0.802-2.955
	c0.64-0.234,0.988-0.549,0.314-1.144c-0.075-1.448-0.151-2.896-0.226-4.343c-0.105-0.455-0.21-0.909-0.315-1.364
	c-0.042-1.081-0.084-2.163-0.126-3.244c0.78-0.618,1.611-0.936,2.579-0.434c0.236,0.019,0.471,0.037,0.707,0.056
	c2.124,0.317,4.249,0.633,6.373,0.95c3.654,0.021,7.309,0.047,10.963,0.052c0.23,0,0.46-0.161,0.69-0.248
	c0.985-0.375,1.97-0.751,2.955-1.126c0.537,0.073,1.075,0.147,1.612,0.22c0.169,0.234,0.338,0.469,0.507,0.703
	c-0.201,0.553-0.402,1.107-0.603,1.66c-2.56,3.249-3.727,6.785-2.245,10.87c0.255,0.903,0.464,1.834,1.412,2.314
	c0.066,0.093,0.093,0.197,0.081,0.31c0.22,0.273,0.44,0.546,0.66,0.819c0.069,0.09,0.098,0.191,0.088,0.304
	c0.239,0.264,0.478,0.528,0.717,0.792c0.434,0.453,0.868,0.906,1.302,1.359c0.099,0.132,0.197,0.265,0.296,0.397
	c0.602,0.278,1.204,0.556,1.806,0.833c1.494,0.557,2.987,0.636,4.478-0.011c0,0-0.007-0.125-0.007-0.125
	c0.138,0.018,0.276,0.037,0.414,0.055c2.27,0.088,4.215-0.973,6.166-1.88c1.149-0.534,2.128-1.437,3.183-2.174
	c0.11-0.133,0.221-0.266,0.331-0.399c0.165-0.216,0.33-0.432,0.496-0.649c0.148-0.308,0.297-0.616,0.446-0.923
	c0.089-0.328,0.178-0.656,0.267-0.983c0.329-0.532,0.658-1.065,0.987-1.597c0.566-2.578,1.274-5.139,0.971-7.826
	c0.385-0.76,0.37-1.422-0.463-1.882c-0.104-0.53-0.161-1.075-0.322-1.586c-0.502-1.594-1.044-3.176-1.571-4.762
	c-0.045-0.291-0.089-0.583-0.134-0.874c-0.054-0.459-0.108-0.918-0.162-1.377c-0.153-0.257-0.307-0.513-0.46-0.77
	c-0.047-0.074-0.113-0.1-0.198-0.076c-0.259-0.018-0.518-0.035-0.777-0.053c-0.911,0.074-1.823,0.147-2.734,0.221
	c-0.767,0.067-1.535,0.134-2.302,0.2c-2.611-0.014-5.222-0.028-7.833-0.042c-0.154-0.043-0.309-0.086-0.463-0.13
	c-1.604-0.024-3.208-0.047-4.812-0.071c-4.506-0.644-8.602-2.322-12.334-4.912c-0.272-0.232-0.544-0.464-0.816-0.696
	c-0.336-0.282-0.673-0.563-1.009-0.845c-0.293-0.212-0.586-0.425-0.879-0.637c-0.077-0.045-0.153-0.091-0.228-0.138
	C240.959,153.361,240.938,153.362,240.562,154.005z"/>
<path class="st1" d="M228.836,88.673c-0.081,0.159-0.162,0.318-0.243,0.476c-1.361-0.009-2.722-0.019-4.083-0.028
	c-0.393-0.065-0.786-0.13-1.179-0.195c-2.219-0.001-4.439-0.002-6.658-0.004c-2.792-0.001-5.584-0.01-8.376,0.009
	c-0.353,0.002-0.704,0.159-1.057,0.244c-0.859,0.025-1.718,0.051-2.577,0.076c-1.315-0.001-2.629-0.001-3.944-0.002
	c0.029-0.176,0.059-0.353,0.088-0.528c0.139-0.206,0.278-0.412,0.417-0.619c0,0,0.064-0.02,0.064-0.019
	c0.122-0.1,0.245-0.2,0.368-0.3c0.747-0.739,1.431-1.559,2.258-2.193c0.838-0.642,1.832-1.05,2.954-0.876
	c0.89-0.095,1.779-0.19,2.669-0.285c0.36-0.039,0.719-0.078,1.079-0.117c0.773-0.078,1.546-0.156,2.319-0.235
	c2.625-0.144,5.25-0.289,7.874-0.433c0.339-0.024,0.679-0.048,1.019-0.072c1.771,0.014,3.541,0.028,5.312,0.042
	c0.87,0.839,1.604,1.758,1.787,3.006C228.897,87.305,228.866,87.989,228.836,88.673z"/>
<path class="st1" d="M312.553,90.675c1.661,0.762,3.321,1.528,4.985,2.284c0.836,0.38,1.701,0.7,2.51,1.128
	c0.389,0.206,0.679,0.6,1.154,1.038c-1.841,0.109-5.974-1.553-9.433-3.665C312.031,91.199,312.292,90.937,312.553,90.675z"/>
<path class="st1" d="M217.934,408.757c1.281,0.063,2.563,0.126,3.844,0.189c0.164,0.029,0.327,0.059,0.49,0.089
	c4.477,0.208,8.955,0.417,13.432,0.625c0.01,0.088,0.036,0.171,0.077,0.249c-0.145,0.048-0.29,0.096-0.434,0.144
	c-5.64-0.298-11.28-0.59-16.919-0.901c-0.739-0.041-1.473-0.183-2.209-0.278C216.788,408.835,217.361,408.796,217.934,408.757z"/>
<path class="st1" d="M278.796,405.857c0.67-0.129,1.337-0.353,2.009-0.372c4.484-0.129,8.972-0.228,13.429,0.435
	c0.502,0.075,0.961,0.439,1.44,0.669c-5.176-0.948-10.397-0.822-15.62-0.655C279.636,405.947,279.216,405.884,278.796,405.857z"/>
<path class="st1" d="M155.207,407.14c1.728,0.045,3.456,0.112,5.184,0.13c4.265,0.044,8.53,0.065,12.795,0.095
	c0.03,0.097,0.061,0.194,0.094,0.29c-1.603,0.022-3.206,0.06-4.809,0.063c-3.834,0.007-7.669,0.016-11.503-0.02
	c-0.717-0.007-1.431-0.219-2.147-0.336C154.95,407.288,155.078,407.214,155.207,407.14z"/>
<path class="st1" d="M218.508,90.843c-0.228,0.086-0.457,0.246-0.685,0.246c-5.167-0.012-10.335-0.042-15.502-0.068
	c0.048-0.097,0.076-0.2,0.084-0.308c0.24-0.034,0.48-0.068,0.719-0.102c2.265-0.002,4.53-0.004,6.795-0.007
	c0.73,0,1.461,0,2.191-0.001c0.394-0.001,0.789-0.001,1.184-0.002c1.105,0.001,2.21,0.002,3.314,0.004
	c0.628,0.02,1.255,0.039,1.883,0.059C218.491,90.663,218.508,90.843,218.508,90.843z"/>
<path class="st1" d="M201.643,128.952c1.23,0.025,2.466,0.138,3.688,0.054c2.291-0.156,4.574-0.44,6.862-0.643
	c0.983-0.087,1.972-0.104,2.958-0.153c-3.803,0.837-7.637,1.387-11.543,1.153C202.947,129.324,202.298,129.094,201.643,128.952z"/>
<path class="st1" d="M267.608,80.951c-4.177-0.102-8.354-0.216-12.532-0.292c-0.607-0.011-1.216,0.157-1.825,0.242
	c0.593-0.231,1.184-0.655,1.779-0.662c3.657-0.041,7.315,0.007,10.972,0.041C266.615,80.285,267.271,80.256,267.608,80.951z"/>
<path class="st1" d="M181.443,407.961c2.43,0.003,4.86-0.015,7.289,0.013c2.307,0.027,4.614,0.102,6.921,0.157
	c0.003,0.099,0.011,0.198,0.025,0.296c-4.543,0.008-9.087,0.025-13.63,0.013c-0.485-0.001-0.97-0.17-1.455-0.261
	c0.177-0.043,0.354-0.086,0.53-0.129C181.237,408.047,181.344,408.017,181.443,407.961z"/>
<path class="st1" d="M262.755,126.254c2.983,0.007,5.967,0.033,8.95,0.011c1.244-0.009,2.487-0.124,3.73-0.19
	c0.132,0.038,0.265,0.075,0.397,0.113c0.124,0.056,0.248,0.111,0.372,0.167c-0.359,0.085-0.717,0.241-1.077,0.244
	c-3.6,0.035-7.201,0.061-10.801,0.043C263.802,126.638,263.279,126.389,262.755,126.254z"/>
<path class="st1" d="M259.303,45.011c0.367-0.177,0.734-0.353,1.102-0.53c3.779,0.001,7.557,0.002,11.336,0.003
	c0.626,0.17,1.253,0.341,1.879,0.511C268.847,45,264.075,45.005,259.303,45.011z"/>
<path class="st1" d="M322.18,143.505c-0.422,1.247-0.991,2.293-2.235,3.033c-0.776,0.461-1.21,1.499-1.797,2.278
	c0.427-1.348,0.872-2.651,2.347-3.296c0.384-0.168,0.581-0.748,0.884-1.122C321.631,144.088,321.912,143.802,322.18,143.505z"/>
<path class="st1" d="M204.665,89.253c0.859-0.025,1.718-0.051,2.577-0.076c3.117-0.004,6.233-0.009,9.35-0.013
	c0.151,0.048,0.302,0.097,0.453,0.145c-0.226,0.087-0.452,0.25-0.678,0.251c-3.939,0.001-7.879-0.018-11.818-0.032
	C204.596,89.439,204.635,89.348,204.665,89.253z"/>
<path class="st1" d="M279.948,15.777c-2.131-0.871-4.262-1.741-6.393-2.612C274.671,13.137,279.272,15.016,279.948,15.777z"/>
<path class="st1" d="M338.749,102.733c0.613-2.252,1.226-4.504,1.838-6.756C340.883,98.063,339.914,101.622,338.749,102.733z"/>
<path class="st1" d="M283.717,265.745c-1.404,1.35-2.809,2.701-4.213,4.051C280.908,268.446,282.312,267.095,283.717,265.745z"/>
<path class="st1" d="M300.926,23.268c-2.66-0.132-5.321-0.256-7.98-0.407c-0.227-0.013-0.443-0.2-0.665-0.306
	c2.457,0.036,4.915,0.044,7.369,0.135C300.082,22.705,300.501,23.067,300.926,23.268z"/>
<path class="st1" d="M233.824,92.993c-1.512-0.339-3.028-0.661-4.534-1.024c-0.587-0.141-1.152-0.373-1.727-0.563
	c-0.019-0.101-0.036-0.202-0.051-0.304c2.264,0.565,4.528,1.13,6.793,1.695C234.145,92.863,233.985,92.928,233.824,92.993z"/>
<path class="st1" d="M248.859,113.953c1.396,1.539,2.356,3.319,2.923,5.315C250.807,117.497,249.833,115.725,248.859,113.953z"/>
<path class="st1" d="M325.209,211.006c0.098,0.134,0.31,0.316,0.277,0.394c-0.755,1.776-1.536,3.541-2.312,5.308
	C323.852,214.807,324.531,212.906,325.209,211.006z"/>
<path class="st1" d="M220.386,212.879c0.304,0.362,0.714,0.678,0.892,1.094c0.597,1.387,1.111,2.81,1.656,4.219
	C222.085,216.421,221.236,214.65,220.386,212.879z"/>
<path class="st1" d="M291.156,50.626c1.51-0.127,3.499,0.532,4.523,1.499C294.172,51.626,292.664,51.126,291.156,50.626z"/>
<path class="st1" d="M233.824,92.993c0.16-0.065,0.32-0.13,0.48-0.196c2.706,0.032,5.411,0.064,8.117,0.096
	c-0.134,0.116-0.261,0.325-0.403,0.335C239.28,93.434,236.538,93.683,233.824,92.993z"/>
<path class="st1" d="M195.678,408.427c-0.013-0.098-0.021-0.197-0.025-0.296c2.857,0.003,5.715,0.006,8.572,0.009
	c0.034,0.093,0.091,0.171,0.168,0.233c-0.186,0.053-0.373,0.107-0.559,0.161C201.116,408.498,198.397,408.462,195.678,408.427z"/>
<path class="st1" d="M220.81,83.645c-2.625,0.144-5.25,0.289-7.874,0.433c-0.29-0.041-0.58-0.082-0.87-0.124
	c1.646-0.132,3.291-0.271,4.938-0.392c0.735-0.054,1.473-0.074,2.209-0.109C219.745,83.517,220.278,83.581,220.81,83.645z"/>
<path class="st1" d="M323.42,41.261c-0.615-1.51-1.231-3.019-1.846-4.529c1.122,1.323,1.636,2.938,2.175,4.54
	C323.639,41.267,323.53,41.264,323.42,41.261z"/>
<path class="st1" d="M246.621,228.465c2.361-0.013,4.722-0.027,7.084-0.04c0.102,0.072,0.216,0.107,0.341,0.104
	c0.025,0.068,0.055,0.135,0.088,0.199c-2.779,0.47-5.555,0.545-8.322-0.087C246.081,228.583,246.351,228.524,246.621,228.465z"/>
<path class="st1" d="M203.919,75.727c0.216,0.19,0.585,0.355,0.622,0.576c0.204,1.22,1.058,1.644,2.109,1.874
	c-1.183,0.414-1.772,0.266-2.215-0.689C204.179,76.939,204.085,76.316,203.919,75.727z"/>
<path class="st1" d="M251.912,143.485c-2.291-0.529-4.579-0.377-6.867,0.022c0.23-0.169,0.456-0.477,0.692-0.485
	c1.84-0.063,3.681-0.088,5.522-0.067C251.478,142.957,251.695,143.3,251.912,143.485z"/>
<path class="st1" d="M251.061,86.64c1.375-0.059,2.75-0.119,4.125-0.178c0.363,0.162,0.727,0.324,1.09,0.485
	c-0.989,0.222-1.978,0.444-2.967,0.667c-0.083-0.201-0.149-0.565-0.25-0.575c-0.532-0.051-1.072-0.013-1.61-0.006
	C251.32,86.902,251.19,86.771,251.061,86.64z"/>
<path class="st1" d="M203.835,408.533c0.186-0.054,0.373-0.107,0.559-0.16c0.21-0.037,0.42-0.074,0.63-0.111
	c2.244,0.078,4.489,0.156,6.733,0.234c0.01,0.098,0.027,0.195,0.051,0.29C209.151,408.702,206.493,408.618,203.835,408.533z"/>
<path class="st1" d="M274.302,45.022c1.315,0.117,2.636,0.188,3.94,0.381c0.346,0.051,0.636,0.479,0.952,0.734
	C277.564,45.765,275.933,45.393,274.302,45.022z"/>
<path class="st1" d="M235.343,410.053c0.145-0.048,0.29-0.096,0.434-0.144c1.251-0.023,2.501-0.047,3.752-0.07
	c1.101,0.054,2.203,0.108,3.304,0.162c0.023,0.097,0.059,0.19,0.107,0.278C240.408,410.203,237.876,410.128,235.343,410.053z"/>
<path class="st1" d="M313.194,158.107c-0.498,1.251-1.381,2.118-2.621,2.63C311.447,159.86,312.321,158.983,313.194,158.107z"/>
<path class="st1" d="M254.771,46.444c1.21-1.067,2.706-1.264,4.225-1.387C257.588,45.52,256.179,45.982,254.771,46.444z"/>
<path class="st1" d="M212.098,32.978c-0.873,0.881-1.746,1.763-2.619,2.644C210.351,34.74,211.224,33.859,212.098,32.978z"/>
<path class="st1" d="M335.003,209.887c-0.502-1.252-1.004-2.505-1.506-3.757C334.772,207.072,334.814,208.509,335.003,209.887z"/>
<path class="st1" d="M257.92,125.132c1.607,0.365,3.215,0.73,4.822,1.095C260.988,126.509,259.363,126.222,257.92,125.132z"/>
<path class="st1" d="M300.208,165.73c-2.391,0.43-4.779,0.641-7.154-0.098c0.131-0.074,0.263-0.149,0.394-0.223
	c1.974,0.04,3.948,0.08,5.921,0.12C299.649,165.596,299.929,165.663,300.208,165.73z"/>
<path class="st1" d="M248.105,46.331c1.645,0.043,3.29,0.081,4.934,0.131c0.483,0.015,0.964,0.065,1.446,0.1
	c-2.4,0.636-4.802,0.494-7.206,0.03c0.171-0.055,0.343-0.11,0.514-0.165C247.91,46.439,248.014,46.407,248.105,46.331z"/>
<path class="st1" d="M224.773,23.567c-0.019,2.018-1.604,1.995-2.959,2.272c0.169-0.158,0.313-0.407,0.51-0.459
	C223.387,25.096,224.138,24.415,224.773,23.567z"/>
<path class="st1" d="M339.272,68.332c-0.302-1.154-0.605-2.308-0.907-3.463C339.333,65.849,339.336,67.081,339.272,68.332z"/>
<path class="st1" d="M218.136,215.501c-0.989,0.765-1.978,1.531-2.967,2.296C215.912,216.714,216.411,215.314,218.136,215.501z"/>
<path class="st1" d="M217.044,89.308c-0.151-0.048-0.302-0.097-0.453-0.145c0.039-0.076,0.067-0.156,0.082-0.24
	c2.219,0.001,4.439,0.002,6.658,0.004c0.012,0.081,0.032,0.16,0.061,0.237c0,0,0.002,0.18,0.002,0.18
	C221.278,89.331,219.161,89.32,217.044,89.308z"/>
<path class="st1" d="M172.087,234.646c-0.978,0.129-1.955,0.278-2.936,0.382c-1.048,0.111-2.101,0.181-3.152,0.269
	c0.513-0.236,1.017-0.647,1.54-0.673C169.051,234.548,170.571,234.627,172.087,234.646z"/>
<path class="st1" d="M209.919,90.604c-2.265,0.002-4.53,0.004-6.795,0.007c0.401-0.1,0.805-0.296,1.202-0.283
	C206.191,90.388,208.055,90.506,209.919,90.604z"/>
<path class="st1" d="M315.216,81.236c0.078,1.33,0.043,2.625-1.126,3.56C314.465,83.61,314.841,82.423,315.216,81.236z"/>
<path class="st1" d="M284.124,17.616c-1.15-0.478-2.299-0.957-3.449-1.435C282.128,15.931,283.13,16.765,284.124,17.616z"/>
<path class="st1" d="M191.932,230.133c-1.384,0.241-2.768,0.482-4.152,0.723C189.029,229.837,190.485,230.01,191.932,230.133z"/>
<path class="st1" d="M93.294,354.668c0.822-0.038,1.815,0.709,2.376-0.52c0.659,0.72,0.02,1.005-0.477,1.165
	C94.453,355.551,93.724,355.477,93.294,354.668z"/>
<path class="st1" d="M215.943,28.975c-0.741,0.752-1.483,1.505-2.224,2.257C214.024,30.05,214.852,29.383,215.943,28.975z"/>
<path class="st1" d="M251.83,411.464c1.231-0.203,2.421-0.213,3.399,0.742C254.096,411.959,252.963,411.712,251.83,411.464z"/>
<path class="st1" d="M300.557,53.985c1.319,0.061,2.505,0.413,3.345,1.526C302.788,55.003,301.673,54.494,300.557,53.985z"/>
<path class="st1" d="M317.401,31.514c-0.782-0.717-1.563-1.435-2.345-2.152C316.231,29.65,316.844,30.551,317.401,31.514z"/>
<path class="st1" d="M256.715,144.313c-1.254-0.245-2.509-0.49-3.763-0.735c1.438,0.192,2.876,0.383,4.314,0.575
	C257.082,144.206,256.898,144.259,256.715,144.313z"/>
<path class="st1" d="M214.351,154.753c-0.079,0.09-0.148,0.246-0.24,0.261c-1.917,0.317-3.828,0.398-5.712-0.209
	c0.256-0.063,0.512-0.125,0.767-0.188C210.895,154.662,212.623,154.708,214.351,154.753z"/>
<path class="st1" d="M187.05,230.849c-1.5,0.257-3,0.514-4.5,0.771c0.925-0.987,2.203-0.637,3.324-0.881
	C186.266,230.775,186.658,230.812,187.05,230.849z"/>
<path class="st1" d="M225.175,53.546c0.744-1.132,2.033-1.015,3.119-1.366C227.555,53.321,226.192,53.038,225.175,53.546z"/>
<path class="st1" d="M283.163,157.544c-0.164-1.322,0.667-2.196,1.4-3.115C284.096,155.468,283.63,156.506,283.163,157.544z"/>
<path class="st1" d="M337.529,62.665c-0.943-0.833-1.122-1.988-1.321-3.134C336.648,60.576,337.088,61.62,337.529,62.665z"/>
<path class="st1" d="M247.793,46.426c-0.171,0.055-0.343,0.11-0.514,0.165c-1.841-0.04-3.682-0.08-5.523-0.12
	c-0.023-0.104-0.04-0.208-0.052-0.314c1.99,0.008,3.98,0.016,5.97,0.024C247.7,46.269,247.739,46.351,247.793,46.426z"/>
<path class="st1" d="M311.85,61.065c0.567,1.043,1.134,2.086,1.701,3.128C312.448,63.442,312.134,62.261,311.85,61.065z"/>
<path class="st1" d="M211.809,408.787c-0.025-0.095-0.042-0.192-0.051-0.29c2.059,0.087,4.117,0.174,6.176,0.26
	c-0.572,0.039-1.145,0.078-1.719,0.116C214.746,408.844,213.277,408.816,211.809,408.787z"/>
<path class="st1" d="M326.301,48.427c-1.031-0.955-1.032-2.286-1.286-3.525C325.444,46.077,325.873,47.252,326.301,48.427z"/>
<path class="st1" d="M181.123,408.05c-0.177,0.043-0.354,0.086-0.53,0.129c-1.724-0.155-3.448-0.309-5.171-0.464
	c0.265-0.059,0.531-0.117,0.796-0.176c1.573,0.097,3.145,0.194,4.718,0.291C180.98,407.918,181.043,407.992,181.123,408.05z"/>
<path class="st1" d="M210.255,70.858c0.483-0.888,0.967-1.776,1.45-2.665C211.222,69.081,210.738,69.97,210.255,70.858z"/>
<path class="st1" d="M262.729,10.536c-1.377-0.259-2.753-0.519-4.13-0.778C260.046,9.648,261.471,9.649,262.729,10.536z"/>
<path class="st1" d="M192.678,92.615c-1.388,0.235-2.776,0.47-4.164,0.704C189.801,92.482,191.223,92.453,192.678,92.615z"/>
<path class="st1" d="M337.218,107.189c0.373-0.989,0.747-1.978,1.12-2.968C338.487,105.407,338.406,106.507,337.218,107.189z"/>
<path class="st1" d="M145.517,241.389c-1.897,0.111-3.793,0.222-5.69,0.333c1.465-0.161,2.93-0.322,4.395-0.482
	C144.654,241.29,145.086,241.339,145.517,241.389z"/>
<path class="st1" d="M323.42,41.261c0.11,0.002,0.22,0.006,0.33,0.011c0.346,1.022,0.692,2.045,1.038,3.067
	C324.331,43.314,323.875,42.288,323.42,41.261z"/>
<path class="st1" d="M280.327,83.215c-1.134-0.24-2.268-0.479-3.401-0.719C278.151,82.301,279.341,82.274,280.327,83.215z"/>
<path class="st1" d="M325.681,143.462c-1.042-0.14-2.084-0.281-3.127-0.421C323.602,142.361,324.645,142.502,325.681,143.462z"/>
<path class="st1" d="M251.45,87.033c0.537-0.007,1.078-0.045,1.61,0.006c0.101,0.01,0.167,0.374,0.25,0.575
	c-0.741,0.125-1.482,0.251-2.223,0.376C251.207,87.672,251.328,87.352,251.45,87.033z"/>
<path class="st1" d="M224.511,89.121c1.361,0.009,2.722,0.019,4.083,0.028c-0.121,0.127-0.245,0.366-0.363,0.364
	c-1.612-0.037-3.224-0.108-4.836-0.17c0,0-0.002-0.18-0.002-0.18C223.765,89.149,224.138,89.135,224.511,89.121z"/>
<path class="st1" d="M202.405,90.712c-0.008,0.108-0.036,0.211-0.084,0.308c-1.369,0.13-2.737,0.26-4.106,0.39
	c0.348-0.194,0.682-0.519,1.047-0.558C200.303,90.743,201.356,90.751,202.405,90.712z"/>
<path class="st1" d="M227.14,83.614c-1.771-0.014-3.541-0.028-5.312-0.042c0.027-0.096,0.052-0.193,0.076-0.29
	C223.663,83.194,225.432,82.922,227.14,83.614z"/>
<path class="st1" d="M204.665,89.253c-0.03,0.095-0.068,0.186-0.116,0.273c-1.275,0.051-2.55,0.103-3.826,0.147
	c-0.036,0.001-0.111-0.089-0.105-0.126c0.016-0.102,0.067-0.198,0.103-0.296C202.036,89.251,203.35,89.252,204.665,89.253z"/>
<path class="st1" d="M242.941,410.279c-0.048-0.088-0.084-0.181-0.107-0.278c1.049-0.006,2.104-0.085,3.143,0.015
	c0.484,0.047,0.934,0.44,1.399,0.677C245.898,410.554,244.419,410.417,242.941,410.279z"/>
<path class="st1" d="M212.129,183.291c0.859,0.663,1.358,1.482,1.129,2.615C212.881,185.034,212.505,184.162,212.129,183.291z"/>
<path class="st1" d="M385.512,263.89c-0.711-0.663-1.423-1.326-2.134-1.989C384.483,262.141,385.085,262.922,385.512,263.89z"/>
<path class="st1" d="M204.215,155.93c0.496,0.648,0.992,1.296,1.489,1.944C204.951,157.423,204.198,156.971,204.215,155.93z"/>
<path class="st1" d="M73.202,348.171c1.623,0.014,3.245,0.027,4.868,0.041c0,0.1-0.006,0.2-0.019,0.299
	c-1.634-0.017-3.267-0.033-4.901-0.05C73.166,348.363,73.183,348.267,73.202,348.171z"/>
<path class="st1" d="M254.153,228.295c1.125-0.109,2.249-0.219,3.374-0.329c-0.34,0.187-0.662,0.477-1.023,0.54
	c-0.779,0.136-1.579,0.155-2.37,0.222c-0.034-0.065-0.063-0.131-0.088-0.199C254.096,228.458,254.132,228.38,254.153,228.295z"/>
<path class="st1" d="M410.658,285.185c-0.607-0.643-1.214-1.286-1.821-1.928C409.444,283.9,410.051,284.543,410.658,285.185z"/>
<path class="st1" d="M277.357,271.747c-0.656,0.6-1.313,1.2-1.969,1.8C276.044,272.947,276.7,272.347,277.357,271.747z"/>
<path class="st1" d="M247.011,9.831c-1.015,0.361-2.031,0.722-3.046,1.084C244.733,9.856,245.891,9.899,247.011,9.831z"/>
<path class="st1" d="M212.85,220.328c-0.603,0.653-1.206,1.305-1.809,1.958C211.644,221.634,212.247,220.981,212.85,220.328z"/>
<path class="st1" d="M280.176,219.026c0.903-0.442,1.806-0.884,2.709-1.327C281.982,218.142,281.079,218.584,280.176,219.026z"/>
<path class="st1" d="M375.112,255.186c-0.654-0.603-1.308-1.206-1.962-1.809C373.804,253.98,374.458,254.583,375.112,255.186z"/>
<path class="st1" d="M256.715,144.313c0.184-0.053,0.367-0.107,0.551-0.16c0.99,0.149,2.121-0.136,2.817,0.916
	C258.961,144.816,257.838,144.565,256.715,144.313z"/>
<path class="st1" d="M334.574,108.305c0.885-0.366,1.77-0.732,2.654-1.098C336.726,108.499,335.579,108.232,334.574,108.305z"/>
<path class="st1" d="M234.905,145.13c-0.96-0.411-1.921-0.823-2.881-1.234C233.174,143.863,234.293,143.904,234.905,145.13z"/>
<path class="st1" d="M263.897,146.439c-1.019-0.339-2.037-0.679-3.056-1.018C261.859,145.76,262.878,146.099,263.897,146.439z"/>
<path class="st1" d="M207.603,37.477c-0.484,0.765-0.969,1.529-1.453,2.294C206.395,38.854,206.627,37.93,207.603,37.477z"/>
<path class="st1" d="M241.416,99.625c0.236,0.151,0.473,0.302,0.709,0.453c-1.49,0.012-2.979,0.024-4.469,0.036
	c0.335-0.177,0.67-0.354,1.005-0.531C239.58,99.597,240.498,99.611,241.416,99.625z"/>
<path class="st1" d="M237.175,47.539c0.771-0.461,1.542-0.922,2.313-1.383c-0.005,0.113-0.012,0.226-0.022,0.338
	C238.702,46.843,237.939,47.191,237.175,47.539z"/>
<path class="st1" d="M303.876,55.547c1.071-0.094,2.027,0.09,2.644,1.094C305.639,56.276,304.758,55.911,303.876,55.547z"/>
<path class="st1" d="M223.014,90.83c-1.502,0.004-3.004,0.008-4.506,0.012c0,0-0.017-0.179-0.017-0.179
	c0.016-0.086,0.025-0.173,0.027-0.261c1.486,0.001,2.971,0.002,4.457,0.003c0.006,0.082,0.023,0.161,0.052,0.239L223.014,90.83z"/>
<path class="st1" d="M208.111,76.952c0.338-0.777,0.677-1.554,1.015-2.331C209.227,75.589,208.808,76.331,208.111,76.952z"/>
<path class="st1" d="M73.202,348.171c-0.019,0.096-0.036,0.193-0.052,0.289c-1.138,0.024-2.324,0.629-3.387-0.274
	C70.909,348.181,72.055,348.176,73.202,348.171z"/>
<path class="st1" d="M330.48,203.156c-0.893-0.148-1.786-0.296-2.68-0.443C329.188,202.029,329.458,202.074,330.48,203.156z"/>
<path class="st1" d="M325.508,165.66c-0.371-0.819-0.303-1.597,0.216-2.334C325.652,164.104,325.58,164.882,325.508,165.66z"/>
<path class="st1" d="M293.448,165.409c-0.131,0.074-0.262,0.149-0.394,0.223c-0.755-0.235-1.509-0.47-2.264-0.705
	C291.766,164.594,292.609,164.992,293.448,165.409z"/>
<path class="st1" d="M292.68,115.848c0.37-0.753,0.74-1.506,1.11-2.259C293.419,114.342,293.049,115.095,292.68,115.848z"/>
<path class="st1" d="M115.5,325.976c1.327-0.481,2.621-0.697,3.753,0.451C118.001,326.276,116.75,326.126,115.5,325.976z"/>
<path class="st1" d="M417.469,311.799c-0.056-0.749-0.112-1.497-0.168-2.246C417.357,310.301,417.413,311.05,417.469,311.799z"/>
<path class="st1" d="M78.051,348.51c0.013-0.099,0.019-0.199,0.019-0.299c0.847-0.206,1.694-0.412,2.541-0.618
	c0.149,0.06,0.299,0.121,0.448,0.181C80.056,348.02,79.054,348.265,78.051,348.51z"/>
<path class="st1" d="M311.393,27.035c-0.878-0.375-1.755-0.749-2.633-1.124C309.895,25.684,310.739,26.137,311.393,27.035z"/>
<path class="st1" d="M209.518,223.726c-0.362,0.128-0.716,0.307-1.089,0.375c-0.783,0.141-1.576,0.224-2.365,0.331
	c0.498-0.235,0.975-0.579,1.498-0.677C208.193,223.636,208.864,223.726,209.518,223.726z"/>
<path class="st1" d="M203.18,49.893c0.594,0.941-0.091,1.603-0.507,2.323C202.842,51.441,203.011,50.667,203.18,49.893z"/>
<path class="st1" d="M209.167,154.617c-0.256,0.063-0.512,0.125-0.767,0.188c-0.635-0.106-1.271-0.213-1.906-0.319
	c0.009-0.14,0.018-0.279,0.027-0.419C207.403,154.25,208.285,154.434,209.167,154.617z"/>
<path class="st1" d="M299.472,86.564c-1.014-0.248-2.028-0.496-3.042-0.744C297.509,85.803,298.647,85.543,299.472,86.564z"/>
<path class="st1" d="M335.947,58.964c-0.438-0.659-0.875-1.317-1.313-1.976C335.499,57.363,335.87,58.066,335.947,58.964z"/>
<path class="st1" d="M240.565,145.391c-1.35,0.85-2.716,0.535-4.085,0.059c0.127-0.08,0.253-0.16,0.38-0.24
	c1.115,0.032,2.23,0.064,3.345,0.096C240.324,145.334,240.444,145.363,240.565,145.391z"/>
<path class="st1" d="M379.561,259.344c-0.511-0.493-1.022-0.986-1.533-1.479C378.539,258.358,379.05,258.851,379.561,259.344z"/>
<path class="st1" d="M266.445,147.683c-0.757-0.37-1.514-0.74-2.272-1.111C265.148,146.5,265.901,146.877,266.445,147.683z"/>
<path class="st1" d="M220.828,222.254c-0.145-0.63-0.291-1.26-0.436-1.89C220.908,220.909,221.234,221.497,220.828,222.254z"/>
<path class="st1" d="M294.964,98.597c-0.343-0.921-0.043-1.663,0.64-2.298C295.39,97.065,295.177,97.831,294.964,98.597z"/>
<path class="st1" d="M422.16,368.753c0.072-0.659,0.143-1.318,0.215-1.977C422.303,367.435,422.232,368.094,422.16,368.753z"/>
<path class="st1" d="M217.379,60.752c0.487-0.515,0.975-1.03,1.462-1.544C218.354,59.722,217.866,60.237,217.379,60.752z"/>
<path class="st1" d="M190.817,104.953c0.855,0.465,0.807,1.137,0.43,1.883C191.104,106.209,190.96,105.581,190.817,104.953z"/>
<path class="st1" d="M228.836,88.673c0.03-0.684,0.061-1.368,0.091-2.052C228.897,87.305,228.866,87.989,228.836,88.673z"/>
<path class="st1" d="M297.476,208.335c0.544-0.46,1.087-0.919,1.631-1.379C298.563,207.416,298.02,207.875,297.476,208.335z"/>
<path class="st1" d="M408.299,417.089c0.074-0.659,0.147-1.318,0.221-1.976C408.446,415.771,408.372,416.43,408.299,417.089z"/>
<path class="st1" d="M202.527,52.903c0.325,0.746,0.441,1.438-0.475,1.868C202.211,54.149,202.369,53.526,202.527,52.903z"/>
<path class="st1" d="M299.716,206.452c0.539-0.465,1.077-0.931,1.616-1.396C300.793,205.521,300.255,205.986,299.716,206.452z"/>
<path class="st1" d="M208.658,167.172c0.087,0.663,0.174,1.325,0.261,1.988C208.832,168.497,208.745,167.835,208.658,167.172z"/>
<path class="st1" d="M390.037,268.346c-0.511-0.493-1.022-0.985-1.532-1.478C389.015,267.361,389.526,267.854,390.037,268.346z"/>
<path class="st1" d="M338.657,223.073c-0.893-0.36-0.886-1.197-1.033-1.952C337.968,221.771,338.313,222.422,338.657,223.073z"/>
<path class="st1" d="M229.732,51.721c0.604-0.255,1.208-0.511,1.812-0.766C231.097,51.58,230.52,51.9,229.732,51.721z"/>
<path class="st1" d="M220.806,26.357c-0.429,0.849-1.226,0.915-2.034,0.957C219.45,26.995,220.128,26.676,220.806,26.357z"/>
<path class="st1" d="M330.559,108.504c0.97,0.068,1.939,0.136,2.908,0.203c-1.11,0.737-2.231,0.5-3.354,0.036
	C330.261,108.663,330.41,108.583,330.559,108.504z"/>
<path class="st1" d="M90.801,332.432c1.121-0.93,2.251-0.572,3.383-0.024C93.056,332.416,91.928,332.424,90.801,332.432z"/>
<path class="st1" d="M291.543,22.162c-0.64-0.358-1.281-0.716-1.922-1.074C290.524,20.977,291.046,21.548,291.543,22.162z"/>
<path class="st1" d="M232.008,143.843c-0.871-0.083-1.741-0.165-2.612-0.248C230.355,142.757,231.204,143.066,232.008,143.843z"/>
<path class="st1" d="M300.208,165.73c-0.28-0.067-0.559-0.134-0.839-0.201c0.725-0.414,1.455-0.786,2.28-0.235
	C301.169,165.439,300.688,165.585,300.208,165.73z"/>
<path class="st1" d="M145.517,241.389c-0.432-0.05-0.863-0.099-1.295-0.149c0.921-0.081,1.842-0.162,2.763-0.243
	C146.496,241.128,146.007,241.258,145.517,241.389z"/>
<path class="st1" d="M115.468,344.476c-0.36-0.649-0.719-1.298-1.079-1.946C115.457,342.786,115.518,343.6,115.468,344.476z"/>
<path class="st1" d="M206.581,158.865c0.582,0.41,1.085,0.859,0.844,1.682C207.144,159.987,206.863,159.426,206.581,158.865z"/>
<path class="st1" d="M81.059,347.774c-0.149-0.06-0.299-0.121-0.448-0.181c0.878-0.278,1.77-0.624,2.34,0.511
	C82.321,347.994,81.69,347.884,81.059,347.774z"/>
<path class="st1" d="M320.673,34.975c-0.328-0.541-0.657-1.082-0.985-1.622C320.614,33.53,320.546,34.311,320.673,34.975z"/>
<path class="st1" d="M421.239,348.28c-0.076-0.542-0.152-1.085-0.229-1.627C421.087,347.195,421.163,347.738,421.239,348.28z"/>
<path class="st1" d="M420.89,346.029c-0.164-0.547-0.328-1.093-0.492-1.64C420.985,344.808,421.188,345.343,420.89,346.029z"/>
<path class="st1" d="M294.593,85.78c-1.024-0.022-2.094,0.417-3.047-0.309c0.116-0.054,0.233-0.107,0.349-0.161
	c0.639,0.014,1.278,0.029,1.917,0.043c0.238,0.042,0.476,0.083,0.714,0.125C294.537,85.582,294.559,85.682,294.593,85.78z"/>
<path class="st1" d="M84.891,316.678c0.404,0.669-0.026,1.083-0.457,1.496C84.586,317.676,84.738,317.177,84.891,316.678z"/>
<path class="st1" d="M330.559,108.504c-0.149,0.08-0.297,0.159-0.446,0.239c-0.505-0.025-1.01-0.051-1.515-0.076
	C329.152,107.418,329.892,108.395,330.559,108.504z"/>
<path class="st1" d="M325.732,208.386c-0.089,0.543-0.178,1.085-0.267,1.628C325.554,209.471,325.643,208.929,325.732,208.386z"/>
<path class="st1" d="M218.616,269.218c-0.071-0.584-0.141-1.167-0.212-1.751C218.475,268.051,218.546,268.634,218.616,269.218z"/>
<path class="st1" d="M208.049,164.896c0.695,0.389,0.778,0.96,0.488,1.643C208.375,165.991,208.212,165.444,208.049,164.896z"/>
<path class="st1" d="M176.217,407.539c-0.265,0.059-0.53,0.117-0.796,0.176c-0.714-0.02-1.428-0.04-2.142-0.06
	c-0.033-0.096-0.064-0.192-0.094-0.29C174.196,407.423,175.207,407.481,176.217,407.539z"/>
<path class="st1" d="M402.661,487.172c-0.768-0.35-0.372-0.976-0.357-1.512C402.858,486.061,403.306,486.487,402.661,487.172z"/>
<path class="st1" d="M402.059,483.12c-0.174-0.523-0.348-1.047-0.522-1.57C401.954,481.992,402.355,482.44,402.059,483.12z"/>
<path class="st1" d="M221.052,231.614c0.003-0.496,0.006-0.993,0.009-1.489C221.057,230.621,221.054,231.118,221.052,231.614z"/>
<path class="st1" d="M201.005,61.514c0.408,0.608,0.307,1.131-0.261,1.577C200.831,62.566,200.918,62.04,201.005,61.514z"/>
<path class="st1" d="M215.919,62.673c0.338-0.409,0.676-0.819,1.014-1.228C216.595,61.854,216.257,62.264,215.919,62.673z"/>
<path class="st1" d="M249.967,9.442c-0.571,0.417-1.138,0.852-1.876,0.338C248.716,9.667,249.342,9.554,249.967,9.442z"/>
<path class="st1" d="M283.995,160.862c-0.666-0.195-0.988-0.602-0.816-1.317C283.451,159.984,283.723,160.423,283.995,160.862z"/>
<path class="st1" d="M225.664,91.057c-0.884-0.076-1.767-0.151-2.651-0.227c0,0,0.013-0.186,0.013-0.186
	c0.251-0.025,0.503-0.05,0.755-0.075c0.609,0.061,1.218,0.123,1.827,0.184C225.624,90.856,225.642,90.957,225.664,91.057z"/>
<path class="st1" d="M289.966,259.275c-0.335,0.415-0.671,0.829-1.006,1.244C289.295,260.104,289.63,259.69,289.966,259.275z"/>
<path class="st1" d="M226.664,20.597c-0.323,0.419-0.646,0.838-0.968,1.257C225.707,21.195,226.003,20.756,226.664,20.597z"/>
<path class="st1" d="M225.189,221.194c0.387,0.361,0.774,0.721,1.161,1.082C225.963,221.915,225.576,221.555,225.189,221.194z"/>
<path class="st1" d="M332.279,53.329c-0.324-0.42-0.648-0.84-0.971-1.26C331.631,52.489,331.955,52.909,332.279,53.329z"/>
<path class="st1" d="M314.687,156.244c-0.335,0.411-0.67,0.822-1.005,1.232C314.017,157.065,314.352,156.655,314.687,156.244z"/>
<path class="st1" d="M209.538,84.43c-0.89,0.095-1.779,0.19-2.669,0.285c0.366-0.132,0.732-0.264,1.098-0.396
	C208.491,84.355,209.014,84.392,209.538,84.43z"/>
<path class="st1" d="M209.538,84.43c-0.523-0.037-1.047-0.074-1.571-0.111c0.909-0.096,1.817-0.192,2.726-0.288
	c-0.024,0.094-0.05,0.189-0.076,0.282C210.257,84.351,209.897,84.391,209.538,84.43z"/>
<path class="st1" d="M303.204,203.2c0.336-0.416,0.672-0.832,1.009-1.248C303.876,202.368,303.54,202.784,303.204,203.2z"/>
<path class="st1" d="M309.559,196.446c0.336-0.413,0.671-0.827,1.007-1.24C310.23,195.619,309.895,196.032,309.559,196.446z"/>
<path class="st1" d="M273.621,275.13c-0.42,0.33-0.839,0.661-1.259,0.991C272.781,275.791,273.201,275.461,273.621,275.13z"/>
<path class="st1" d="M407.614,281.87c-0.347-0.408-0.693-0.815-1.04-1.223C406.921,281.054,407.267,281.462,407.614,281.87z"/>
<path class="st1" d="M276.572,155.24c-0.886,0.518-1.765,0.503-2.638-0.031C274.813,155.219,275.692,155.23,276.572,155.24z"/>
<path class="st1" d="M252.524,81.672c-0.354,0.397-0.708,0.793-1.062,1.19C251.816,82.466,252.17,82.069,252.524,81.672z"/>
<path class="st1" d="M323.683,106.556c0.405,0.34,0.81,0.68,1.215,1.02C324.493,107.236,324.088,106.896,323.683,106.556z"/>
<path class="st1" d="M206.521,154.067c-0.009,0.14-0.018,0.279-0.027,0.419c-0.531-0.074-1.062-0.149-1.593-0.223
	C205.361,153.537,205.963,153.988,206.521,154.067z"/>
<path class="st1" d="M221.905,83.282c-0.024,0.097-0.05,0.194-0.076,0.29c-0.34,0.024-0.68,0.048-1.019,0.072
	c-0.532-0.064-1.064-0.128-1.597-0.191C220.11,83.396,221.008,83.339,221.905,83.282z"/>
<path class="st1" d="M338.265,64.542c-0.521-0.393-0.845-0.866-0.64-1.557C337.839,63.504,338.052,64.023,338.265,64.542z"/>
<path class="st1" d="M210.617,84.312c0.027-0.094,0.052-0.188,0.076-0.282c0.458-0.025,0.915-0.051,1.373-0.076
	c0.29,0.041,0.58,0.082,0.87,0.124C212.163,84.156,211.39,84.234,210.617,84.312z"/>
<path class="st1" d="M340.285,76.853c-0.111-0.376-0.223-0.752-0.334-1.128C340.697,75.913,340.87,76.271,340.285,76.853z"/>
<path class="st1" d="M209.094,172.041c0.02,0.374,0.041,0.749,0.061,1.123C209.134,172.79,209.114,172.416,209.094,172.041z"/>
<path class="st1" d="M236.859,145.21c-0.127,0.08-0.253,0.16-0.38,0.24c-0.378-0.022-0.757-0.043-1.135-0.065
	C235.725,144.249,236.328,145.04,236.859,145.21z"/>
<path class="st1" d="M115.892,346.651c-0.067-0.425-0.135-0.85-0.202-1.275C115.758,345.801,115.825,346.226,115.892,346.651z"/>
<path class="st1" d="M403.127,489.415c-0.063-0.407-0.127-0.814-0.19-1.22C403,488.601,403.063,489.008,403.127,489.415z"/>
<path class="st1" d="M252.654,9.279c-0.791,0.01-1.582,0.02-2.372,0.03C251.072,9.299,251.863,9.289,252.654,9.279z"/>
<path class="st1" d="M239.466,46.495c0.01-0.113,0.017-0.225,0.022-0.338c0.113-0.049,0.228-0.096,0.343-0.14
	c0.265-0.013,0.53-0.026,0.795-0.039c0.359,0.06,0.719,0.12,1.078,0.18c0.012,0.106,0.029,0.21,0.052,0.314
	C240.993,46.479,240.229,46.487,239.466,46.495z"/>
<path class="st1" d="M403.39,491.295c-0.043-0.407-0.087-0.814-0.13-1.221C403.303,490.481,403.346,490.888,403.39,491.295z"/>
<path class="st1" d="M215.52,194.513c0.297,0.358,0.899,0.591,0.503,1.232C215.855,195.335,215.687,194.924,215.52,194.513z"/>
<path class="st1" d="M85.168,314.804c-0.052,0.414-0.103,0.827-0.155,1.241C85.064,315.632,85.116,315.218,85.168,314.804z"/>
<path class="st1" d="M142.868,375.856c0.306,0.351,0.854,0.607,0.479,1.225C143.187,376.672,143.028,376.264,142.868,375.856z"/>
<path class="st1" d="M216.889,200.792c0.444,0.364,0.519,0.769,0.132,1.224C216.977,201.608,216.933,201.2,216.889,200.792z"/>
<path class="st1" d="M234.626,110.598c0.153-0.42,0.305-0.84,0.458-1.26C235.466,109.953,235.037,110.272,234.626,110.598z"/>
<path class="st1" d="M235.738,104.597c0.151-0.378,0.301-0.755,0.452-1.133C236.039,103.842,235.888,104.219,235.738,104.597z"/>
<path class="st1" d="M324.877,167.546c0.168-0.406,0.336-0.812,0.504-1.219C325.213,166.734,325.045,167.14,324.877,167.546z"/>
<path class="st1" d="M409.438,407.345c0.022-0.372,0.044-0.744,0.066-1.115C409.482,406.602,409.46,406.973,409.438,407.345z"/>
<path class="st1" d="M326.004,206.513c-0.05,0.419-0.1,0.837-0.151,1.256C325.904,207.35,325.954,206.932,326.004,206.513z"/>
<path class="st1" d="M218.895,271.336c-0.039-0.374-0.077-0.748-0.116-1.122C218.817,270.588,218.856,270.962,218.895,271.336z"/>
<path class="st1" d="M404.707,278.785c-0.395-0.236-0.789-0.473-1.184-0.709C403.918,278.313,404.312,278.549,404.707,278.785z"/>
<path class="st1" d="M330.556,51.331c-0.369-0.255-0.739-0.51-1.108-0.765C329.817,50.821,330.187,51.076,330.556,51.331z"/>
<path class="st1" d="M312.863,86.945c0.018,0.515,0.069,1.047-0.617,1.199C312.067,87.547,312.307,87.165,312.863,86.945z"/>
<path class="st1" d="M415.448,289.36c-0.204-0.415-0.409-0.831-0.613-1.246C415.039,288.529,415.243,288.944,415.448,289.36z"/>
<path class="st1" d="M294.593,85.78c-0.033-0.098-0.056-0.198-0.067-0.301c0.64,0.102,1.28,0.205,1.919,0.307
	C295.827,85.784,295.21,85.782,294.593,85.78z"/>
<path class="st1" d="M322.587,217.709c-0.223,0.397-0.447,0.794-0.67,1.191C322.14,218.503,322.363,218.106,322.587,217.709z"/>
<path class="st1" d="M371.003,251.426c-0.393-0.237-0.787-0.475-1.18-0.712C370.468,250.534,370.812,250.853,371.003,251.426z"/>
<path class="st1" d="M321.458,219.577c-0.074,0.49-0.007,1.071-0.736,1.137C320.967,220.335,321.212,219.956,321.458,219.577z"/>
<path class="st1" d="M293.812,85.354c-0.639-0.014-1.278-0.029-1.917-0.043C292.534,85.325,293.173,85.34,293.812,85.354z"/>
<path class="st1" d="M320.715,220.72c-0.226,0.391-0.451,0.782-0.677,1.174C320.264,221.503,320.489,221.111,320.715,220.72z"/>
<path class="st1" d="M90.377,345.958c-0.243-0.389-0.486-0.778-0.729-1.167C90.435,344.84,90.415,345.393,90.377,345.958z"/>
<path class="st1" d="M218.518,90.403c-0.002,0.088-0.011,0.174-0.027,0.261c-0.628-0.02-1.256-0.039-1.884-0.059
	C217.245,90.538,217.882,90.47,218.518,90.403z"/>
<path class="st1" d="M223.676,54.309c0.2-0.602,0.551-0.924,1.219-0.658C224.488,53.871,224.082,54.09,223.676,54.309z"/>
<path class="st1" d="M334.53,56.684c-0.221-0.267-0.442-0.534-0.662-0.801C334.088,56.15,334.309,56.417,334.53,56.684z"/>
<path class="st1" d="M207.579,161.928c0.018,0.249,0.037,0.497,0.055,0.746C207.616,162.425,207.597,162.176,207.579,161.928z"/>
<path class="st1" d="M408.027,419.342c0.033-0.286,0.066-0.572,0.099-0.858C408.093,418.77,408.06,419.056,408.027,419.342z"/>
<path class="st1" d="M202.04,55.137c0.371,0.365,0.339,0.64-0.18,0.807C201.92,55.675,201.98,55.406,202.04,55.137z"/>
<path class="st1" d="M291.601,118.141c0.153-0.312,0.307-0.625,0.46-0.937C291.908,117.516,291.754,117.829,291.601,118.141z"/>
<path class="st1" d="M187.05,230.849c-0.392-0.037-0.784-0.073-1.176-0.11c0.53-0.268,1.061-0.576,1.567,0.043
	C187.311,230.804,187.181,230.826,187.05,230.849z"/>
<path class="st1" d="M309.957,161.231c-0.292,0.208-0.585,0.417-0.878,0.626C309.372,161.648,309.664,161.44,309.957,161.231z"/>
<path class="st1" d="M220.388,233.5c0.156-0.29,0.311-0.579,0.467-0.869C220.699,232.921,220.544,233.211,220.388,233.5z"/>
<path class="st1" d="M285.181,18.414c-0.274-0.227-0.547-0.454-0.821-0.681C284.633,17.96,284.907,18.187,285.181,18.414z"/>
<path class="st1" d="M218.436,241.361c0.023-0.25,0.046-0.5,0.069-0.75C218.482,240.861,218.459,241.111,218.436,241.361z"/>
<path class="st1" d="M223.753,219.632c0.229,0.265,0.458,0.53,0.688,0.795C224.211,220.162,223.982,219.897,223.753,219.632z"/>
<path class="st1" d="M278.797,219.596c0.358-0.137,0.717-0.275,1.076-0.412C279.514,219.321,279.155,219.459,278.797,219.596z"/>
<path class="st1" d="M257.512,9.743c-0.516-0.104-1.032-0.207-1.548-0.311c0.499-0.001,0.997-0.002,1.496-0.004
	C257.47,9.534,257.488,9.639,257.512,9.743z"/>
<path class="st1" d="M213.989,64.85c0.244-0.257,0.488-0.513,0.732-0.77C214.477,64.337,214.233,64.594,213.989,64.85z"/>
<path class="st1" d="M211.839,67.945c0.189-0.302,0.377-0.605,0.566-0.907C212.216,67.34,212.028,67.642,211.839,67.945z"/>
<path class="st1" d="M403.86,493.534c-0.111-0.264-0.223-0.529-0.334-0.793C404.068,492.823,404.242,493.061,403.86,493.534z"/>
<path class="st1" d="M200.778,68.913c0.459,0.224,0.461,0.507,0.11,0.837C200.851,69.471,200.815,69.192,200.778,68.913z"/>
<path class="st1" d="M403.443,497.682c0.128-0.255,0.256-0.509,0.384-0.764C404.336,497.493,403.782,497.533,403.443,497.682z"/>
<path class="st1" d="M191.853,111.34c0.033,0.25,0.066,0.499,0.099,0.749C191.919,111.839,191.886,111.589,191.853,111.34z"/>
<path class="st1" d="M111.555,272.369c-0.18,0.279-0.36,0.559-0.539,0.838C111.195,272.928,111.375,272.649,111.555,272.369z"/>
<path class="st1" d="M295.949,209.401c0.304-0.189,0.609-0.378,0.913-0.568C296.558,209.022,296.253,209.211,295.949,209.401z"/>
<path class="st1" d="M225.552,22.095c-0.178,0.307-0.356,0.613-0.534,0.92C225.196,22.709,225.374,22.402,225.552,22.095z"/>
<path class="st1" d="M207.209,77.884c0.243-0.231,0.487-0.463,0.73-0.694C207.696,77.421,207.452,77.653,207.209,77.884z"/>
<path class="st1" d="M144.405,382.606c0.464,0.1,0.829,0.243,0.332,0.762C144.626,383.114,144.516,382.86,144.405,382.606z"/>
<path class="st1" d="M326.193,144.447c-0.155-0.314-0.311-0.627-0.466-0.941C326.279,143.623,326.428,143.94,326.193,144.447z"/>
<path class="st1" d="M216.363,198.959c0.521,0.09,0.708,0.328,0.353,0.803C216.598,199.495,216.481,199.227,216.363,198.959z"/>
<path class="st1" d="M313.977,85.431c-0.03,0.471-0.171,0.835-0.749,0.779C313.478,85.95,313.727,85.69,313.977,85.431z"/>
<path class="st1" d="M314.839,29.207c-0.294-0.203-0.587-0.406-0.881-0.609C314.252,28.801,314.545,29.004,314.839,29.207z"/>
<path class="st1" d="M141.704,369.131c0.011,0.25,0.022,0.5,0.033,0.75C141.726,369.631,141.715,369.381,141.704,369.131z"/>
<path class="st1" d="M88.384,335.835c0.052-0.267,0.103-0.534,0.155-0.801C88.93,335.387,88.885,335.655,88.384,335.835z"/>
<path class="st1" d="M88.768,343.086c-0.119-0.329-0.237-0.657-0.356-0.986C88.531,342.429,88.649,342.757,88.768,343.086z"/>
<path class="st1" d="M235.304,107.59c0.017-0.248,0.034-0.495,0.051-0.743C235.338,107.095,235.321,107.342,235.304,107.59z"/>
<path class="st1" d="M422.549,365.382c0.002-0.247,0.004-0.494,0.006-0.74C422.553,364.888,422.551,365.135,422.549,365.382z"/>
<path class="st1" d="M333.478,205.764c-0.102-0.269-0.203-0.538-0.305-0.807C333.274,205.226,333.376,205.495,333.478,205.764z"/>
<path class="st1" d="M318.559,32.222c-0.286-0.211-0.573-0.422-0.859-0.632C317.987,31.8,318.273,32.011,318.559,32.222z"/>
<path class="st1" d="M343.228,227.502c-0.262-0.245-0.524-0.489-0.786-0.734C342.704,227.013,342.966,227.258,343.228,227.502z"/>
<path class="st1" d="M120.389,248.507c-0.267,0.231-0.533,0.463-0.8,0.694C119.856,248.969,120.123,248.738,120.389,248.507z"/>
<path class="st1" d="M257.512,9.743c-0.024-0.104-0.041-0.209-0.052-0.315c0.38,0.082,0.761,0.163,1.141,0.245
	C258.237,9.696,257.875,9.72,257.512,9.743z"/>
<path class="st1" d="M227.512,91.103c0.015,0.102,0.032,0.203,0.051,0.304c-0.406-0.08-0.813-0.16-1.219-0.24
	c0.147-0.06,0.295-0.119,0.442-0.179C227.028,91.026,227.27,91.064,227.512,91.103z"/>
<path class="st1" d="M155.207,407.14c-0.129,0.074-0.257,0.147-0.386,0.221c-0.259-0.12-0.519-0.241-0.778-0.361
	C154.431,407.047,154.819,407.094,155.207,407.14z"/>
<path class="st1" d="M226.786,90.987c-0.147,0.06-0.295,0.119-0.442,0.179c-0.227-0.036-0.453-0.072-0.68-0.109
	c-0.022-0.101-0.04-0.202-0.056-0.303C226.001,90.832,226.394,90.91,226.786,90.987z"/>
<path class="st1" d="M246.621,228.465c-0.27,0.059-0.539,0.118-0.809,0.177c-0.125,0.001-0.242-0.03-0.35-0.091
	C245.813,228.053,246.21,228.163,246.621,228.465z"/>
<path class="st1" d="M213.293,90.601c-0.395,0.001-0.789,0.001-1.184,0.002C212.505,90.602,212.899,90.602,213.293,90.601z"/>
<path class="st1" d="M231.562,50.929c0.243-0.121,0.485-0.243,0.728-0.364C232.047,50.686,231.805,50.808,231.562,50.929z"/>
<path class="st1" d="M283.641,217.322c0.227-0.138,0.453-0.276,0.68-0.414C284.095,217.046,283.868,217.184,283.641,217.322z"/>
<path class="st1" d="M201.226,88.103c-0.139,0.206-0.278,0.413-0.417,0.619C200.948,88.516,201.087,88.309,201.226,88.103z"/>
<path class="st1" d="M223.781,90.57c-0.252,0.025-0.503,0.05-0.755,0.074c-0.028-0.077-0.045-0.157-0.051-0.239
	C223.244,90.46,223.513,90.515,223.781,90.57z"/>
<path class="st1" d="M308.382,57.779c0.26,0.108,0.52,0.216,0.781,0.325C308.902,57.995,308.642,57.887,308.382,57.779z"/>
<path class="st1" d="M91.534,347.779c-0.124-0.125-0.247-0.25-0.371-0.375C91.287,347.529,91.411,347.654,91.534,347.779z"/>
<path class="st1" d="M240.565,145.391c-0.12-0.028-0.24-0.056-0.361-0.085c0.148-0.072,0.296-0.145,0.444-0.217
	C240.632,145.193,240.604,145.294,240.565,145.391z"/>
<path class="st1" d="M217.033,61.152c0.116-0.134,0.232-0.268,0.348-0.401C217.265,60.885,217.149,61.019,217.033,61.152z"/>
<path class="st1" d="M213.653,65.266c0.111-0.138,0.223-0.277,0.334-0.415C213.876,64.99,213.765,65.128,213.653,65.266z"/>
<path class="st1" d="M379.949,259.701c-0.13-0.12-0.259-0.239-0.389-0.359C379.69,259.461,379.819,259.581,379.949,259.701z"/>
<path class="st1" d="M339.18,223.67c-0.121-0.124-0.242-0.248-0.363-0.372C338.938,223.422,339.059,223.546,339.18,223.67z"/>
<path class="st1" d="M390.434,268.698c-0.133-0.118-0.265-0.236-0.398-0.354C390.169,268.462,390.301,268.58,390.434,268.698z"/>
<path class="st1" d="M283.214,217.522c0.136-0.064,0.273-0.127,0.409-0.191C283.486,217.395,283.35,217.458,283.214,217.522z"/>
<path class="st1" d="M322.975,216.972c-0.098,0.144-0.197,0.287-0.295,0.431C322.778,217.259,322.877,217.115,322.975,216.972z"/>
<path class="st1" d="M201.658,87.784c-0.123,0.1-0.246,0.2-0.368,0.3C201.413,87.984,201.535,87.884,201.658,87.784z"/>
<path class="st1" d="M242.435,100.146c0.157,0.088,0.314,0.176,0.471,0.264C242.749,100.322,242.592,100.234,242.435,100.146z"/>
<path class="st1" d="M236.571,101.241c0.099-0.125,0.197-0.249,0.296-0.374C236.769,100.992,236.67,101.116,236.571,101.241z"/>
<path class="st1" d="M244.145,101.506c0.07,0.156,0.139,0.312,0.209,0.469C244.284,101.818,244.215,101.662,244.145,101.506z"/>
<path class="st1" d="M413.335,287.001c-0.151-0.099-0.301-0.198-0.452-0.296C413.034,286.803,413.185,286.902,413.335,287.001z"/>
<path class="st1" d="M414.111,287.354c-0.164-0.088-0.328-0.176-0.492-0.264C413.783,287.178,413.947,287.266,414.111,287.354z"/>
<path class="st1" d="M332.448,204.159c-0.159-0.083-0.318-0.166-0.476-0.248C332.13,203.993,332.289,204.076,332.448,204.159z"/>
<path class="st1" d="M143.931,381.167l0.132,0.106c0,0-0.057,0.159-0.057,0.159c-0.055-0.057-0.112-0.111-0.16-0.174
	C143.842,381.252,143.901,381.198,143.931,381.167z"/>
<path class="st1" d="M417.327,292.752c-0.091-0.152-0.183-0.303-0.274-0.455C417.144,292.448,417.236,292.6,417.327,292.752z"/>
<path class="st1" d="M89.979,333.116c0.149-0.107,0.298-0.214,0.447-0.32C90.277,332.903,90.128,333.01,89.979,333.116z"/>
<path class="st1" d="M89.282,344.041c-0.074-0.137-0.148-0.274-0.222-0.41C89.134,343.768,89.208,343.905,89.282,344.041z"/>
<path class="st1" d="M90.773,346.676c-0.071-0.14-0.142-0.281-0.213-0.421C90.631,346.395,90.702,346.535,90.773,346.676z"/>
<path class="st1" d="M333.442,108.6c0.156-0.075,0.311-0.149,0.467-0.224C333.754,108.451,333.598,108.525,333.442,108.6z"/>
<path class="st1" d="M286.318,163.029c-0.138-0.112-0.276-0.224-0.415-0.335C286.041,162.805,286.18,162.917,286.318,163.029z"/>
<path class="st1" d="M285.903,162.691c-0.127-0.121-0.254-0.243-0.382-0.364C285.648,162.449,285.775,162.57,285.903,162.691z"/>
<path class="st1" d="M91.157,347.402c-0.109-0.129-0.218-0.258-0.327-0.387C90.94,347.144,91.049,347.273,91.157,347.402z"/>
<path class="st1" d="M290.789,119.209c0.115-0.137,0.23-0.273,0.344-0.41C291.019,118.936,290.904,119.072,290.789,119.209z"/>
<path class="st1" d="M284.46,153.262c-0.092-0.135-0.185-0.27-0.278-0.405C284.275,152.992,284.368,153.127,284.46,153.262z"/>
<path class="st1" d="M91.989,353.712c0.132,0.083,0.265,0.166,0.397,0.249C92.254,353.878,92.122,353.795,91.989,353.712z"/>
<path class="st1" d="M119.278,259.368c-0.117,0.132-0.234,0.263-0.352,0.395C119.044,259.632,119.161,259.5,119.278,259.368z"/>
<path class="st1" d="M239.529,409.839c-1.251,0.023-2.501,0.047-3.752,0.07c-0.041-0.078-0.067-0.161-0.077-0.249
	C236.977,409.719,238.253,409.779,239.529,409.839z"/>
<path class="st1" d="M205.024,408.262c-0.21,0.037-0.42,0.074-0.63,0.111c-0.078-0.062-0.134-0.14-0.168-0.233
	C204.491,408.181,204.758,408.222,205.024,408.262z"/>
<path class="st1" d="M222.268,409.035c-0.163-0.03-0.327-0.059-0.49-0.089C221.942,408.976,222.105,409.006,222.268,409.035z"/>
<path class="st1" d="M181.123,408.05c-0.08-0.058-0.143-0.132-0.188-0.22c0.169,0.044,0.338,0.087,0.508,0.131
	C181.344,408.017,181.237,408.047,181.123,408.05z"/>
<path class="st1" d="M283.336,88.827c-2.599,0.002-5.198,0.006-7.797,0.004c-2.167-0.001-4.334-0.009-6.5-0.014
	c0.022-0.097,0.038-0.195,0.047-0.294c1.488-0.067,2.975-0.133,4.463-0.2c0.135,0.002,0.27,0.004,0.405,0.006
	c3.101,0.069,6.202,0.138,9.303,0.208C283.279,88.635,283.305,88.732,283.336,88.827z"/>
<path class="st1" d="M212.574,94.044c-4.276,0.015-8.552,0.031-12.829,0.046c0.252-0.136,0.504-0.273,0.757-0.409
	c0.647-0.019,1.294-0.037,1.942-0.056c0.22-0.01,0.44-0.021,0.66-0.031c2.902,0.009,5.804,0.018,8.706,0.027
	c0.232,0.04,0.464,0.081,0.696,0.121C212.512,93.846,212.535,93.947,212.574,94.044z"/>
<path class="st1" d="M264.165,123.354c3.879-0.068,7.758-0.136,11.636-0.204c0.136,0.02,0.273,0.041,0.409,0.061
	c0,0-0.02,0.142-0.02,0.142c-0.967,0.12-1.932,0.332-2.9,0.343c-3.021,0.034-6.044-0.008-9.066-0.021
	C264.195,123.569,264.175,123.462,264.165,123.354z"/>
<path class="st1" d="M271.74,44.484c-3.779-0.001-7.557-0.002-11.336-0.003c0.163-0.077,0.326-0.222,0.489-0.222
	c3.452-0.011,6.903-0.009,10.355,0.006C271.413,44.265,271.576,44.407,271.74,44.484z"/>
<path class="st1" d="M211.809,93.62c-2.902-0.009-5.804-0.018-8.706-0.027c0.407-0.094,0.814-0.265,1.222-0.27
	c2.028-0.025,4.057-0.024,6.085,0.011C210.879,93.342,211.343,93.52,211.809,93.62z"/>
<path class="st1" d="M203.134,125.937c2.131,0.028,4.262,0.055,6.393,0.083c-0.002,0.1-0.007,0.199-0.014,0.299
	C207.387,126.192,205.26,126.065,203.134,125.937z"/>
<path class="st1" d="M209.513,126.319c0.007-0.1,0.012-0.199,0.014-0.299c1.501-0.139,3.002-0.279,4.503-0.418
	C212.525,125.841,211.019,126.08,209.513,126.319z"/>
<path class="st1" d="M221.491,94.488c-1.607-0.148-3.213-0.296-4.82-0.445c-0.015-0.097-0.032-0.194-0.053-0.291
	c1.797,0.187,3.594,0.374,5.391,0.562C221.836,94.373,221.664,94.431,221.491,94.488z"/>
<path class="st1" d="M256.276,86.948c-0.363-0.162-0.727-0.323-1.09-0.485c1.359-0.103,2.718-0.205,4.077-0.308
	c0.014,0.149,0.027,0.299,0.041,0.448C258.294,86.718,257.285,86.833,256.276,86.948z"/>
<path class="st1" d="M221.491,94.488c0.172-0.058,0.345-0.115,0.517-0.173c0.802,0.067,1.617,0.069,2.4,0.228
	c0.437,0.089,0.822,0.44,1.23,0.673C224.256,94.974,222.874,94.731,221.491,94.488z"/>
<path class="st1" d="M249.274,103.108c0.933,0.493,0.664,1.388,0.727,2.173c-0.132,0.018-0.265,0.037-0.397,0.055
	C249.157,104.442,249.032,103.598,249.274,103.108z"/>
<path class="st1" d="M217.319,124.39c0.916-0.456,1.833-0.911,2.749-1.367C219.403,123.983,218.375,124.214,217.319,124.39z"/>
<path class="st1" d="M259.324,122.58c1.28,0.224,2.559,0.447,3.838,0.671c-0.279,0.066-0.558,0.131-0.836,0.197
	C261.325,123.158,260.324,122.869,259.324,122.58z"/>
<path class="st1" d="M251.881,112.805c0.922,0.539,1.171,1.428,1.251,2.406C252.715,114.409,252.298,113.607,251.881,112.805z"/>
<path class="st1" d="M216.618,93.753c0.021,0.096,0.039,0.193,0.053,0.291c-1.366,0-2.732,0-4.097,0
	c-0.039-0.097-0.061-0.198-0.068-0.303C213.876,93.745,215.247,93.749,216.618,93.753z"/>
<path class="st1" d="M289.255,91.51c-0.499-0.489-0.998-0.979-1.497-1.468C288.61,90.171,289.033,90.738,289.255,91.51z"/>
<path class="st1" d="M249.604,105.336c0.132-0.018,0.264-0.036,0.397-0.055c-0.007,0.645-0.013,1.291-0.02,1.936
	C249.855,106.59,249.73,105.963,249.604,105.336z"/>
<path class="st1" d="M266.454,88.86c-0.994,0.148-1.988,0.295-2.982,0.443c-0.028-0.063-0.055-0.126-0.079-0.19
	c0.048-0.065,0.078-0.138,0.09-0.219C264.474,88.883,265.464,88.872,266.454,88.86z"/>
<path class="st1" d="M263.472,89.303c-1.014,0.1-2.028,0.199-3.043,0.299c0.754-0.181,1.508-0.362,2.262-0.543
	c0.234,0.018,0.468,0.036,0.702,0.054C263.418,89.177,263.444,89.24,263.472,89.303z"/>
<path class="st1" d="M283.336,88.827c-0.031-0.095-0.057-0.192-0.079-0.29c0.896,0.018,1.855-0.393,2.64,0.387
	C285.043,88.892,284.189,88.86,283.336,88.827z"/>
<path class="st1" d="M269.086,88.524c-0.009,0.099-0.025,0.197-0.047,0.294c-0.866,0.01-1.732,0.019-2.598,0.029
	C267.322,88.739,268.204,88.632,269.086,88.524z"/>
<path class="st1" d="M241.416,99.625c-0.918-0.014-1.836-0.028-2.755-0.042C239.587,99.133,240.505,99.165,241.416,99.625z"/>
<path class="st1" d="M204.771,106.66c-0.612,0.591-1.101,0.205-1.587-0.2C203.713,106.527,204.242,106.594,204.771,106.66z"/>
<path class="st1" d="M204.884,105.177c0.348,0.484,0.512,0.961-0.059,1.406C204.845,106.114,204.864,105.646,204.884,105.177z"/>
<path class="st1" d="M195.743,104.147c-0.491,0.04-0.983,0.081-1.474,0.121C194.693,103.406,195.186,103.39,195.743,104.147z"/>
<path class="st1" d="M262.326,123.447c0.279-0.066,0.557-0.131,0.836-0.197c0.335,0.034,0.669,0.069,1.003,0.103
	c0.01,0.109,0.03,0.216,0.06,0.321C263.592,123.599,262.959,123.523,262.326,123.447z"/>
<path class="st1" d="M228.669,116.639c0.215-0.408,0.429-0.816,0.644-1.225C229.098,115.822,228.884,116.231,228.669,116.639z"/>
<path class="st1" d="M215.819,125.131c0.413-0.211,0.827-0.422,1.241-0.633C216.646,124.709,216.233,124.92,215.819,125.131z"/>
<path class="st1" d="M202.444,93.625c-0.647,0.019-1.294,0.037-1.942,0.056C201.149,93.662,201.796,93.643,202.444,93.625z"/>
<path class="st1" d="M203.131,102.739c0.573-0.149,1.123-0.224,1.454,0.435C204.1,103.029,203.615,102.884,203.131,102.739z"/>
<path class="st1" d="M226.321,118.786c0.293-0.208,0.586-0.416,0.879-0.624C226.907,118.37,226.614,118.578,226.321,118.786z"/>
<path class="st1" d="M254.156,117.273c0.2,0.292,0.4,0.583,0.601,0.875C254.556,117.857,254.356,117.565,254.156,117.273z"/>
<path class="st1" d="M255.617,119.18c0.215,0.283,0.429,0.566,0.644,0.849C256.046,119.746,255.831,119.463,255.617,119.18z"/>
<path class="st1" d="M290.794,94.104c-0.117-0.257-0.234-0.514-0.351-0.77C290.56,93.59,290.677,93.847,290.794,94.104z"/>
<path class="st1" d="M257.387,121.151c0.275,0.226,0.55,0.452,0.825,0.678C257.937,121.603,257.662,121.377,257.387,121.151z"/>
<path class="st1" d="M249.87,95.431c0.159,0.53-0.029,0.845-0.579,0.935C249.069,95.798,249.361,95.547,249.87,95.431z"/>
<path class="st1" d="M263.393,89.113c-0.234-0.018-0.468-0.036-0.702-0.054c0.264-0.055,0.528-0.11,0.792-0.165
	C263.471,88.974,263.441,89.047,263.393,89.113z"/>
<path class="st1" d="M202.804,106.346c-0.25-0.086-0.5-0.173-0.749-0.259C202.305,106.173,202.555,106.259,202.804,106.346z"/>
<path class="st1" d="M201.681,105.976c-0.249-0.089-0.497-0.178-0.745-0.267C201.184,105.798,201.432,105.887,201.681,105.976z"/>
<path class="st1" d="M240.626,45.977c-0.265,0.013-0.53,0.026-0.795,0.039C240.096,46.003,240.361,45.99,240.626,45.977z"/>
<path class="st1" d="M200.557,105.588c-0.259-0.078-0.518-0.156-0.777-0.233C200.039,105.432,200.298,105.51,200.557,105.588z"/>
<path class="st1" d="M273.954,88.33c-0.135-0.002-0.27-0.004-0.405-0.006C273.684,88.326,273.819,88.328,273.954,88.33z"/>
<path class="st1" d="M290.41,92.984c-0.088-0.15-0.176-0.3-0.264-0.45C290.234,92.684,290.322,92.834,290.41,92.984z"/>
<path class="st1" d="M247.793,46.426c-0.053-0.075-0.093-0.157-0.119-0.245c0.143,0.05,0.287,0.1,0.431,0.15
	C248.014,46.407,247.91,46.439,247.793,46.426z"/>
<path class="st1" d="M194.659,110.183c0.067,0.157,0.134,0.315,0.2,0.472C194.792,110.498,194.725,110.341,194.659,110.183z"/>
<path class="st1" d="M254.857,118.441c0.118,0.132,0.236,0.264,0.354,0.396C255.093,118.705,254.975,118.573,254.857,118.441z"/>
<path class="st1" d="M255.208,118.836c0.135,0.114,0.271,0.228,0.406,0.342C255.479,119.063,255.344,118.95,255.208,118.836z"/>
<path class="st1" d="M198.28,122.204c0.121,0.132,0.241,0.263,0.362,0.395C198.522,122.467,198.401,122.335,198.28,122.204z"/>
<path class="st1" d="M198.642,122.598c0.125,0.125,0.25,0.25,0.374,0.375C198.891,122.847,198.767,122.722,198.642,122.598z"/>
<path class="st1" d="M200.211,124.397c0.107,0.144,0.214,0.287,0.322,0.431C200.425,124.684,200.318,124.541,200.211,124.397z"/>
<path class="st1" d="M200.532,124.825c0.128,0.123,0.256,0.247,0.385,0.37C200.788,125.072,200.66,124.949,200.532,124.825z"/>
<path class="st1" d="M275.832,126.187c-0.132-0.037-0.265-0.075-0.397-0.113C275.568,126.112,275.7,126.149,275.832,126.187z"/>
<path class="st1" d="M272.076,161.664c-0.231,0.082-0.461,0.236-0.692,0.236c-3.55,0.011-7.101,0.008-10.651-0.011
	c-0.232-0.001-0.463-0.153-0.694-0.235c0.523-0.044,1.046-0.087,1.568-0.131c0.123-0.041,0.245-0.082,0.368-0.123
	c2.611,0.014,5.222,0.028,7.833,0.042c0.748,0.015,1.496,0.03,2.245,0.044L272.076,161.664z"/>
<path class="st1" d="M240.975,169.382c3.494-0.038,6.988-0.076,10.481-0.114c0.133,0.015,0.266,0.029,0.399,0.044
	c0.253,0.048,0.506,0.097,0.759,0.145c-0.23,0.086-0.46,0.248-0.689,0.248c-3.654-0.005-7.309-0.031-10.963-0.051
	C240.97,169.564,240.975,169.473,240.975,169.382z"/>
<path class="st1" d="M240.975,169.382c0,0.091-0.005,0.182-0.014,0.272c-2.124-0.317-4.249-0.634-6.373-0.95
	C236.717,168.93,238.846,169.156,240.975,169.382z"/>
<path class="st1" d="M231.645,159.303c-2.012,0.541-4.025,0.732-6.042,0.026c1.868-0.072,3.737-0.145,5.605-0.217
	C231.353,159.176,231.499,159.24,231.645,159.303z"/>
<path class="st1" d="M220.002,169.797c0.858,0.816,1.306,1.786,1.114,2.993C220.745,171.792,220.374,170.794,220.002,169.797z"/>
<path class="st1" d="M261.607,161.523c-0.523,0.044-1.046,0.087-1.568,0.131c-1.113-0.151-2.225-0.303-3.338-0.454
	c1.604,0.024,3.208,0.047,4.812,0.07C261.537,161.357,261.568,161.441,261.607,161.523z"/>
<path class="st1" d="M219.553,161.855c-0.178,1.015-0.356,2.03-0.535,3.045c-0.951-0.317-0.574-1.083-0.416-1.611
	C218.761,162.763,219.224,162.329,219.553,161.855z"/>
<path class="st1" d="M231.301,169.082c0.613-1.514,1.363-1.64,2.579-0.434C232.912,168.146,232.081,168.463,231.301,169.082z"/>
<path class="st1" d="M261.97,188.737c1.237,0.055,2.473,0.109,3.71,0.164c-1.491,0.648-2.984,0.569-4.479,0.011
	c0,0-0.021-0.131-0.021-0.13C261.443,188.767,261.707,188.752,261.97,188.737z"/>
<path class="st1" d="M254.84,181.784c0.471,0.771,0.942,1.543,1.412,2.314C255.304,183.619,255.094,182.687,254.84,181.784z"/>
<path class="st1" d="M225.255,159.3c-0.911-0.154-1.822-0.309-2.733-0.463C223.592,158.051,224.471,158.394,225.255,159.3z"/>
<path class="st1" d="M275.817,161.532c-1.247,0.044-2.494,0.088-3.741,0.132c0,0-0.024-0.178-0.024-0.178
	c0.03-0.079,0.049-0.161,0.058-0.245c0.911-0.074,1.823-0.147,2.735-0.221c0.259,0.018,0.518,0.035,0.776,0.052
	c0.085-0.023,0.151,0.002,0.198,0.076C275.818,161.277,275.818,161.405,275.817,161.532z"/>
<path class="st1" d="M278.932,172.4c-0.968-0.427-0.414-1.229-0.463-1.882C279.302,170.979,279.317,171.64,278.932,172.4z"/>
<path class="st1" d="M231.645,159.303c-0.146-0.064-0.292-0.128-0.437-0.191c0.767-0.172,1.535-0.343,2.302-0.515
	c-0.021,0.099-0.039,0.2-0.053,0.301C232.852,159.033,232.249,159.168,231.645,159.303z"/>
<path class="st1" d="M257.688,169.254c0.634,0.857,0.017,1.259-0.603,1.66C257.286,170.361,257.487,169.808,257.688,169.254z"/>
<path class="st1" d="M276.975,181.823c0.143-0.647,0.157-1.374,0.987-1.597C277.632,180.758,277.303,181.29,276.975,181.823z"/>
<path class="st1" d="M224.885,179.522c0.346,0.403,0.692,0.807,1.037,1.21C225.577,180.329,225.231,179.926,224.885,179.522z"/>
<path class="st1" d="M233.456,158.898c0.014-0.101,0.032-0.201,0.053-0.3c0.642-0.113,1.284-0.227,1.927-0.34
	C235.009,159.19,234.198,158.936,233.456,158.898z"/>
<path class="st1" d="M231.653,179.177c0.105-0.381,0.21-0.763,0.314-1.144C232.641,178.629,232.294,178.943,231.653,179.177z"/>
<path class="st1" d="M272.109,161.241c-0.009,0.084-0.028,0.166-0.058,0.245c-0.748-0.015-1.497-0.03-2.245-0.044
	C270.575,161.375,271.342,161.308,272.109,161.241z"/>
<path class="st1" d="M219.276,166.404c0.381,0.288,0.943,0.503,0.448,1.137C219.575,167.162,219.426,166.783,219.276,166.404z"/>
<path class="st1" d="M231.742,173.69c-0.105-0.455-0.21-0.909-0.315-1.364C231.532,172.78,231.637,173.235,231.742,173.69z"/>
<path class="st1" d="M276.575,164.17c-0.045-0.291-0.089-0.583-0.134-0.874C276.486,163.588,276.531,163.879,276.575,164.17z"/>
<path class="st1" d="M275.817,161.532c0.001-0.128,0.001-0.255,0.002-0.383c0.153,0.257,0.307,0.513,0.46,0.77
	C276.125,161.79,275.971,161.661,275.817,161.532z"/>
<path class="st1" d="M244.366,156.288c-0.272-0.232-0.544-0.464-0.816-0.696C243.822,155.824,244.094,156.056,244.366,156.288z"/>
<path class="st1" d="M255.569,168.331c0.537,0.074,1.075,0.147,1.612,0.22C256.644,168.478,256.107,168.405,255.569,168.331z"/>
<path class="st1" d="M242.541,154.747c-0.293-0.212-0.586-0.425-0.879-0.637C241.955,154.323,242.248,154.535,242.541,154.747z"/>
<path class="st1" d="M257.081,185.531c0.239,0.264,0.478,0.528,0.717,0.792C257.559,186.06,257.32,185.795,257.081,185.531z"/>
<path class="st1" d="M240.555,154.013c-0.221,0.279-0.442,0.558-0.662,0.837C240.113,154.571,240.334,154.292,240.555,154.013z"/>
<path class="st1" d="M241.434,153.972c-0.291,0.011-0.582,0.022-0.872,0.033C240.938,153.362,240.959,153.361,241.434,153.972z"/>
<path class="st1" d="M256.332,184.408c0.22,0.273,0.44,0.546,0.66,0.819C256.772,184.955,256.552,184.682,256.332,184.408z"/>
<path class="st1" d="M276.262,183.729c0.149-0.308,0.297-0.616,0.446-0.923C276.559,183.114,276.41,183.422,276.262,183.729z"/>
<path class="st1" d="M227.452,182.188c0.266,0.241,0.532,0.481,0.798,0.721C227.984,182.669,227.718,182.429,227.452,182.188z"/>
<path class="st1" d="M254.153,228.295c-0.021,0.085-0.057,0.163-0.108,0.235c-0.125,0.003-0.239-0.032-0.341-0.104
	C253.854,228.381,254.003,228.338,254.153,228.295z"/>
<path class="st1" d="M265.672,188.776c0.138,0.018,0.276,0.037,0.414,0.055C265.948,188.813,265.81,188.794,265.672,188.776z"/>
<path class="st1" d="M259.099,187.682c0.098,0.132,0.197,0.265,0.295,0.397C259.296,187.947,259.198,187.815,259.099,187.682z"/>
<path class="st1" d="M275.435,184.777c0.111-0.133,0.221-0.266,0.331-0.399C275.656,184.511,275.545,184.644,275.435,184.777z"/>
<path class="st1" d="M261.607,161.523c-0.038-0.082-0.07-0.167-0.095-0.253c0.154,0.044,0.308,0.087,0.463,0.13
	C261.852,161.441,261.729,161.482,261.607,161.523z"/>
<path class="st1" d="M275.62,161.073c-0.259-0.017-0.517-0.035-0.776-0.052C275.102,161.038,275.361,161.055,275.62,161.073z"/>
<path class="st1" d="M237.646,157.107c-0.15,0.089-0.301,0.178-0.451,0.267C237.345,157.285,237.495,157.196,237.646,157.107z"/>
<path class="st1" d="M222.288,158.974c-0.155,0.092-0.309,0.184-0.464,0.276C221.979,159.158,222.133,159.066,222.288,158.974z"/>
<path class="st1" d="M216.673,88.923c-0.015,0.084-0.043,0.164-0.082,0.24c-3.117,0.004-6.233,0.009-9.35,0.013
	c0.352-0.085,0.704-0.242,1.056-0.244C211.09,88.912,213.882,88.922,216.673,88.923z"/>
<path class="st1" d="M224.511,89.121c-0.373,0.014-0.746,0.028-1.119,0.042c-0.029-0.077-0.049-0.156-0.06-0.237
	C223.725,88.991,224.118,89.056,224.511,89.121z"/>
<path class="st1" d="M276.21,123.211c-0.136-0.02-0.273-0.041-0.409-0.061C275.938,123.17,276.074,123.191,276.21,123.211z"/>
<path class="st1" d="M261.97,188.737c-0.263,0.015-0.527,0.03-0.79,0.045C261.443,188.767,261.707,188.752,261.97,188.737z"/>
<path class="st1" d="M251.855,169.312c-0.133-0.015-0.266-0.029-0.399-0.044C251.589,169.283,251.722,169.297,251.855,169.312z"/>
</svg>
