<?xml version="1.0" encoding="utf-8"?>
<!-- Generator: Adobe Illustrator 27.7.0, SVG Export Plug-In . SVG Version: 6.00 Build 0)  -->
<svg version="1.1" baseProfile="basic" id="Layer_1"
	 xmlns="http://www.w3.org/2000/svg" xmlns:xlink="http://www.w3.org/1999/xlink" x="0px" y="0px" viewBox="0 0 500 500"
	 xml:space="preserve">
<style type="text/css">
	.st0{fill:#FFFFFF;}
	.st1{fill:#E3901C;}
	.st2{fill:#373737;}
	.st3{fill:#848484;}
</style>
<path class="st1" d="M144.047,490.976c-2.325-3.58-4.651-7.161-7.053-10.689c-3.923-5.762-7.623-11.663-11.217-17.635
	c-1.468-2.439-2.972-4.876-4.689-7.14c-1.957-2.58-2.622-5.625-3.58-8.578c-0.315-0.971-0.634-1.985-0.669-2.989
	c-0.025-0.728,0.252-1.59,0.684-2.181c0.718-0.984,1.539-1.993,2.541-2.651c5.129-3.37,10.292-6.694,15.518-9.911
	c3.762-2.315,7.635-4.45,11.473-6.641c2.169-1.239,4.325-2.514,6.563-3.615c2.225-1.095,4.531-2.035,6.832-2.967
	c2.131-0.863,4.307-1.613,6.455-2.433c4.041-1.543,8.217-2.609,12.42-3.594c3.254-0.762,6.489-1.601,9.732-2.408
	c0.059-0.015,0.114-0.077,0.169-0.075c2.227,0.093,4.342-0.634,6.522-0.881c0.479-0.23,0.938-0.594,1.44-0.669
	c4.457-0.663,8.944-0.563,13.429-0.435c0.673,0.019,1.34,0.243,2.009,0.372c2.784,0.905,5.22,2.5,7.181,4.559
	c1.099,1.154,1.497,3.008,2.107,4.587c0.495,1.283,0.836,2.626,1.316,4.174c0.671-0.478,1.18-0.873,1.722-1.216
	c0.513-0.326,1.059-0.6,1.592-0.893c2.042-1.123,4.066-2.282,6.136-3.351c1.13-0.583,2.339-1.012,3.512-1.511
	c0.979-0.955,2.168-0.945,3.399-0.742c1.485-0.257,2.969-0.515,4.454-0.772c0.465-0.236,0.916-0.63,1.399-0.677
	c1.039-0.1,2.094-0.021,3.143-0.015c1.101-0.054,2.203-0.108,3.304-0.162c1.276-0.06,2.553-0.119,3.829-0.179
	c4.477-0.208,8.955-0.417,13.432-0.625c0.163-0.03,0.327-0.059,0.49-0.089c1.281-0.063,2.563-0.126,3.845-0.19
	c2.059-0.087,4.118-0.174,6.176-0.261c2.244-0.078,4.489-0.156,6.733-0.234c0.266-0.041,0.533-0.082,0.799-0.122
	c2.857-0.003,5.715-0.006,8.572-0.009c2.307-0.054,4.614-0.13,6.921-0.157c2.429-0.028,4.859-0.011,7.289-0.013
	c0.169-0.044,0.339-0.087,0.508-0.131c1.573-0.097,3.145-0.194,4.718-0.291c1.01-0.058,2.021-0.116,3.031-0.173
	c4.265-0.03,8.53-0.051,12.795-0.095c1.728-0.018,3.456-0.085,5.184-0.13c0.388-0.047,0.776-0.093,1.164-0.14
	c1.387-0.265,1.476-1.518,1.78-2.507c0.427-1.387,0.55-2.871,1.004-4.247c0.621-1.882,1.438-3.7,2.156-5.55
	c1.247-3.211,2.483-6.426,3.722-9.64c0.217-0.562,0.429-1.126,0.644-1.689c-0.498-0.519-0.132-0.662,0.332-0.762
	c0.133-0.391,0.266-0.783,0.399-1.174c0,0-0.057-0.159-0.057-0.159l0.132-0.106c0.195-1.362,0.389-2.724,0.584-4.087
	c-0.374-0.617,0.174-0.874,0.479-1.225c-0.137-1.73,0.701-3.26,0.999-4.901c0.064-0.354,0.089-0.715,0.132-1.073
	c0.011-0.25,0.022-0.5,0.033-0.75c0.091-2.765,1.659-5.091,2.289-7.698c0.344-1.424,0.622-2.896,1.209-4.222
	c1.183-2.67,2.079-5.483,3.895-7.862c0.688-0.902,1.047-2.057,1.55-3.1c1.136-2.355,2.299-4.698,3.391-7.073
	c0.564-1.227,0.979-2.522,1.507-3.767c0.327-0.771,0.668-1.553,1.129-2.246c0.872-1.31,1.755-2.628,2.782-3.815
	c1.089-1.258,2.621-1.922,4.133-2.564c0.203-0.086,0.378-0.238,0.566-0.359c1.131-1.148,2.426-0.932,3.753-0.451
	c2.103,1.015,3.545,2.317,3.528,5.012c-0.018,2.939-0.484,5.79-1.01,8.637c-0.189,1.02-0.923,1.939-1.408,2.905
	c-0.36,0.649-0.719,1.298-1.079,1.946c-0.074,0.3-0.148,0.6-0.222,0.899c-0.067,0.425-0.134,0.85-0.202,1.275
	c-0.173,1.831-0.776,3.519-1.617,5.147c-0.64,1.239-1.08,2.593-1.808,3.773c-0.58,0.94-0.535,1.854-0.489,2.846
	c0.046,0.988,0.01,1.98,0.01,2.933c1.554,0.287,2.295-0.115,2.778-1.432c0.817-2.229,1.72-4.405,3.255-6.263
	c0.224-0.271,0.328-0.648,0.457-0.988c1.071-2.832,2.544-5.415,4.702-7.567c2.039-2.033,3.597-4.405,5.139-6.826
	c1.336-2.098,2.85-4.204,5.396-5.033c1.253-0.408,2.588-0.563,3.886-0.833c1.132-0.548,2.262-0.906,3.383,0.024
	c0.125,0.121,0.25,0.243,0.375,0.365c0.149,0.107,0.298,0.214,0.447,0.32c0.56,0.579,1.448,0.912,1.44,1.918
	c0.052,0.267,0.103,0.534,0.155,0.801c0.472,2.091,0.429,4.179-0.028,6.266c-0.119,0.328-0.237,0.657-0.356,0.986
	c-0.097,0.182-0.194,0.363-0.292,0.545c-0.074,0.137-0.148,0.274-0.222,0.41c-0.122,0.25-0.244,0.5-0.366,0.749
	c-0.243,0.389-0.486,0.778-0.729,1.167c-0.023,0.123-0.084,0.222-0.183,0.297c-0.071,0.14-0.142,0.281-0.213,0.421
	c0.019,0.119,0,0.232-0.057,0.339c-0.109,0.129-0.218,0.258-0.327,0.387c0,0-0.007,0.003-0.006,0.003
	c-0.123,0.125-0.247,0.25-0.371,0.375c-1.271,1.782-2.555,3.556-3.802,5.354c-0.194,0.28-0.226,0.673-0.333,1.014
	c0.561,1.229,1.554,0.482,2.376,0.52c0.303-0.236,0.605-0.471,0.908-0.707c0.132-0.083,0.265-0.166,0.397-0.249
	c1.697-1.952,4.35-2.385,6.293-3.967c0.818-0.666,1.825-1.101,2.745-1.64c0.57-1.134,1.463-0.789,2.341-0.511
	c0.847,0.206,1.694,0.412,2.541,0.618c1.623-0.014,3.245-0.027,4.868-0.041c1.146,0.005,2.293,0.01,3.439,0.015
	c0.863-0.906,1.238-2.277,0.506-2.925c-2.264-2.004-3.146-4.899-4.886-7.237c-0.86-1.156-1.386-2.594-1.902-3.965
	c-1.242-3.3-2.928-6.182-6.31-7.736c-0.393-0.18-0.806-0.692-0.887-1.112c-0.452-2.335-0.805-4.689-1.192-7.036
	c-0.431-0.414-0.86-0.828-0.457-1.496c-0.041-0.211-0.081-0.422-0.122-0.633c-0.052-0.414-0.103-0.827-0.155-1.241
	c-0.229-1.472-1.471-2.139-2.545-2.672c-1.434-0.711-2.272-1.874-2.997-3.111c-2.253-3.841-4.45-7.716-6.068-11.89
	c-1.249-3.221-2.517-6.441-3.946-9.584c-0.586-1.289-1.601-2.386-2.445-3.552c-2.609-3.601-5.23-7.193-7.846-10.788
	c-0.18-0.279-0.36-0.559-0.539-0.838c-0.176-1.534-0.434-3.065-0.508-4.604c-0.094-1.949-1.043-3.429-2.303-4.781
	c-0.152-0.163-0.425-0.207-0.615-0.344c-1.319-0.953-2.631-1.917-3.945-2.877c-0.117-0.132-0.234-0.263-0.352-0.395
	c-0.065-0.657-0.23-1.323-0.177-1.971c0.158-1.906,0.429-3.802,0.603-5.707c0.083-0.905,0.209-1.869-0.737-2.49
	c-0.267-0.231-0.533-0.463-0.8-0.694c-1.071-0.655-2.097-1.406-3.227-1.938c-1.182-0.556-2.448-0.952-3.703-1.329
	c-3.628-1.09-7.269-2.141-10.909-3.192c-0.521-0.15-1.065-0.219-1.599-0.326c-1.897-0.111-3.793-0.222-5.69-0.333
	c-0.489-0.131-0.979-0.261-1.468-0.392c-2.744-0.743-5.501-1.442-8.226-2.251c-1.022-0.303-1.965-0.867-2.95-1.299
	c-0.661-0.29-1.312-0.641-2.004-0.815c-1.934-0.487-3.887-0.896-5.833-1.336c-1.051-0.088-2.104-0.157-3.153-0.269
	c-0.981-0.104-1.957-0.253-2.935-0.382c-1.166-0.254-2.351-0.444-3.494-0.778c-1.666-0.487-3.301-1.081-4.952-1.622
	c-0.669-0.219-1.344-0.418-2.017-0.626c-1.5-0.257-3-0.514-4.5-0.771c-0.13-0.022-0.26-0.045-0.39-0.067
	c-0.103,0.071-0.216,0.096-0.339,0.074c-1.384-0.241-2.768-0.482-4.152-0.723c-0.936-0.229-1.867-0.622-2.81-0.652
	c-1.935-0.062-3.44-1.032-4.643-2.298c-1.865-1.963-4.261-2.308-6.679-2.751c-0.789-0.107-1.583-0.19-2.365-0.331
	c-0.373-0.067-0.727-0.246-1.089-0.375c-0.508-0.48-1.015-0.96-1.523-1.439c-0.603-0.653-1.206-1.305-1.809-1.958
	c-0.773-0.844-1.546-1.687-2.319-2.531c-0.989-0.765-1.978-1.531-2.967-2.296c-1.577,0.232-2.06,0.75-2.202,2.479
	c-0.065,0.791-0.039,1.589-0.054,2.384c-0.145,0.63-0.291,1.26-0.436,1.89c-0.077,2.623-0.155,5.247-0.232,7.87
	c0.003,0.496,0.006,0.993,0.009,1.489c0.066,0.339,0.131,0.678,0.197,1.018c0.156,0.29,0.311,0.579,0.467,0.869
	c0.628,2.37,1.256,4.74,1.883,7.111c0.023,0.25,0.046,0.5,0.069,0.75c0.174,3.732,0.365,7.464,0.516,11.197
	c0.078,1.929,0.027,3.865,0.135,5.792c0.171,3.069-0.152,6.096-0.619,9.117c-0.071,0.584-0.141,1.167-0.212,1.751
	c-0.054,0.332-0.108,0.664-0.163,0.996c-0.039,0.374-0.077,0.748-0.116,1.122c-1.649,5.091-3.365,10.162-4.931,15.279
	c-2.207,7.214-4.316,14.459-6.433,21.701c-0.305,1.045-0.397,2.15-0.642,3.215c-0.086,0.375-0.336,0.713-0.595,1.237
	c-0.468-0.398-0.816-0.629-1.081-0.932c-0.656-0.751-1.296-1.518-1.904-2.308c-3.366-4.37-7.631-7.757-11.877-11.214
	c-5.811-4.732-11.387-9.753-17.078-14.633c-2.96-2.538-5.951-5.04-8.928-7.559c-0.42-0.33-0.839-0.661-1.259-0.991
	c-0.589-0.528-1.178-1.056-1.767-1.584c-0.657-0.6-1.313-1.2-1.969-1.8c-0.716-0.65-1.431-1.301-2.147-1.951
	c-1.404-1.35-2.809-2.701-4.213-4.051c-1.748-1.742-3.495-3.484-5.243-5.226c-0.335-0.415-0.671-0.829-1.006-1.244
	c-2.294-2.749-4.584-5.502-6.882-8.247c-2.192-2.619-4.401-5.223-6.585-7.848c-2.172-2.611-4.341-5.225-6.478-7.864
	c-1.443-1.783-2.846-3.599-4.237-5.424c-1.459-1.915-2.887-3.854-4.319-5.79c-0.537-0.726-1.049-1.472-1.573-2.208
	c-0.226-0.391-0.451-0.782-0.677-1.174c0,0-0.006-0.007-0.006-0.006c-0.729-0.065-0.662-0.647-0.736-1.136
	c-0.153-0.226-0.306-0.452-0.459-0.678c-0.223-0.397-0.447-0.794-0.67-1.191c-0.049-0.097-0.081-0.199-0.093-0.306
	c-0.098-0.144-0.197-0.287-0.295-0.431c-0.067-0.087-0.133-0.175-0.199-0.264c-0.776-1.767-1.558-3.532-2.312-5.308
	c-0.033-0.078,0.179-0.26,0.277-0.394c-0.085-0.331-0.171-0.661-0.256-0.992c-0.089-0.543-0.178-1.085-0.267-1.628
	c-0.041-0.206-0.081-0.411-0.122-0.617c-0.05-0.419-0.1-0.837-0.151-1.256c-0.415-1.354-0.4-2.911-1.796-3.801
	c-0.893,0.148-1.787,0.296-2.68,0.443c-0.497,0.252-0.994,0.503-1.492,0.755c-0.159,0.083-0.318,0.166-0.476,0.248
	c-0.242,0.266-0.483,0.532-0.725,0.798c-0.102,0.269-0.203,0.538-0.305,0.807c-0.011,0.122-0.018,0.243-0.019,0.366
	c-0.502,1.252-1.004,2.505-1.506,3.757c-0.874,3.745-1.747,7.489-2.621,11.234c-0.147,0.755-0.14,1.592-1.033,1.952
	c-0.051,0.077-0.104,0.152-0.16,0.225c-0.121,0.124-0.242,0.248-0.363,0.372c-1.087,1.033-2.174,2.065-3.262,3.098
	c-0.262,0.245-0.524,0.489-0.786,0.734c-4.739,2.096-8.763,5.174-12.169,9.046c-2.04,2.319-3.852,4.841-5.94,7.112
	c-1.888,2.052-3.971,3.933-6.057,5.789c-0.661,0.588-1.611,0.852-2.429,1.264c-0.393,0.237-0.787,0.475-1.18,0.712
	c-0.715,0.651-1.431,1.301-2.147,1.952c-0.654,0.603-1.308,1.206-1.962,1.809c-0.972,0.893-1.944,1.786-2.916,2.678
	c-0.511,0.493-1.022,0.986-1.533,1.479c0,0,0.001-0.002,0.001-0.002c-0.13,0.12-0.259,0.239-0.389,0.359
	c-1.143,0.733-2.286,1.466-3.429,2.2c-0.711,0.663-1.423,1.326-2.134,1.989c-0.998,0.993-1.995,1.986-2.993,2.979
	c-0.511,0.493-1.022,0.985-1.532,1.478c0,0,0.001-0.002,0.001-0.002c-0.133,0.118-0.265,0.236-0.398,0.354
	c-1.063,0.896-2.059,1.892-3.204,2.666c-2.656,1.797-5.394,3.473-8.077,5.232c-0.648,0.425-1.208,0.983-1.808,1.48
	c-0.395,0.236-0.789,0.473-1.184,0.709c-0.622,0.62-1.245,1.241-1.867,1.861c-0.347,0.408-0.693,0.815-1.04,1.223
	c-0.408,0.462-0.815,0.925-1.223,1.387c-0.607,0.643-1.214,1.286-1.821,1.928c-0.742,0.506-1.484,1.012-2.226,1.519
	c-0.151,0.099-0.301,0.198-0.452,0.296c-0.088,0.052-0.182,0.082-0.284,0.09c-0.164,0.088-0.328,0.176-0.492,0.264
	c-0.241,0.253-0.483,0.506-0.724,0.759c-0.204,0.415-0.409,0.831-0.613,1.246c-0.535,0.979-1.07,1.958-1.605,2.937
	c-0.091,0.152-0.183,0.303-0.274,0.455c-0.079,0.607-0.244,1.218-0.222,1.822c0.113,3.147,0.321,6.291,0.398,9.438
	c0.045,1.845-0.094,3.694-0.15,5.542c-0.056,0.749-0.112,1.497-0.168,2.246c-0.808,9.195-1.612,18.391-2.426,27.586
	c-0.148,1.67-0.334,3.336-0.503,5.004c-0.164,0.547-0.328,1.093-0.492,1.64c-0.04,0.208-0.08,0.416-0.121,0.624
	c-0.076,0.542-0.152,1.085-0.229,1.627c-0.439,5.454-0.877,10.908-1.316,16.362c0.002,0.247,0.004,0.494,0.006,0.74
	c0.058,0.465,0.116,0.929,0.173,1.394c0.072,0.659,0.144,1.318,0.215,1.977c0.325,4.042,1.586,7.91,2.224,11.888
	c0.701,4.376,3.255,7.808,5.448,11.425c1.12,1.848,1.8,3.814,2.374,5.87c0.568,2.032,1.337,4.007,1.992,6.016
	c0.244,0.747,0.414,1.518,0.618,2.277c0.022,0.372,0.044,0.744,0.066,1.115c0.306,2.589,0.612,5.178,0.918,7.767
	c0.074,0.659,0.147,1.318,0.221,1.976c0.058,0.465,0.115,0.93,0.173,1.395c0.033,0.286,0.066,0.572,0.099,0.858
	c0.302,2.013,0.465,4.06,0.946,6.03c0.429,1.757,1.245,3.415,1.831,5.137c1.872,5.501,3.827,10.977,5.535,16.528
	c1.266,4.114,2.275,8.314,3.246,12.51c0.507,2.194-0.017,4.407-0.478,6.585c-0.239,1.13-0.395,2.277-0.589,3.416
	c-0.174,0.523-0.348,1.047-0.522,1.57c-0.082,0.847-0.163,1.694-0.245,2.541c0.015,0.536,0.411,1.162-0.357,1.512
	c-0.092,0.341-0.183,0.682-0.275,1.022c-0.063,0.407-0.127,0.814-0.19,1.22c-0.044,0.22-0.089,0.44-0.133,0.659
	c-0.043,0.407-0.087,0.814-0.13,1.221c-0.045,0.482-0.09,0.964-0.136,1.446c-0.111,0.264-0.223,0.529-0.334,0.793
	c0.011,1.128,0.021,2.256,0.032,3.384c0.128,0.255,0.256,0.509,0.384,0.764c0.905,1.718,1.735,3.481,2.735,5.143"/>
<path class="st1" d="M211.096,83.215c-3.069-0.003-6.014,0.827-8.995,1.387c-0.756,0.142-1.784-0.168-2.224,0.869
	c-0.952,0.726-2.023,0.287-3.047,0.309c-0.617,0.002-1.235,0.004-1.852,0.006c0,0,0.015,0.033,0.015,0.033
	c-1.014,0.248-2.028,0.496-3.042,0.744c-2.053,0.878-4.09,1.796-6.164,2.622c-2.025,0.807-4.088,1.521-6.134,2.275
	c-3.459,2.112-7.592,3.774-9.433,3.665c0.475-0.438,0.765-0.832,1.154-1.038c0.809-0.428,1.674-0.749,2.51-1.128
	c1.664-0.756,3.324-1.522,4.985-2.284c0.463-0.8,0.799-1.615,0.307-2.531c-0.686-0.153-0.635-0.684-0.617-1.199
	c-0.122-0.245-0.243-0.49-0.365-0.736c-0.578,0.057-0.719-0.308-0.749-0.779c-0.038-0.211-0.075-0.423-0.113-0.634
	c-1.169-0.935-1.204-2.23-1.126-3.56c0.077-2.841,0.1-5.686,0.254-8.523c0.083-1.533,0.356-3.059,0.609-4.578
	c0.22-1.322,0.531-2.629,0.802-3.943c0.567-1.043,1.134-2.086,1.701-3.128c0.896-0.987,1.792-1.974,2.687-2.962
	c0.26-0.108,0.52-0.216,0.781-0.325c0.62-0.379,1.241-0.759,1.861-1.138c0.617-1.004,1.573-1.188,2.644-1.094
	c0,0-0.026-0.035-0.026-0.035c0.84-1.113,2.026-1.465,3.345-1.526c1.626-0.62,3.252-1.24,4.878-1.86
	c1.023-0.967,3.012-1.626,4.523-1.499c0.909-0.255,1.834-0.464,2.724-0.774c1.742-0.608,3.476-1.24,5.189-1.925
	c1.369-0.548,2.701-1.19,4.049-1.79c0.316-0.255,0.606-0.682,0.952-0.734c1.303-0.193,2.625-0.264,3.94-0.381
	c0.228-0.009,0.455-0.018,0.683-0.027c0.626-0.17,1.253-0.341,1.879-0.511c0.164-0.076,0.328-0.219,0.492-0.219
	c3.452-0.015,6.903-0.017,10.355-0.006c0.163,0.001,0.326,0.145,0.489,0.222c0.367,0.177,0.734,0.353,1.102,0.53
	c0.102,0.019,0.204,0.034,0.307,0.047c1.52,0.123,3.015,0.319,4.225,1.387c0.087,0.058,0.183,0.097,0.285,0.118
	c0.482-0.034,0.964-0.085,1.446-0.1c1.644-0.051,3.289-0.089,4.934-0.131c0.144-0.05,0.288-0.1,0.431-0.15
	c1.99-0.008,3.98-0.016,5.969-0.024c0.359-0.06,0.719-0.12,1.078-0.18c0.265,0.013,0.53,0.026,0.795,0.039
	c0.115,0.044,0.23,0.091,0.343,0.14c0.771,0.461,1.542,0.922,2.313,1.383c1.628,1.008,3.257,2.017,4.885,3.025
	c0.243,0.121,0.485,0.243,0.728,0.364c0,0,0.018,0.025,0.018,0.025c0.604,0.256,1.208,0.511,1.812,0.766
	c0.479,0.153,0.959,0.306,1.438,0.459c1.086,0.35,2.375,0.234,3.119,1.366c0.08,0.071,0.173,0.107,0.281,0.106
	c0.668-0.266,1.019,0.056,1.219,0.658c1.611,1.633,3.223,3.266,4.835,4.898c0.488,0.515,0.975,1.03,1.463,1.544
	c0,0-0.003-0.001-0.003-0.001c0.116,0.134,0.232,0.268,0.348,0.401c-0.009,0.112,0.024,0.209,0.1,0.293
	c0.338,0.409,0.676,0.819,1.014,1.228c0.399,0.469,0.798,0.938,1.198,1.407c0.244,0.257,0.488,0.513,0.732,0.77
	c0,0,0.002,0.001,0.002,0.001c0.111,0.138,0.223,0.277,0.334,0.415c0.416,0.59,0.832,1.181,1.248,1.772
	c0.189,0.302,0.377,0.605,0.566,0.907c0.045,0.083,0.089,0.166,0.134,0.248c0.484,0.888,0.967,1.776,1.45,2.665
	c0.376,1.254,0.752,2.509,1.128,3.763c0.338,0.777,0.677,1.554,1.015,2.331c0.036,0.094,0.094,0.174,0.172,0.238
	c0.243,0.231,0.487,0.463,0.73,0.694c0.186,0.098,0.373,0.195,0.559,0.293c1.051-0.23,1.904-0.654,2.109-1.874
	c0.037-0.22,0.406-0.385,0.622-0.576c1.265-1.863,2.66-3.66,3.031-5.977c-0.352-0.33-0.349-0.614,0.11-0.837
	c0.011-1.94,0.023-3.881,0.034-5.821c-0.567-0.446-0.669-0.97-0.261-1.577c-0.285-1.857-0.57-3.714-0.855-5.571
	c-0.519-0.167-0.551-0.442-0.18-0.807c0.034-0.123,0.03-0.245-0.013-0.365c-0.916-0.43-0.8-1.123-0.475-1.868
	c-0.048-0.229-0.097-0.458-0.145-0.688c-0.416-0.72-1.101-1.382-0.507-2.323c-0.558-2.263-1.067-4.54-1.693-6.784
	c-0.318-1.143-0.845-2.227-1.277-3.338c-0.484-0.765-0.969-1.529-1.453-2.294c-0.625-0.618-1.25-1.237-1.875-1.855
	c-0.873-0.881-1.746-1.763-2.619-2.644c-0.54-0.582-1.081-1.163-1.621-1.745c-0.741-0.752-1.483-1.505-2.224-2.257
	c-0.943-0.554-1.886-1.107-2.829-1.661c-0.809-0.042-1.606-0.108-2.034-0.957c-0.336-0.173-0.672-0.345-1.008-0.518
	c-1.355-0.277-2.94-0.254-2.959-2.272c-0.081-0.184-0.163-0.367-0.244-0.551c-0.178-0.307-0.356-0.614-0.534-0.92
	c-0.044-0.082-0.093-0.163-0.144-0.241c-0.323-0.419-0.646-0.838-0.968-1.257c-1.429-2.498-3.626-4.116-6.048-5.579
	c-3.026-1.828-6.277-2.947-9.689-3.706c-0.525-0.117-1.043-0.264-1.564-0.397c-1.015-0.361-2.031-0.722-3.046-1.084
	c-0.36-0.017-0.72-0.035-1.08-0.052c-0.738,0.514-1.306,0.08-1.876-0.338c-0.093-0.072-0.198-0.116-0.315-0.133
	c-0.791-0.01-1.582-0.02-2.372-0.03c-1.103,0.051-2.207,0.102-3.31,0.153c-0.516,0.104-1.032,0.207-1.548,0.311
	c-0.363-0.023-0.726-0.046-1.089-0.07c0,0,0.001,0.085,0.001,0.085c-1.377,0.259-2.753,0.519-4.13,0.778
	c-3.129,0.81-6.256,1.626-9.389,2.422c-0.466,0.118-0.957,0.141-1.436,0.208c-2.131,0.871-4.262,1.741-6.393,2.612
	c-0.243,0.135-0.485,0.269-0.728,0.404c-1.15,0.478-2.299,0.957-3.449,1.435c-0.088,0.021-0.166,0.06-0.235,0.118
	c-0.274,0.227-0.548,0.454-0.821,0.681c-1.48,0.891-2.96,1.783-4.441,2.674c-0.641,0.358-1.281,0.716-1.921,1.074
	c-0.246,0.131-0.492,0.262-0.738,0.393c-0.221,0.106-0.438,0.293-0.665,0.306c-2.659,0.151-5.32,0.276-7.98,0.407
	c-2.502,0.457-4.884,1.272-7.165,2.394c-0.213,0.105-0.446,0.167-0.67,0.248c-0.878,0.375-1.755,0.749-2.633,1.124
	c-0.855,0.521-1.71,1.042-2.565,1.564c-0.294,0.203-0.587,0.406-0.881,0.609c-0.073,0.05-0.146,0.101-0.217,0.154
	c-0.782,0.718-1.563,1.435-2.345,2.152c-0.108-0.005-0.207,0.02-0.3,0.076c-0.286,0.211-0.573,0.422-0.859,0.632
	c-0.376,0.377-0.752,0.754-1.128,1.13c-0.328,0.541-0.657,1.082-0.985,1.622c-0.3,0.586-0.601,1.172-0.901,1.757
	c-0.615,1.51-1.231,3.019-1.846,4.529c-0.456,1.026-0.912,2.052-1.367,3.078c-0.076,0.188-0.152,0.375-0.229,0.563
	c-0.254,1.239-0.255,2.57-1.286,3.525c-1.049,0.713-2.098,1.426-3.147,2.139c-0.37,0.255-0.739,0.51-1.108,0.765
	c-0.25,0.246-0.5,0.492-0.751,0.738c-0.324,0.42-0.648,0.84-0.971,1.26c-0.53,0.851-1.059,1.703-1.589,2.554
	c-0.221,0.267-0.442,0.534-0.662,0.801c-0.089,0.083-0.124,0.184-0.105,0.304c-0.438,0.659-0.875,1.317-1.313,1.976
	c-0.087,0.189-0.173,0.378-0.26,0.567c-0.199,1.147-0.378,2.302-1.321,3.134c-0.116,0.081-0.149,0.188-0.097,0.32
	c0.206,0.691-0.118,1.165-0.64,1.557c-0.12,0.082-0.154,0.191-0.1,0.326c-0.302,1.154-0.605,2.308-0.907,3.463
	c-0.226,2.464-0.452,4.929-0.678,7.393c-0.111,0.376-0.223,0.752-0.334,1.128c0.24,5.082,0.326,10.156-0.321,15.224
	c-0.163,1.278,0.004,2.598,0.019,3.899c0.613,2.252,1.226,4.504,1.838,6.756c0.137,0.496,0.274,0.992,0.411,1.488
	c0.373,0.989,0.747,1.978,1.12,2.968c0,0-0.01,0.018-0.01,0.018c0.885,0.366,1.77,0.732,2.654,1.098
	c0.221,0.024,0.443,0.047,0.664,0.071c0.156,0.075,0.311,0.149,0.467,0.224c0,0-0.025,0.107-0.025,0.107
	c0.969-0.068,1.939-0.136,2.908-0.203c0.667-0.109,1.407-1.086,1.961,0.163c1.233-0.364,2.466-0.727,3.699-1.091
	c0.405-0.34,0.81-0.68,1.215-1.02c1.075-1.097,1.425-2.54,1.716-3.953c0.157-0.764,0.316-1.208,1.143-1.418
	c1.044-0.265,2.07-0.658,3.047-1.117c3.474-1.63,7.026-3.055,10.702-4.155c2.497-0.748,4.98-1.645,7.537-2.049
	c1.687-0.267,3.13,0.795,3.936,2.435c0.683,0.635,0.983,1.377,0.64,2.298c-0.03,0.873,0.035,1.761-0.107,2.616
	c-0.709,4.25,0.145,8.325,1.282,12.377c0.37,0.753,0.74,1.506,1.11,2.259c0.206,0.452,0.412,0.904,0.619,1.356
	c0.153,0.312,0.307,0.625,0.46,0.937c0.156,0.219,0.312,0.439,0.467,0.658c0.115,0.137,0.23,0.273,0.344,0.41
	c0.862,1.531,2.033,2.716,3.686,3.396c3.559,1.465,7.081,3.036,10.898,3.749c0.124-0.056,0.248-0.111,0.372-0.167
	c0.132-0.038,0.265-0.075,0.397-0.113c1.243,0.066,2.486,0.181,3.73,0.19c2.983,0.023,5.967-0.004,8.95-0.011
	c0,0,0.014-0.027,0.013-0.027c1.607-0.365,3.215-0.73,4.822-1.095c2.568-1.408,4.683-3.29,6.138-5.864
	c0.567-1.996,1.527-3.775,2.923-5.315c1.129-3.109,2.249-6.221,3.394-9.324c0.332-0.899,0.738-1.771,1.111-2.655
	c0.07-0.156,0.139-0.312,0.209-0.469c0.413-0.365,0.826-0.73,1.24-1.095c0.157-0.088,0.314-0.176,0.471-0.264
	c0.102-0.026,0.206-0.049,0.309-0.068c0.236-0.151,0.473-0.302,0.709-0.453c0.911-0.46,1.829-0.492,2.755-0.042
	c0.335,0.177,0.67,0.354,1.004,0.531c0.263,0.251,0.526,0.502,0.79,0.753c0.099,0.125,0.197,0.249,0.296,0.374
	c0.127,0.741,0.254,1.482,0.382,2.223c0.151,0.378,0.301,0.755,0.452,1.133c0.127,0.75,0.255,1.5,0.382,2.25
	c0.017,0.248,0.034,0.495,0.051,0.743c0.073,0.583,0.146,1.166,0.219,1.749c0.153,0.42,0.305,0.84,0.458,1.26
	c1.09,4.182,2.828,8.024,6.224,10.846c2.335,1.94,4.863,3.657,7.683,4.831c1.811,0.754,3.709,1.298,5.568,1.936
	c0.986,0.049,1.975,0.066,2.958,0.153c2.288,0.203,4.571,0.486,6.862,0.643c1.222,0.083,2.458-0.03,3.688-0.054
	c2.487-0.558,3.861-2.446,5.159-4.387c2.53-3.782,4.039-7.948,4.532-12.477c0.033-0.25,0.066-0.499,0.099-0.749
	c0.202-1.501,0.404-3.002,0.606-4.504c-0.377-0.747-0.425-1.418,0.43-1.883c0.468-1.311,1.319-2.278,2.639-2.739
	c0.749-0.262,1.099-0.892,1.129-1.49c0.095-1.853,0.092-3.719-0.02-5.571c-0.05-0.826-0.348-1.713-1.447-1.835
	c-1.388-0.235-2.776-0.47-4.164-0.704c-1.845-0.402-3.691-0.803-5.536-1.205c-1.369-0.13-2.737-0.26-4.106-0.39
	c-5.167,0.027-10.335,0.056-15.502,0.069c-0.228,0.001-0.457-0.16-0.685-0.246c-1.502-0.004-3.004-0.008-4.506-0.012
	c-0.883,0.076-1.767,0.151-2.651,0.227c-0.227,0.036-0.453,0.073-0.68,0.109c-0.406,0.08-0.812,0.16-1.219,0.24
	c-0.575,0.19-1.14,0.421-1.727,0.563c-1.506,0.363-3.022,0.685-4.534,1.024c-2.714,0.69-5.456,0.441-8.195,0.236
	c-0.142-0.011-0.269-0.219-0.403-0.335c-3.146-1.177-5.935-2.987-8.664-4.902c-0.741-0.125-1.482-0.251-2.224-0.376
	c-0.989-0.222-1.978-0.444-2.966-0.667c-1.009-0.115-2.018-0.23-3.028-0.345c0.014-0.149,0.027-0.299,0.041-0.448
	c1.359,0.103,2.718,0.205,4.077,0.308c1.375,0.059,2.75,0.119,4.125,0.178c1.049-0.615,0.951-1.465,0.461-2.371
	c-0.261-0.483-0.573-0.939-0.862-1.407c-0.354-0.397-0.708-0.793-1.062-1.19c-0.243-0.257-0.485-0.514-0.728-0.772
	c-0.608-0.085-1.218-0.253-1.825-0.242c-4.178,0.076-8.354,0.19-12.532,0.292c-2.818,0.039-5.508,0.843-8.243,1.383
	c-0.355,0.07-0.716,0.109-1.074,0.163C213.363,82.736,212.229,82.976,211.096,83.215z M290.89,124.825
	c-0.128,0.123-0.256,0.247-0.385,0.37c-0.739,0.247-1.478,0.495-2.218,0.742c-2.126,0.127-4.252,0.255-6.379,0.382
	c-1.506-0.239-3.012-0.478-4.518-0.717c-0.596-0.157-1.193-0.314-1.789-0.471c-0.414-0.211-0.827-0.422-1.241-0.634
	c-0.086-0.036-0.173-0.072-0.259-0.107c-1.055-0.176-2.083-0.407-2.749-1.367c-2.338-1.038-4.234-2.728-6.253-4.237
	c-0.293-0.208-0.586-0.416-0.879-0.624c-0.49-0.508-0.979-1.015-1.469-1.523c-0.215-0.408-0.429-0.816-0.644-1.225
	c-2.805-4.099-3.641-8.694-3.338-13.549c0.109-1.739,0.604-3.474,2.042-4.531c1.451-1.067,3.109-1.895,4.97-2.118
	c0.408-0.233,0.792-0.584,1.23-0.673c0.783-0.159,1.598-0.161,2.4-0.229c1.797-0.187,3.594-0.374,5.391-0.561
	c1.371-0.004,2.742-0.008,4.112-0.012c0.232-0.04,0.464-0.081,0.696-0.121c0.466-0.1,0.931-0.278,1.399-0.286
	c2.028-0.035,4.057-0.036,6.085-0.011c0.409,0.005,0.815,0.176,1.222,0.27c0.22,0.01,0.44,0.021,0.66,0.031
	c0.647,0.019,1.294,0.037,1.942,0.056c0.252,0.136,0.504,0.273,0.757,0.409c2.52-0.296,4.247,1.249,6.021,2.64
	c0.607,0.476,0.529,1.262-0.068,1.559c-1.768,0.88-3,2.594-5.054,3.047c-1.46,0.322-2.858,0.926-4.284,1.404
	c-0.485,0.145-0.969,0.29-1.454,0.435c-0.1,0.667-0.2,1.335-0.3,2.002c0.02,0.469,0.039,0.937,0.059,1.406
	c0,0,0.054,0.077,0.054,0.077c0.529-0.067,1.058-0.133,1.587-0.2c0.127-0.038,0.253-0.077,0.38-0.115
	c0.25-0.086,0.499-0.173,0.749-0.259c0.125-0.037,0.25-0.074,0.375-0.111c0.248-0.089,0.497-0.178,0.745-0.267
	c0.126-0.04,0.252-0.081,0.378-0.121c0.259-0.078,0.518-0.156,0.777-0.233c1.346-0.402,2.691-0.805,4.037-1.207
	c0.557-0.757,1.051-0.741,1.474,0.121c-0.13,1.972-0.26,3.943-0.39,5.915c-0.067,0.157-0.134,0.315-0.2,0.472
	c-0.133,0.846-0.346,1.688-0.384,2.538c-0.15,3.302-1.225,6.277-3.037,9.01c-0.121,0.132-0.241,0.263-0.362,0.395l0-0.001
	c-0.125,0.125-0.249,0.25-0.374,0.375c-0.398,0.475-0.797,0.95-1.195,1.425c-0.107,0.144-0.214,0.287-0.322,0.431L290.89,124.825z
	 M236.214,118.836c-0.135,0.114-0.271,0.228-0.406,0.342l-0.002,0.003c-0.215,0.283-0.429,0.566-0.644,0.849
	c-0.375,0.374-0.75,0.748-1.126,1.122c-0.275,0.226-0.55,0.452-0.825,0.678c-0.371,0.25-0.741,0.5-1.112,0.75
	c-1.001,0.289-2.001,0.578-3.002,0.868c-0.633,0.076-1.266,0.151-1.899,0.227c-3.022,0.013-6.044,0.055-9.066,0.021
	c-0.968-0.011-1.934-0.223-2.9-0.343c-3.612-0.802-7.092-1.939-10.183-4.053c-0.348-0.238-0.796-0.415-1.014-0.743
	c-2.264-3.402-3.536-7.183-4.278-11.181c-0.566-3.053-0.053-6.096-0.021-9.138c0.015-1.381,0.578-2.756,0.892-4.133
	c0.117-0.257,0.234-0.513,0.351-0.77c-0.006-0.118,0.005-0.234,0.034-0.349c0.088-0.15,0.176-0.3,0.264-0.45
	c0.297-0.342,0.594-0.683,0.891-1.025c0.222-0.772,0.645-1.338,1.497-1.468c0.621-0.372,1.241-0.745,1.862-1.117
	c0.785-0.78,1.744-0.369,2.64-0.387c3.101-0.069,6.202-0.138,9.303-0.208c0.135-0.002,0.27-0.004,0.405-0.006
	c1.488,0.067,2.975,0.133,4.463,0.2c0.882,0.108,1.764,0.215,2.646,0.323l-0.014,0.014c0.99,0.011,1.981,0.022,2.971,0.033
	c0.264,0.055,0.528,0.11,0.792,0.165c0.754,0.181,1.508,0.362,2.262,0.543c0.902,0.142,1.804,0.286,2.706,0.427
	c3.483,0.543,6.221,2.169,7.853,5.403c0.51,0.116,0.801,0.367,0.579,0.935c0.006,2.247,0.011,4.495,0.017,6.742
	c0.242,0.489,0.117,1.333-0.33,2.228c-0.126,0.627-0.251,1.254-0.377,1.881c-0.633,1.862-1.267,3.725-1.9,5.587
	c-0.417,0.802-0.834,1.604-1.251,2.406c-0.341,0.688-0.682,1.375-1.024,2.063c-0.2,0.292-0.4,0.583-0.601,0.875
	c-0.072,0.084-0.105,0.182-0.1,0.293c-0.118,0.132-0.236,0.264-0.354,0.396L236.214,118.836z"/>
<path class="st1" d="M282.328,172.041c0.058-0.96,0.117-1.921,0.175-2.881c0.087-0.663,0.174-1.325,0.261-1.988
	c0.04-0.211,0.08-0.422,0.12-0.633c-0.29-0.682-0.207-1.253,0.488-1.643c0.138-0.741,0.277-1.482,0.415-2.223
	c0.018-0.249,0.037-0.497,0.055-0.746c0.051-0.46,0.102-0.92,0.153-1.38c-0.241-0.823,0.262-1.272,0.844-1.682
	c0.292-0.33,0.585-0.661,0.877-0.991c0.496-0.648,0.992-1.296,1.489-1.944c0.104-0.692,0.167-1.368-0.685-1.667
	c-0.531,0.074-1.062,0.149-1.593,0.223c-0.635,0.106-1.271,0.213-1.906,0.319c-1.884,0.608-3.795,0.527-5.712,0.209
	c-0.092-0.015-0.16-0.171-0.24-0.261c-0.368-0.159-0.734-0.324-1.106-0.476c-1.802-0.737-3.129-2.007-4.074-3.682
	c-1.816-3.218-4.727-5.082-7.998-6.491c-0.587-0.253-1.244-0.343-1.868-0.509c-0.87,0.083-1.741,0.165-2.612,0.248
	c0,0-0.015,0.053-0.016,0.053c-0.961,0.411-1.921,0.823-2.881,1.234c-0.147,0.085-0.293,0.171-0.44,0.256
	c-0.378,0.022-0.756,0.043-1.135,0.065c-1.369,0.476-2.735,0.79-4.085-0.059c-0.04-0.097-0.068-0.198-0.083-0.302
	c-1.466-0.527-2.932-1.054-4.398-1.582c-2.288-0.4-4.576-0.551-6.867-0.022c-0.346,0.031-0.693,0.061-1.04,0.092
	c-1.254,0.245-2.509,0.49-3.763,0.735c-1.123,0.252-2.246,0.504-3.368,0.756c-0.252,0.117-0.505,0.235-0.758,0.352
	c-1.019,0.339-2.037,0.679-3.056,1.018c-0.096,0.038-0.188,0.083-0.277,0.134c-0.757,0.37-1.515,0.74-2.272,1.111
	c-2.304,0.979-3.973,2.502-4.979,4.903c-0.436,1.042-1.649,1.758-2.509,2.622c-0.873,0.534-1.753,0.549-2.638,0.031
	c-1.443-0.716-2.917-1.376-4.318-2.167c-1.1-0.622-2.158-0.713-3.293-0.216c-0.092,0.135-0.185,0.27-0.278,0.405
	c-0.034,0.389-0.068,0.779-0.103,1.168c0.733,0.919,1.564,1.793,1.4,3.115c-0.005,0.667-0.01,1.334-0.015,2.001
	c0.172,0.715-0.151,1.122-0.816,1.317c-0.509,0.488-1.017,0.977-1.526,1.465c-0.128,0.121-0.255,0.243-0.382,0.364
	c0,0,0,0.003,0,0.003c-0.138,0.112-0.277,0.224-0.415,0.335c-1.491,0.632-2.982,1.265-4.473,1.897
	c-0.755,0.235-1.509,0.47-2.264,0.705c-2.375,0.739-4.763,0.528-7.154,0.098c-0.48-0.145-0.961-0.291-1.441-0.436
	c-2.218-0.218-4.036-1.431-5.945-2.408c-0.531-0.272-0.992-0.682-1.485-1.029c-0.293-0.209-0.585-0.417-0.878-0.626
	c-0.205-0.165-0.411-0.329-0.617-0.494c-1.24-0.512-2.122-1.38-2.621-2.63c-0.163-0.21-0.325-0.42-0.488-0.63
	c-0.335-0.411-0.67-0.822-1.005-1.232c-0.887-1.564-1.838-3.096-2.634-4.704c-0.415-0.839-0.56-1.811-0.827-2.724
	c-0.587-0.779-1.021-1.817-1.797-2.278c-1.244-0.739-1.813-1.786-2.235-3.033c-0.125-0.155-0.249-0.31-0.374-0.465
	c-1.042,0.14-2.084,0.281-3.127,0.421c0,0-0.046,0.044-0.046,0.044c-0.155,0.314-0.311,0.627-0.466,0.941
	c0.104,5.61,0.204,11.22,0.318,16.83c0.014,0.684,0.099,1.366,0.151,2.049c0.519,0.736,0.587,1.515,0.216,2.334
	c0.042,0.223,0.085,0.445,0.127,0.667c0.168,0.406,0.336,0.812,0.504,1.219c0.584,1.649,1.042,3.357,1.777,4.937
	c1.737,3.735,3.541,7.444,5.443,11.097c1.407,2.701,2.977,5.32,4.544,7.933c0.767,1.28,1.693,2.464,2.548,3.692
	c0.336,0.414,0.671,0.827,1.007,1.24c1.782,1.835,3.564,3.671,5.346,5.506c0.336,0.416,0.672,0.832,1.009,1.248
	c0.624,0.618,1.248,1.237,1.872,1.856c0.539,0.465,1.077,0.931,1.616,1.396c0.203,0.168,0.406,0.336,0.609,0.504
	c0.544,0.46,1.087,0.919,1.631,1.379c0.205,0.166,0.409,0.332,0.614,0.498c0.304,0.189,0.609,0.378,0.913,0.568
	c3.677,2.81,7.62,5.21,11.628,7.508c0.227,0.138,0.453,0.276,0.68,0.414c0,0,0.019,0.009,0.019,0.009
	c0.136,0.064,0.273,0.127,0.409,0.191c0.106,0.065,0.216,0.124,0.329,0.178c0.903,0.442,1.806,0.884,2.709,1.327
	c0.098,0.058,0.199,0.111,0.303,0.158c0.359,0.137,0.717,0.275,1.076,0.412c3.118,1.311,6.24,2.613,9.354,3.934
	c3.015,1.279,6.005,2.619,9.043,3.84c0.893,0.359,1.911,0.406,2.872,0.596c1.125,0.11,2.25,0.219,3.374,0.329
	c0.149,0.043,0.299,0.087,0.448,0.13c2.361,0.013,4.722,0.027,7.084,0.04c0.411-0.301,0.808-0.412,1.159,0.086
	c0.715-0.101,1.448-0.133,2.143-0.313c3.79-0.985,7.619-1.859,11.336-3.074c1.981-0.647,3.762-1.905,5.633-2.888
	c0.387-0.361,0.774-0.721,1.161-1.082c0.25-0.256,0.499-0.511,0.749-0.767c0.229-0.265,0.458-0.53,0.688-0.795
	c0.273-0.48,0.545-0.961,0.818-1.441c0.546-1.409,1.06-2.832,1.656-4.219c0.179-0.416,0.589-0.732,0.892-1.094
	c0.253-0.757,0.413-1.562,0.776-2.261c1.153-2.217,1.726-4.606,2.236-7.021c0.112-0.528,0.235-1.054,0.353-1.581
	c-0.387-0.455-0.312-0.859,0.132-1.224c0.057-0.343,0.115-0.686,0.172-1.03c-0.354-0.476-0.168-0.713,0.353-0.803
	c0.113-1.071,0.227-2.142,0.34-3.213c-0.395-0.641,0.207-0.874,0.503-1.232c0.184-0.889,0.323-1.79,0.561-2.665
	c0.541-1.988,1.131-3.963,1.701-5.943c-0.23-1.133,0.27-1.952,1.129-2.615c0.991-3.375,1.983-6.751,2.974-10.126
	C282.288,172.79,282.308,172.416,282.328,172.041z M250.86,154.005l0.007,0.008c0.221,0.279,0.442,0.558,0.662,0.837
	c0.749,0.752,1.498,1.505,2.247,2.257c0.15,0.089,0.301,0.178,0.451,0.267c0.586,0.294,1.172,0.588,1.758,0.883
	c0.642,0.113,1.285,0.227,1.927,0.34c0.767,0.171,1.534,0.343,2.302,0.514c1.868,0.072,3.737,0.145,5.605,0.217
	c0.115-0.024,0.231-0.034,0.348-0.029c0.784-0.905,1.663-1.248,2.733-0.463c0.091,0.023,0.169,0.069,0.233,0.137
	c0.155,0.092,0.309,0.184,0.464,0.276c1.125,0.548,1.556,1.7,2.271,2.605c0.329,0.474,0.793,0.908,0.95,1.433
	c0.159,0.528,0.535,1.294-0.416,1.611c-0.086,0.501-0.172,1.003-0.258,1.504c-0.149,0.379-0.299,0.758-0.448,1.137
	c-0.093,0.752-0.185,1.504-0.278,2.256c-0.371,0.998-0.743,1.995-1.114,2.993c-0.621,1.369-1.171,2.777-1.887,4.095
	c-0.512,0.942-1.246,1.763-1.881,2.638c-0.346,0.403-0.692,0.807-1.037,1.21c-0.51,0.485-1.02,0.971-1.53,1.456
	c-0.266,0.241-0.532,0.481-0.798,0.722c-0.541,0.257-1.081,0.514-1.772,0.842c-0.3-0.573-0.647-1.069-0.829-1.619
	c-0.32-0.967-0.54-1.968-0.802-2.955c-0.64-0.234-0.988-0.549-0.315-1.144c0.075-1.448,0.151-2.896,0.226-4.343
	c0.105-0.455,0.21-0.909,0.315-1.364c0.042-1.081,0.084-2.163,0.126-3.244c-0.78-0.618-1.611-0.936-2.579-0.434
	c-0.236,0.019-0.471,0.037-0.707,0.056c-2.124,0.317-4.249,0.633-6.373,0.95c-3.654,0.021-7.309,0.047-10.963,0.052
	c-0.23,0-0.46-0.161-0.69-0.248c-0.985-0.375-1.97-0.751-2.955-1.126c-0.537,0.073-1.075,0.147-1.612,0.22
	c-0.169,0.234-0.338,0.469-0.507,0.703c0.201,0.553,0.402,1.107,0.603,1.66c2.56,3.249,3.727,6.785,2.245,10.87
	c-0.255,0.903-0.464,1.834-1.412,2.314c-0.066,0.093-0.093,0.197-0.081,0.31c-0.22,0.273-0.44,0.546-0.66,0.819
	c-0.069,0.09-0.098,0.191-0.088,0.304c-0.239,0.264-0.478,0.528-0.717,0.792c-0.434,0.453-0.868,0.906-1.302,1.359
	c-0.099,0.132-0.197,0.265-0.296,0.397c-0.602,0.278-1.204,0.556-1.806,0.833c-1.494,0.557-2.987,0.636-4.478-0.011
	c0,0,0.008-0.125,0.008-0.125c-0.138,0.018-0.276,0.037-0.414,0.055c-2.27,0.088-4.215-0.973-6.166-1.88
	c-1.149-0.534-2.128-1.437-3.183-2.174c-0.11-0.133-0.221-0.266-0.331-0.399c-0.165-0.216-0.33-0.432-0.496-0.649
	c-0.148-0.308-0.297-0.616-0.446-0.923c-0.089-0.328-0.178-0.656-0.267-0.983c-0.329-0.532-0.658-1.065-0.987-1.597
	c-0.566-2.578-1.274-5.139-0.971-7.826c-0.385-0.76-0.37-1.422,0.463-1.882c0.104-0.53,0.161-1.075,0.322-1.586
	c0.502-1.594,1.044-3.176,1.571-4.762c0.045-0.291,0.089-0.583,0.134-0.874c0.054-0.459,0.108-0.918,0.162-1.377
	c0.153-0.257,0.307-0.513,0.46-0.77c0.047-0.074,0.113-0.1,0.198-0.076c0.259-0.018,0.518-0.035,0.777-0.053
	c0.911,0.074,1.823,0.147,2.734,0.221c0.767,0.067,1.535,0.134,2.302,0.2c2.611-0.014,5.222-0.028,7.833-0.042
	c0.154-0.043,0.309-0.086,0.463-0.13c1.604-0.024,3.208-0.047,4.812-0.071c4.506-0.644,8.602-2.322,12.334-4.912
	c0.272-0.232,0.544-0.464,0.816-0.696c0.336-0.282,0.673-0.563,1.009-0.845c0.293-0.212,0.586-0.425,0.879-0.637
	c0.077-0.045,0.153-0.091,0.228-0.138C250.463,153.361,250.484,153.362,250.86,154.005z"/>
<path class="st1" d="M262.586,88.673c0.081,0.159,0.162,0.318,0.243,0.476c1.361-0.009,2.722-0.019,4.083-0.028
	c0.393-0.065,0.786-0.13,1.179-0.195c2.219-0.001,4.439-0.002,6.658-0.004c2.792-0.001,5.584-0.01,8.376,0.009
	c0.353,0.002,0.704,0.159,1.057,0.244c0.859,0.025,1.718,0.051,2.577,0.076c1.314-0.001,2.629-0.001,3.944-0.002
	c-0.029-0.176-0.059-0.353-0.088-0.528c-0.139-0.206-0.278-0.412-0.417-0.619c0,0-0.064-0.02-0.064-0.019
	c-0.122-0.1-0.245-0.2-0.368-0.3c-0.747-0.739-1.431-1.559-2.258-2.193c-0.838-0.642-1.832-1.05-2.954-0.876
	c-0.89-0.095-1.779-0.19-2.669-0.285c-0.36-0.039-0.719-0.078-1.079-0.117c-0.773-0.078-1.546-0.156-2.319-0.235
	c-2.625-0.144-5.25-0.289-7.874-0.433c-0.339-0.024-0.679-0.048-1.019-0.072c-1.771,0.014-3.541,0.028-5.312,0.042
	c-0.87,0.839-1.604,1.758-1.787,3.006C262.525,87.305,262.556,87.989,262.586,88.673z"/>
<path class="st1" d="M178.869,90.675c-1.661,0.762-3.321,1.528-4.985,2.284c-0.836,0.38-1.701,0.7-2.51,1.128
	c-0.389,0.206-0.679,0.6-1.154,1.038c1.841,0.109,5.974-1.553,9.433-3.665C179.391,91.199,179.13,90.937,178.869,90.675z"/>
<path class="st1" d="M273.488,408.757c-1.281,0.063-2.563,0.126-3.844,0.189c-0.164,0.029-0.327,0.059-0.49,0.089
	c-4.477,0.208-8.955,0.417-13.432,0.625c-0.01,0.088-0.036,0.171-0.077,0.249c0.145,0.048,0.29,0.096,0.434,0.144
	c5.64-0.298,11.28-0.59,16.919-0.901c0.739-0.041,1.473-0.183,2.209-0.278C274.634,408.835,274.061,408.796,273.488,408.757z"/>
<path class="st1" d="M212.626,405.857c-0.67-0.129-1.337-0.353-2.009-0.372c-4.484-0.129-8.972-0.228-13.429,0.435
	c-0.502,0.075-0.961,0.439-1.44,0.669c5.176-0.948,10.397-0.822,15.62-0.655C211.786,405.947,212.207,405.884,212.626,405.857z"/>
<path class="st1" d="M336.215,407.14c-1.728,0.045-3.456,0.112-5.184,0.13c-4.265,0.044-8.53,0.065-12.795,0.095
	c-0.03,0.097-0.061,0.194-0.094,0.29c1.603,0.022,3.206,0.06,4.809,0.063c3.834,0.007,7.669,0.016,11.503-0.02
	c0.717-0.007,1.431-0.219,2.147-0.336C336.472,407.288,336.344,407.214,336.215,407.14z"/>
<path class="st1" d="M272.914,90.843c0.228,0.086,0.457,0.246,0.685,0.246c5.167-0.012,10.335-0.042,15.502-0.068
	c-0.048-0.097-0.076-0.2-0.084-0.308c-0.24-0.034-0.48-0.068-0.719-0.102c-2.265-0.002-4.53-0.004-6.795-0.007
	c-0.73,0-1.461,0-2.191-0.001c-0.394-0.001-0.789-0.001-1.184-0.002c-1.105,0.001-2.21,0.002-3.314,0.004
	c-0.628,0.02-1.255,0.039-1.883,0.059C272.931,90.663,272.914,90.843,272.914,90.843z"/>
<path class="st1" d="M289.779,128.952c-1.23,0.025-2.466,0.138-3.688,0.054c-2.291-0.156-4.573-0.44-6.862-0.643
	c-0.983-0.087-1.972-0.104-2.958-0.153c3.803,0.837,7.637,1.387,11.543,1.153C288.475,129.324,289.125,129.094,289.779,128.952z"/>
<path class="st1" d="M223.814,80.951c4.177-0.102,8.354-0.216,12.532-0.292c0.607-0.011,1.216,0.157,1.825,0.242
	c-0.593-0.231-1.184-0.655-1.779-0.662c-3.657-0.041-7.315,0.007-10.972,0.041C224.807,80.285,224.151,80.256,223.814,80.951z"/>
<path class="st1" d="M309.979,407.961c-2.43,0.003-4.86-0.015-7.289,0.013c-2.307,0.027-4.614,0.102-6.921,0.157
	c-0.003,0.099-0.011,0.198-0.025,0.296c4.543,0.008,9.087,0.025,13.63,0.013c0.485-0.001,0.97-0.17,1.455-0.261
	c-0.177-0.043-0.354-0.086-0.53-0.129C310.185,408.047,310.078,408.017,309.979,407.961z"/>
<path class="st1" d="M228.667,126.254c-2.983,0.007-5.967,0.033-8.95,0.011c-1.244-0.009-2.487-0.124-3.73-0.19
	c-0.132,0.038-0.265,0.075-0.397,0.113c-0.124,0.056-0.248,0.111-0.372,0.167c0.359,0.085,0.717,0.241,1.077,0.244
	c3.6,0.035,7.201,0.061,10.801,0.043C227.62,126.638,228.143,126.389,228.667,126.254z"/>
<path class="st1" d="M232.119,45.011c-0.367-0.177-0.734-0.353-1.102-0.53c-3.779,0.001-7.557,0.002-11.336,0.003
	c-0.626,0.17-1.253,0.341-1.879,0.511C222.575,45,227.347,45.005,232.119,45.011z"/>
<path class="st1" d="M169.242,143.505c0.422,1.247,0.991,2.293,2.235,3.033c0.776,0.461,1.21,1.499,1.797,2.278
	c-0.428-1.348-0.872-2.651-2.347-3.296c-0.384-0.168-0.581-0.748-0.884-1.122C169.791,144.088,169.51,143.802,169.242,143.505z"/>
<path class="st1" d="M286.758,89.253c-0.859-0.025-1.718-0.051-2.577-0.076c-3.117-0.004-6.233-0.009-9.35-0.013
	c-0.151,0.048-0.302,0.097-0.453,0.145c0.226,0.087,0.452,0.25,0.678,0.251c3.939,0.001,7.879-0.018,11.818-0.032
	C286.826,89.439,286.787,89.348,286.758,89.253z"/>
<path class="st1" d="M211.475,15.777c2.131-0.871,4.262-1.741,6.393-2.612C216.751,13.137,212.15,15.016,211.475,15.777z"/>
<path class="st1" d="M152.673,102.733c-0.613-2.252-1.226-4.504-1.838-6.756C150.539,98.063,151.508,101.622,152.673,102.733z"/>
<path class="st1" d="M207.705,265.745c1.404,1.35,2.809,2.701,4.213,4.051C210.514,268.446,209.11,267.095,207.705,265.745z"/>
<path class="st1" d="M190.496,23.268c2.66-0.132,5.321-0.256,7.98-0.407c0.227-0.013,0.443-0.2,0.665-0.306
	c-2.457,0.036-4.915,0.044-7.369,0.135C191.34,22.705,190.921,23.067,190.496,23.268z"/>
<path class="st1" d="M257.598,92.993c1.512-0.339,3.028-0.661,4.534-1.024c0.587-0.141,1.152-0.373,1.727-0.563
	c0.019-0.101,0.036-0.202,0.051-0.304c-2.264,0.565-4.528,1.13-6.793,1.695C257.277,92.863,257.438,92.928,257.598,92.993z"/>
<path class="st1" d="M242.563,113.953c-1.396,1.539-2.356,3.319-2.923,5.315C240.615,117.497,241.589,115.725,242.563,113.953z"/>
<path class="st1" d="M166.213,211.006c-0.098,0.134-0.31,0.316-0.277,0.394c0.755,1.776,1.536,3.541,2.312,5.308
	C167.57,214.807,166.892,212.906,166.213,211.006z"/>
<path class="st1" d="M271.036,212.879c-0.304,0.362-0.714,0.678-0.892,1.094c-0.597,1.387-1.111,2.81-1.656,4.219
	C269.337,216.421,270.186,214.65,271.036,212.879z"/>
<path class="st1" d="M200.266,50.626c-1.51-0.127-3.499,0.532-4.523,1.499C197.251,51.626,198.758,51.126,200.266,50.626z"/>
<path class="st1" d="M257.598,92.993c-0.16-0.065-0.32-0.13-0.48-0.196c-2.706,0.032-5.411,0.064-8.117,0.096
	c0.134,0.116,0.261,0.325,0.403,0.335C252.142,93.434,254.884,93.683,257.598,92.993z"/>
<path class="st1" d="M295.744,408.427c0.013-0.098,0.021-0.197,0.025-0.296c-2.857,0.003-5.715,0.006-8.572,0.009
	c-0.034,0.093-0.091,0.171-0.168,0.233c0.186,0.053,0.373,0.107,0.559,0.161C290.306,408.498,293.025,408.462,295.744,408.427z"/>
<path class="st1" d="M270.612,83.645c2.625,0.144,5.25,0.289,7.874,0.433c0.29-0.041,0.58-0.082,0.87-0.124
	c-1.646-0.132-3.291-0.271-4.938-0.392c-0.735-0.054-1.473-0.074-2.209-0.109C271.677,83.517,271.145,83.581,270.612,83.645z"/>
<path class="st1" d="M168.003,41.261c0.615-1.51,1.231-3.019,1.846-4.529c-1.122,1.323-1.636,2.938-2.175,4.54
	C167.783,41.267,167.893,41.264,168.003,41.261z"/>
<path class="st1" d="M244.801,228.465c-2.361-0.013-4.722-0.027-7.084-0.04c-0.102,0.072-0.216,0.107-0.341,0.104
	c-0.025,0.068-0.055,0.135-0.088,0.199c2.779,0.47,5.555,0.545,8.322-0.087C245.341,228.583,245.071,228.524,244.801,228.465z"/>
<path class="st1" d="M287.504,75.727c-0.216,0.19-0.585,0.355-0.622,0.576c-0.204,1.22-1.058,1.644-2.109,1.874
	c1.183,0.414,1.772,0.266,2.215-0.689C287.243,76.939,287.337,76.316,287.504,75.727z"/>
<path class="st1" d="M239.51,143.485c2.291-0.529,4.579-0.377,6.867,0.022c-0.23-0.169-0.456-0.477-0.692-0.485
	c-1.84-0.063-3.681-0.088-5.522-0.067C239.944,142.957,239.728,143.3,239.51,143.485z"/>
<path class="st1" d="M240.362,86.64c-1.375-0.059-2.75-0.119-4.125-0.178c-0.363,0.162-0.727,0.324-1.09,0.485
	c0.989,0.222,1.978,0.444,2.967,0.667c0.083-0.201,0.149-0.565,0.25-0.575c0.532-0.051,1.072-0.013,1.61-0.006
	C240.102,86.902,240.232,86.771,240.362,86.64z"/>
<path class="st1" d="M287.588,408.533c-0.186-0.054-0.373-0.107-0.559-0.16c-0.21-0.037-0.42-0.074-0.63-0.111
	c-2.244,0.078-4.489,0.156-6.733,0.234c-0.01,0.098-0.027,0.195-0.051,0.29C282.272,408.702,284.93,408.618,287.588,408.533z"/>
<path class="st1" d="M217.12,45.022c-1.315,0.117-2.636,0.188-3.94,0.381c-0.346,0.051-0.636,0.479-0.952,0.734
	C213.858,45.765,215.489,45.393,217.12,45.022z"/>
<path class="st1" d="M256.079,410.053c-0.145-0.048-0.29-0.096-0.434-0.144c-1.251-0.023-2.501-0.047-3.752-0.07
	c-1.101,0.054-2.203,0.108-3.304,0.162c-0.023,0.097-0.059,0.19-0.107,0.278C251.014,410.203,253.547,410.128,256.079,410.053z"/>
<path class="st1" d="M178.228,158.107c0.498,1.251,1.381,2.118,2.621,2.63C179.975,159.86,179.102,158.983,178.228,158.107z"/>
<path class="st1" d="M236.651,46.444c-1.21-1.067-2.706-1.264-4.225-1.387C233.834,45.52,235.243,45.982,236.651,46.444z"/>
<path class="st1" d="M279.325,32.978c0.873,0.881,1.746,1.763,2.619,2.644C281.071,34.74,280.198,33.859,279.325,32.978z"/>
<path class="st1" d="M156.419,209.887c0.502-1.252,1.004-2.505,1.506-3.757C156.651,207.072,156.608,208.509,156.419,209.887z"/>
<path class="st1" d="M233.503,125.132c-1.607,0.365-3.215,0.73-4.822,1.095C230.435,126.509,232.06,126.222,233.503,125.132z"/>
<path class="st1" d="M191.214,165.73c2.391,0.43,4.779,0.641,7.154-0.098c-0.131-0.074-0.263-0.149-0.394-0.223
	c-1.974,0.04-3.948,0.08-5.921,0.12C191.773,165.596,191.494,165.663,191.214,165.73z"/>
<path class="st1" d="M243.317,46.331c-1.645,0.043-3.29,0.081-4.934,0.131c-0.483,0.015-0.964,0.065-1.446,0.1
	c2.4,0.636,4.802,0.494,7.206,0.03c-0.171-0.055-0.343-0.11-0.514-0.165C243.512,46.439,243.408,46.407,243.317,46.331z"/>
<path class="st1" d="M266.649,23.567c0.019,2.018,1.604,1.995,2.959,2.272c-0.169-0.158-0.313-0.407-0.51-0.459
	C268.035,25.096,267.285,24.415,266.649,23.567z"/>
<path class="st1" d="M152.15,68.332c0.302-1.154,0.605-2.308,0.907-3.463C152.089,65.849,152.086,67.081,152.15,68.332z"/>
<path class="st1" d="M273.286,215.501c0.989,0.765,1.978,1.531,2.967,2.296C275.51,216.714,275.011,215.314,273.286,215.501z"/>
<path class="st1" d="M274.378,89.308c0.151-0.048,0.302-0.097,0.453-0.145c-0.04-0.076-0.067-0.156-0.082-0.24
	c-2.219,0.001-4.439,0.002-6.658,0.004c-0.012,0.081-0.032,0.16-0.06,0.237c0,0-0.002,0.18-0.002,0.18
	C270.145,89.331,272.261,89.32,274.378,89.308z"/>
<path class="st1" d="M319.335,234.646c0.978,0.129,1.955,0.278,2.935,0.382c1.049,0.111,2.101,0.181,3.153,0.269
	c-0.513-0.236-1.017-0.647-1.54-0.673C322.371,234.548,320.851,234.627,319.335,234.646z"/>
<path class="st1" d="M281.503,90.604c2.265,0.002,4.53,0.004,6.795,0.007c-0.401-0.1-0.805-0.296-1.202-0.283
	C285.231,90.388,283.367,90.506,281.503,90.604z"/>
<path class="st1" d="M176.206,81.236c-0.078,1.33-0.043,2.625,1.126,3.56C176.957,83.61,176.582,82.423,176.206,81.236z"/>
<path class="st1" d="M207.298,17.616c1.15-0.478,2.299-0.957,3.449-1.435C209.294,15.931,208.293,16.765,207.298,17.616z"/>
<path class="st1" d="M299.49,230.133c1.384,0.241,2.768,0.482,4.152,0.723C302.394,229.837,300.938,230.01,299.49,230.133z"/>
<path class="st1" d="M398.128,354.668c-0.822-0.038-1.815,0.709-2.376-0.52c-0.659,0.72-0.02,1.005,0.477,1.165
	C396.969,355.551,397.698,355.477,398.128,354.668z"/>
<path class="st1" d="M275.479,28.975c0.741,0.752,1.483,1.505,2.224,2.257C277.398,30.05,276.57,29.383,275.479,28.975z"/>
<path class="st1" d="M239.592,411.464c-1.231-0.203-2.421-0.213-3.399,0.742C237.326,411.959,238.459,411.712,239.592,411.464z"/>
<path class="st1" d="M190.865,53.985c-1.319,0.061-2.506,0.413-3.345,1.526C188.634,55.003,189.75,54.494,190.865,53.985z"/>
<path class="st1" d="M174.021,31.514c0.782-0.717,1.563-1.435,2.345-2.152C175.192,29.65,174.578,30.551,174.021,31.514z"/>
<path class="st1" d="M234.707,144.313c1.254-0.245,2.509-0.49,3.763-0.735c-1.438,0.192-2.876,0.383-4.314,0.575
	C234.34,144.206,234.524,144.259,234.707,144.313z"/>
<path class="st1" d="M277.071,154.753c0.079,0.09,0.148,0.246,0.24,0.261c1.917,0.317,3.828,0.398,5.712-0.209
	c-0.256-0.063-0.512-0.125-0.767-0.188C280.527,154.662,278.799,154.708,277.071,154.753z"/>
<path class="st1" d="M304.372,230.849c1.5,0.257,3,0.514,4.5,0.771c-0.925-0.987-2.203-0.637-3.324-0.881
	C305.156,230.775,304.764,230.812,304.372,230.849z"/>
<path class="st1" d="M266.247,53.546c-0.744-1.132-2.033-1.015-3.119-1.366C263.867,53.321,265.23,53.038,266.247,53.546z"/>
<path class="st1" d="M208.259,157.544c0.164-1.322-0.667-2.196-1.4-3.115C207.326,155.468,207.792,156.506,208.259,157.544z"/>
<path class="st1" d="M153.894,62.665c0.943-0.833,1.122-1.988,1.321-3.134C154.774,60.576,154.334,61.62,153.894,62.665z"/>
<path class="st1" d="M243.629,46.426c0.171,0.055,0.343,0.11,0.514,0.165c1.841-0.04,3.682-0.08,5.523-0.12
	c0.023-0.104,0.04-0.208,0.052-0.314c-1.99,0.008-3.98,0.016-5.97,0.024C243.722,46.269,243.683,46.351,243.629,46.426z"/>
<path class="st1" d="M179.572,61.065c-0.567,1.043-1.134,2.086-1.701,3.128C178.974,63.442,179.288,62.261,179.572,61.065z"/>
<path class="st1" d="M279.613,408.787c0.025-0.095,0.042-0.192,0.051-0.29c-2.058,0.087-4.117,0.174-6.176,0.26
	c0.572,0.039,1.145,0.078,1.719,0.116C276.676,408.844,278.145,408.816,279.613,408.787z"/>
<path class="st1" d="M165.121,48.427c1.031-0.955,1.031-2.286,1.286-3.525C165.978,46.077,165.549,47.252,165.121,48.427z"/>
<path class="st1" d="M310.299,408.05c0.177,0.043,0.354,0.086,0.53,0.129c1.724-0.155,3.448-0.309,5.171-0.464
	c-0.265-0.059-0.531-0.117-0.796-0.176c-1.573,0.097-3.145,0.194-4.718,0.291C310.442,407.918,310.379,407.992,310.299,408.05z"/>
<path class="st1" d="M281.167,70.858c-0.483-0.888-0.967-1.776-1.45-2.665C280.2,69.081,280.684,69.97,281.167,70.858z"/>
<path class="st1" d="M228.693,10.536c1.377-0.259,2.753-0.519,4.13-0.778C231.376,9.648,229.951,9.649,228.693,10.536z"/>
<path class="st1" d="M298.744,92.615c1.388,0.235,2.776,0.47,4.164,0.704C301.621,92.482,300.199,92.453,298.744,92.615z"/>
<path class="st1" d="M154.204,107.189c-0.373-0.989-0.747-1.978-1.12-2.968C152.935,105.407,153.016,106.507,154.204,107.189z"/>
<path class="st1" d="M345.905,241.389c1.897,0.111,3.793,0.222,5.69,0.333c-1.465-0.161-2.93-0.322-4.395-0.482
	C346.768,241.29,346.337,241.339,345.905,241.389z"/>
<path class="st1" d="M168.003,41.261c-0.11,0.002-0.22,0.006-0.33,0.011c-0.346,1.022-0.692,2.045-1.038,3.067
	C167.091,43.314,167.547,42.288,168.003,41.261z"/>
<path class="st1" d="M211.096,83.215c1.134-0.24,2.268-0.479,3.402-0.719C213.272,82.301,212.081,82.274,211.096,83.215z"/>
<path class="st1" d="M165.742,143.462c1.042-0.14,2.084-0.281,3.127-0.421C167.821,142.361,166.777,142.502,165.742,143.462z"/>
<path class="st1" d="M239.972,87.033c-0.537-0.007-1.078-0.045-1.61,0.006c-0.101,0.01-0.167,0.374-0.25,0.575
	c0.741,0.125,1.482,0.251,2.223,0.376C240.215,87.672,240.094,87.352,239.972,87.033z"/>
<path class="st1" d="M266.911,89.121c-1.361,0.009-2.722,0.019-4.083,0.028c0.121,0.127,0.245,0.366,0.363,0.364
	c1.612-0.037,3.224-0.108,4.836-0.17c0,0,0.002-0.18,0.002-0.18C267.657,89.149,267.284,89.135,266.911,89.121z"/>
<path class="st1" d="M289.017,90.712c0.008,0.108,0.036,0.211,0.084,0.308c1.369,0.13,2.737,0.26,4.106,0.39
	c-0.348-0.194-0.682-0.519-1.047-0.558C291.12,90.743,290.066,90.751,289.017,90.712z"/>
<path class="st1" d="M264.282,83.614c1.771-0.014,3.541-0.028,5.312-0.042c-0.027-0.096-0.052-0.193-0.076-0.29
	C267.759,83.194,265.99,82.922,264.282,83.614z"/>
<path class="st1" d="M286.758,89.253c0.03,0.095,0.068,0.186,0.116,0.273c1.275,0.051,2.55,0.103,3.826,0.147
	c0.036,0.001,0.111-0.089,0.105-0.126c-0.016-0.102-0.067-0.198-0.103-0.296C289.387,89.251,288.072,89.252,286.758,89.253z"/>
<path class="st1" d="M248.481,410.279c0.048-0.088,0.084-0.181,0.107-0.278c-1.049-0.006-2.104-0.085-3.143,0.015
	c-0.484,0.047-0.934,0.44-1.399,0.677C245.524,410.554,247.003,410.417,248.481,410.279z"/>
<path class="st1" d="M279.293,183.291c-0.859,0.663-1.358,1.482-1.129,2.615C278.541,185.034,278.917,184.162,279.293,183.291z"/>
<path class="st1" d="M105.91,263.89c0.711-0.663,1.423-1.326,2.134-1.989C106.939,262.141,106.338,262.922,105.91,263.89z"/>
<path class="st1" d="M287.207,155.93c-0.496,0.648-0.992,1.296-1.489,1.944C286.471,157.423,287.224,156.971,287.207,155.93z"/>
<path class="st1" d="M418.22,348.171c-1.623,0.014-3.245,0.027-4.868,0.041c0,0.1,0.006,0.2,0.019,0.299
	c1.634-0.017,3.267-0.033,4.901-0.05C418.257,348.363,418.239,348.267,418.22,348.171z"/>
<path class="st1" d="M237.269,228.295c-1.125-0.109-2.249-0.219-3.374-0.329c0.34,0.187,0.662,0.477,1.023,0.54
	c0.779,0.136,1.579,0.155,2.37,0.222c0.034-0.065,0.063-0.131,0.088-0.199C237.327,228.458,237.291,228.38,237.269,228.295z"/>
<path class="st1" d="M80.764,285.185c0.607-0.643,1.214-1.286,1.821-1.928C81.978,283.9,81.371,284.543,80.764,285.185z"/>
<path class="st1" d="M214.065,271.747c0.656,0.6,1.313,1.2,1.969,1.8C215.378,272.947,214.722,272.347,214.065,271.747z"/>
<path class="st1" d="M244.411,9.831c1.015,0.361,2.031,0.722,3.046,1.084C246.69,9.856,245.531,9.899,244.411,9.831z"/>
<path class="st1" d="M278.572,220.328c0.603,0.653,1.206,1.305,1.809,1.958C279.779,221.634,279.175,220.981,278.572,220.328z"/>
<path class="st1" d="M211.247,219.026c-0.903-0.442-1.806-0.884-2.709-1.327C209.44,218.142,210.343,218.584,211.247,219.026z"/>
<path class="st1" d="M116.31,255.186c0.654-0.603,1.308-1.206,1.962-1.809C117.618,253.98,116.964,254.583,116.31,255.186z"/>
<path class="st1" d="M234.707,144.313c-0.184-0.053-0.367-0.107-0.551-0.16c-0.99,0.149-2.121-0.136-2.817,0.916
	C232.462,144.816,233.584,144.565,234.707,144.313z"/>
<path class="st1" d="M156.849,108.305c-0.885-0.366-1.77-0.732-2.654-1.098C154.696,108.499,155.843,108.232,156.849,108.305z"/>
<path class="st1" d="M256.517,145.13c0.96-0.411,1.921-0.823,2.881-1.234C258.248,143.863,257.129,143.904,256.517,145.13z"/>
<path class="st1" d="M227.525,146.439c1.019-0.339,2.037-0.679,3.056-1.018C229.563,145.76,228.544,146.099,227.525,146.439z"/>
<path class="st1" d="M283.819,37.477c0.484,0.765,0.969,1.529,1.453,2.294C285.027,38.854,284.795,37.93,283.819,37.477z"/>
<path class="st1" d="M250.006,99.625c-0.236,0.151-0.473,0.302-0.709,0.453c1.49,0.012,2.979,0.024,4.469,0.036
	c-0.335-0.177-0.67-0.354-1.005-0.531C251.842,99.597,250.924,99.611,250.006,99.625z"/>
<path class="st1" d="M254.247,47.539c-0.771-0.461-1.542-0.922-2.313-1.383c0.005,0.113,0.012,0.226,0.022,0.338
	C252.72,46.843,253.483,47.191,254.247,47.539z"/>
<path class="st1" d="M187.546,55.547c-1.071-0.094-2.027,0.09-2.644,1.094C185.783,56.276,186.664,55.911,187.546,55.547z"/>
<path class="st1" d="M268.408,90.83c1.502,0.004,3.004,0.008,4.506,0.012c0,0,0.017-0.179,0.017-0.179
	c-0.016-0.086-0.025-0.173-0.027-0.261c-1.486,0.001-2.971,0.002-4.457,0.003c-0.006,0.082-0.023,0.161-0.052,0.239L268.408,90.83z"
	/>
<path class="st1" d="M283.311,76.952c-0.338-0.777-0.677-1.554-1.015-2.331C282.195,75.589,282.615,76.331,283.311,76.952z"/>
<path class="st1" d="M418.22,348.171c0.019,0.096,0.036,0.193,0.052,0.289c1.138,0.024,2.324,0.629,3.387-0.274
	C420.513,348.181,419.367,348.176,418.22,348.171z"/>
<path class="st1" d="M160.942,203.156c0.893-0.148,1.786-0.296,2.68-0.443C162.234,202.029,161.964,202.074,160.942,203.156z"/>
<path class="st1" d="M165.914,165.66c0.371-0.819,0.303-1.597-0.216-2.334C165.77,164.104,165.842,164.882,165.914,165.66z"/>
<path class="st1" d="M197.974,165.409c0.131,0.074,0.262,0.149,0.394,0.223c0.755-0.235,1.509-0.47,2.264-0.705
	C199.656,164.594,198.813,164.992,197.974,165.409z"/>
<path class="st1" d="M198.742,115.848c-0.37-0.753-0.74-1.506-1.11-2.259C198.003,114.342,198.373,115.095,198.742,115.848z"/>
<path class="st1" d="M375.923,325.976c-1.327-0.481-2.621-0.697-3.753,0.451C373.421,326.276,374.672,326.126,375.923,325.976z"/>
<path class="st1" d="M73.953,311.799c0.056-0.749,0.112-1.497,0.168-2.246C74.065,310.301,74.009,311.05,73.953,311.799z"/>
<path class="st1" d="M413.371,348.51c-0.013-0.099-0.019-0.199-0.019-0.299c-0.847-0.206-1.694-0.412-2.541-0.618
	c-0.149,0.06-0.299,0.121-0.448,0.181C411.366,348.02,412.369,348.265,413.371,348.51z"/>
<path class="st1" d="M180.029,27.035c0.878-0.375,1.755-0.749,2.633-1.124C181.527,25.684,180.683,26.137,180.029,27.035z"/>
<path class="st1" d="M281.904,223.726c0.362,0.128,0.716,0.307,1.089,0.375c0.783,0.141,1.576,0.224,2.365,0.331
	c-0.498-0.235-0.975-0.579-1.498-0.677C283.229,223.636,282.558,223.726,281.904,223.726z"/>
<path class="st1" d="M288.242,49.893c-0.594,0.941,0.091,1.603,0.507,2.323C288.58,51.441,288.411,50.667,288.242,49.893z"/>
<path class="st1" d="M282.255,154.617c0.256,0.063,0.512,0.125,0.767,0.188c0.635-0.106,1.271-0.213,1.906-0.319
	c-0.009-0.14-0.018-0.279-0.027-0.419C284.019,154.25,283.137,154.434,282.255,154.617z"/>
<path class="st1" d="M191.95,86.564c1.014-0.248,2.028-0.496,3.042-0.744C193.914,85.803,192.775,85.543,191.95,86.564z"/>
<path class="st1" d="M155.475,58.964c0.438-0.659,0.875-1.317,1.313-1.976C155.924,57.363,155.552,58.066,155.475,58.964z"/>
<path class="st1" d="M250.858,145.391c1.35,0.85,2.716,0.535,4.085,0.059c-0.127-0.08-0.253-0.16-0.38-0.24
	c-1.115,0.032-2.23,0.064-3.345,0.096C251.098,145.334,250.978,145.363,250.858,145.391z"/>
<path class="st1" d="M111.861,259.344c0.511-0.493,1.022-0.986,1.533-1.479C112.883,258.358,112.372,258.851,111.861,259.344z"/>
<path class="st1" d="M224.977,147.683c0.757-0.37,1.514-0.74,2.272-1.111C226.275,146.5,225.521,146.877,224.977,147.683z"/>
<path class="st1" d="M270.594,222.254c0.145-0.63,0.291-1.26,0.436-1.89C270.515,220.909,270.188,221.497,270.594,222.254z"/>
<path class="st1" d="M196.458,98.597c0.343-0.921,0.043-1.663-0.64-2.298C196.032,97.065,196.245,97.831,196.458,98.597z"/>
<path class="st1" d="M69.262,368.753c-0.072-0.659-0.143-1.318-0.215-1.977C69.119,367.435,69.19,368.094,69.262,368.753z"/>
<path class="st1" d="M274.044,60.752c-0.487-0.515-0.975-1.03-1.463-1.544C273.068,59.722,273.556,60.237,274.044,60.752z"/>
<path class="st1" d="M300.605,104.953c-0.855,0.465-0.807,1.137-0.43,1.883C300.319,106.209,300.462,105.581,300.605,104.953z"/>
<path class="st1" d="M262.586,88.673c-0.03-0.684-0.061-1.368-0.091-2.052C262.525,87.305,262.556,87.989,262.586,88.673z"/>
<path class="st1" d="M193.946,208.335c-0.544-0.46-1.087-0.919-1.631-1.379C192.859,207.416,193.403,207.875,193.946,208.335z"/>
<path class="st1" d="M83.123,417.089c-0.074-0.659-0.147-1.318-0.221-1.976C82.976,415.771,83.05,416.43,83.123,417.089z"/>
<path class="st1" d="M288.895,52.903c-0.325,0.746-0.441,1.438,0.475,1.868C289.211,54.149,289.053,53.526,288.895,52.903z"/>
<path class="st1" d="M191.706,206.452c-0.539-0.465-1.077-0.931-1.616-1.396C190.629,205.521,191.168,205.986,191.706,206.452z"/>
<path class="st1" d="M282.764,167.172c-0.087,0.663-0.174,1.325-0.261,1.988C282.59,168.497,282.677,167.835,282.764,167.172z"/>
<path class="st1" d="M101.385,268.346c0.511-0.493,1.022-0.985,1.532-1.478C102.407,267.361,101.896,267.854,101.385,268.346z"/>
<path class="st1" d="M152.765,223.073c0.893-0.36,0.886-1.197,1.033-1.952C153.454,221.771,153.11,222.422,152.765,223.073z"/>
<path class="st1" d="M261.69,51.721c-0.604-0.255-1.208-0.511-1.812-0.766C260.326,51.58,260.902,51.9,261.69,51.721z"/>
<path class="st1" d="M270.616,26.357c0.429,0.849,1.226,0.915,2.034,0.957C271.972,26.995,271.294,26.676,270.616,26.357z"/>
<path class="st1" d="M160.863,108.504c-0.97,0.068-1.939,0.136-2.908,0.203c1.11,0.737,2.231,0.5,3.354,0.036
	C161.161,108.663,161.012,108.583,160.863,108.504z"/>
<path class="st1" d="M400.622,332.432c-1.121-0.93-2.251-0.572-3.383-0.024C398.366,332.416,399.494,332.424,400.622,332.432z"/>
<path class="st1" d="M199.879,22.162c0.64-0.358,1.281-0.716,1.921-1.074C200.898,20.977,200.376,21.548,199.879,22.162z"/>
<path class="st1" d="M259.414,143.843c0.871-0.083,1.741-0.165,2.612-0.248C261.067,142.757,260.218,143.066,259.414,143.843z"/>
<path class="st1" d="M191.214,165.73c0.28-0.067,0.559-0.134,0.839-0.201c-0.725-0.414-1.455-0.786-2.28-0.235
	C190.253,165.439,190.734,165.585,191.214,165.73z"/>
<path class="st1" d="M345.905,241.389c0.432-0.05,0.863-0.099,1.295-0.149c-0.921-0.081-1.842-0.162-2.763-0.243
	C344.926,241.128,345.415,241.258,345.905,241.389z"/>
<path class="st1" d="M375.954,344.476c0.36-0.649,0.719-1.298,1.079-1.946C375.965,342.786,375.904,343.6,375.954,344.476z"/>
<path class="st1" d="M284.841,158.865c-0.582,0.41-1.085,0.859-0.844,1.682C284.278,159.987,284.56,159.426,284.841,158.865z"/>
<path class="st1" d="M410.363,347.774c0.149-0.06,0.299-0.121,0.448-0.181c-0.878-0.278-1.77-0.624-2.341,0.511
	C409.102,347.994,409.732,347.884,410.363,347.774z"/>
<path class="st1" d="M170.749,34.975c0.328-0.541,0.657-1.082,0.985-1.622C170.808,33.53,170.876,34.311,170.749,34.975z"/>
<path class="st1" d="M70.183,348.28c0.076-0.542,0.152-1.085,0.229-1.627C70.335,347.195,70.259,347.738,70.183,348.28z"/>
<path class="st1" d="M70.532,346.029c0.164-0.547,0.328-1.093,0.492-1.64C70.437,344.808,70.234,345.343,70.532,346.029z"/>
<path class="st1" d="M196.83,85.78c1.024-0.022,2.094,0.417,3.047-0.309c-0.116-0.054-0.233-0.107-0.349-0.161
	c-0.639,0.014-1.278,0.029-1.917,0.043c-0.238,0.042-0.476,0.083-0.714,0.125C196.885,85.582,196.863,85.682,196.83,85.78z"/>
<path class="st1" d="M406.532,316.678c-0.404,0.669,0.026,1.083,0.457,1.496C406.836,317.676,406.684,317.177,406.532,316.678z"/>
<path class="st1" d="M160.863,108.504c0.149,0.08,0.297,0.159,0.446,0.239c0.505-0.025,1.01-0.051,1.515-0.076
	C162.27,107.418,161.531,108.395,160.863,108.504z"/>
<path class="st1" d="M165.69,208.386c0.089,0.543,0.178,1.085,0.267,1.628C165.868,209.471,165.779,208.929,165.69,208.386z"/>
<path class="st1" d="M272.806,269.218c0.071-0.584,0.141-1.167,0.212-1.751C272.947,268.051,272.877,268.634,272.806,269.218z"/>
<path class="st1" d="M283.373,164.896c-0.695,0.389-0.778,0.96-0.488,1.643C283.048,165.991,283.21,165.444,283.373,164.896z"/>
<path class="st1" d="M315.205,407.539c0.265,0.059,0.53,0.117,0.796,0.176c0.714-0.02,1.428-0.04,2.142-0.06
	c0.033-0.096,0.064-0.192,0.094-0.29C317.226,407.423,316.215,407.481,315.205,407.539z"/>
<path class="st1" d="M402.661,487.172c-0.768-0.35-0.372-0.976-0.357-1.512C402.858,486.061,403.306,486.487,402.661,487.172z"/>
<path class="st1" d="M402.059,483.12c-0.174-0.523-0.348-1.047-0.522-1.57C401.954,481.992,402.355,482.44,402.059,483.12z"/>
<path class="st1" d="M270.371,231.614c-0.003-0.496-0.006-0.993-0.009-1.489C270.365,230.621,270.368,231.118,270.371,231.614z"/>
<path class="st1" d="M290.417,61.514c-0.408,0.608-0.307,1.131,0.261,1.577C290.591,62.566,290.504,62.04,290.417,61.514z"/>
<path class="st1" d="M275.503,62.673c-0.338-0.409-0.676-0.819-1.014-1.228C274.827,61.854,275.165,62.264,275.503,62.673z"/>
<path class="st1" d="M241.455,9.442c0.571,0.417,1.138,0.852,1.876,0.338C242.706,9.667,242.08,9.554,241.455,9.442z"/>
<path class="st1" d="M207.427,160.862c0.666-0.195,0.988-0.602,0.816-1.317C207.972,159.984,207.699,160.423,207.427,160.862z"/>
<path class="st1" d="M265.758,91.057c0.884-0.076,1.767-0.151,2.651-0.227c0,0-0.013-0.186-0.013-0.186
	c-0.251-0.025-0.503-0.05-0.755-0.075c-0.609,0.061-1.218,0.123-1.827,0.184C265.798,90.856,265.78,90.957,265.758,91.057z"/>
<path class="st1" d="M201.456,259.275c0.335,0.415,0.671,0.829,1.006,1.244C202.127,260.104,201.792,259.69,201.456,259.275z"/>
<path class="st1" d="M264.758,20.597c0.323,0.419,0.646,0.838,0.968,1.257C265.716,21.195,265.419,20.756,264.758,20.597z"/>
<path class="st1" d="M266.233,221.194c-0.387,0.361-0.774,0.721-1.161,1.082C265.459,221.915,265.846,221.555,266.233,221.194z"/>
<path class="st1" d="M159.144,53.329c0.324-0.42,0.647-0.84,0.971-1.26C159.791,52.489,159.467,52.909,159.144,53.329z"/>
<path class="st1" d="M176.735,156.244c0.335,0.411,0.67,0.822,1.005,1.232C177.405,157.065,177.07,156.655,176.735,156.244z"/>
<path class="st1" d="M281.884,84.43c0.89,0.095,1.779,0.19,2.669,0.285c-0.366-0.132-0.732-0.264-1.098-0.396
	C282.931,84.355,282.408,84.392,281.884,84.43z"/>
<path class="st1" d="M281.884,84.43c0.523-0.037,1.047-0.074,1.571-0.111c-0.909-0.096-1.817-0.192-2.726-0.288
	c0.024,0.094,0.05,0.189,0.076,0.282C281.165,84.351,281.525,84.391,281.884,84.43z"/>
<path class="st1" d="M188.218,203.2c-0.336-0.416-0.672-0.832-1.009-1.248C187.546,202.368,187.882,202.784,188.218,203.2z"/>
<path class="st1" d="M181.863,196.446c-0.336-0.413-0.671-0.827-1.007-1.24C181.192,195.619,181.528,196.032,181.863,196.446z"/>
<path class="st1" d="M217.801,275.13c0.42,0.33,0.839,0.661,1.259,0.991C218.641,275.791,218.221,275.461,217.801,275.13z"/>
<path class="st1" d="M83.808,281.87c0.347-0.408,0.693-0.815,1.04-1.223C84.501,281.054,84.155,281.462,83.808,281.87z"/>
<path class="st1" d="M214.85,155.24c0.886,0.518,1.765,0.503,2.638-0.031C216.609,155.219,215.73,155.23,214.85,155.24z"/>
<path class="st1" d="M238.898,81.672c0.354,0.397,0.708,0.793,1.062,1.19C239.606,82.466,239.252,82.069,238.898,81.672z"/>
<path class="st1" d="M167.739,106.556c-0.405,0.34-0.81,0.68-1.215,1.02C166.929,107.236,167.334,106.896,167.739,106.556z"/>
<path class="st1" d="M284.901,154.067c0.009,0.14,0.018,0.279,0.027,0.419c0.531-0.074,1.062-0.149,1.593-0.223
	C286.061,153.537,285.459,153.988,284.901,154.067z"/>
<path class="st1" d="M269.517,83.282c0.024,0.097,0.05,0.194,0.076,0.29c0.34,0.024,0.68,0.048,1.019,0.072
	c0.532-0.064,1.064-0.128,1.597-0.191C271.312,83.396,270.414,83.339,269.517,83.282z"/>
<path class="st1" d="M153.157,64.542c0.521-0.393,0.845-0.866,0.64-1.557C153.583,63.504,153.37,64.023,153.157,64.542z"/>
<path class="st1" d="M280.805,84.312c-0.027-0.094-0.052-0.188-0.076-0.282c-0.458-0.025-0.915-0.051-1.373-0.076
	c-0.29,0.041-0.58,0.082-0.87,0.124C279.259,84.156,280.032,84.234,280.805,84.312z"/>
<path class="st1" d="M151.137,76.853c0.111-0.376,0.223-0.752,0.334-1.128C150.725,75.913,150.553,76.271,151.137,76.853z"/>
<path class="st1" d="M282.328,172.041c-0.02,0.374-0.041,0.749-0.061,1.123C282.288,172.79,282.308,172.416,282.328,172.041z"/>
<path class="st1" d="M254.563,145.21c0.127,0.08,0.253,0.16,0.38,0.24c0.378-0.022,0.757-0.043,1.135-0.065
	C255.698,144.249,255.094,145.04,254.563,145.21z"/>
<path class="st1" d="M375.53,346.651c0.067-0.425,0.135-0.85,0.202-1.275C375.665,345.801,375.597,346.226,375.53,346.651z"/>
<path class="st1" d="M403.127,489.415c-0.063-0.407-0.127-0.814-0.19-1.22C403,488.601,403.063,489.008,403.127,489.415z"/>
<path class="st1" d="M238.768,9.279c0.791,0.01,1.582,0.02,2.372,0.03C240.35,9.299,239.559,9.289,238.768,9.279z"/>
<path class="st1" d="M251.956,46.495c-0.01-0.113-0.017-0.225-0.022-0.338c-0.113-0.049-0.228-0.096-0.343-0.14
	c-0.265-0.013-0.53-0.026-0.795-0.039c-0.359,0.06-0.719,0.12-1.078,0.18c-0.012,0.106-0.029,0.21-0.052,0.314
	C250.429,46.479,251.193,46.487,251.956,46.495z"/>
<path class="st1" d="M403.39,491.295c-0.043-0.407-0.087-0.814-0.13-1.221C403.303,490.481,403.346,490.888,403.39,491.295z"/>
<path class="st1" d="M275.902,194.513c-0.297,0.358-0.899,0.591-0.503,1.232C275.567,195.335,275.735,194.924,275.902,194.513z"/>
<path class="st1" d="M406.255,314.804c0.052,0.414,0.103,0.827,0.155,1.241C406.358,315.632,406.306,315.218,406.255,314.804z"/>
<path class="st1" d="M348.554,375.856c-0.306,0.351-0.854,0.607-0.479,1.225C348.235,376.672,348.395,376.264,348.554,375.856z"/>
<path class="st1" d="M274.533,200.792c-0.444,0.364-0.519,0.769-0.132,1.224C274.445,201.608,274.489,201.2,274.533,200.792z"/>
<path class="st1" d="M256.796,110.598c-0.153-0.42-0.305-0.84-0.458-1.26C255.956,109.953,256.385,110.272,256.796,110.598z"/>
<path class="st1" d="M255.685,104.597c-0.151-0.378-0.301-0.755-0.452-1.133C255.383,103.842,255.534,104.219,255.685,104.597z"/>
<path class="st1" d="M166.545,167.546c-0.168-0.406-0.336-0.812-0.504-1.219C166.209,166.734,166.377,167.14,166.545,167.546z"/>
<path class="st1" d="M81.984,407.345c-0.022-0.372-0.044-0.744-0.066-1.115C81.94,406.602,81.962,406.973,81.984,407.345z"/>
<path class="st1" d="M165.418,206.513c0.05,0.419,0.1,0.837,0.151,1.256C165.519,207.35,165.468,206.932,165.418,206.513z"/>
<path class="st1" d="M272.527,271.336c0.039-0.374,0.077-0.748,0.116-1.122C272.605,270.588,272.566,270.962,272.527,271.336z"/>
<path class="st1" d="M86.715,278.785c0.395-0.236,0.789-0.473,1.184-0.709C87.505,278.313,87.11,278.549,86.715,278.785z"/>
<path class="st1" d="M160.866,51.331c0.369-0.255,0.739-0.51,1.108-0.765C161.605,50.821,161.235,51.076,160.866,51.331z"/>
<path class="st1" d="M178.559,86.945c-0.018,0.515-0.069,1.047,0.617,1.199C179.355,87.547,179.115,87.165,178.559,86.945z"/>
<path class="st1" d="M75.974,289.36c0.204-0.415,0.409-0.831,0.613-1.246C76.383,288.529,76.179,288.944,75.974,289.36z"/>
<path class="st1" d="M196.83,85.78c0.033-0.098,0.056-0.198,0.067-0.301c-0.64,0.102-1.28,0.205-1.919,0.307
	C195.595,85.784,196.212,85.782,196.83,85.78z"/>
<path class="st1" d="M168.835,217.709c0.223,0.397,0.447,0.794,0.67,1.191C169.282,218.503,169.059,218.106,168.835,217.709z"/>
<path class="st1" d="M120.419,251.426c0.393-0.237,0.787-0.475,1.18-0.712C120.954,250.534,120.61,250.853,120.419,251.426z"/>
<path class="st1" d="M169.965,219.577c0.074,0.49,0.007,1.071,0.736,1.137C170.455,220.335,170.21,219.956,169.965,219.577z"/>
<path class="st1" d="M197.61,85.354c0.639-0.014,1.278-0.029,1.917-0.043C198.888,85.325,198.249,85.34,197.61,85.354z"/>
<path class="st1" d="M170.707,220.72c0.226,0.391,0.451,0.782,0.677,1.174C171.158,221.503,170.933,221.111,170.707,220.72z"/>
<path class="st1" d="M401.045,345.958c0.243-0.389,0.486-0.778,0.729-1.167C400.987,344.84,401.007,345.393,401.045,345.958z"/>
<path class="st1" d="M272.904,90.403c0.002,0.088,0.011,0.174,0.027,0.261c0.628-0.02,1.256-0.039,1.884-0.059
	C274.178,90.538,273.541,90.47,272.904,90.403z"/>
<path class="st1" d="M267.746,54.309c-0.2-0.602-0.551-0.924-1.219-0.658C266.934,53.871,267.34,54.09,267.746,54.309z"/>
<path class="st1" d="M156.892,56.684c0.221-0.267,0.442-0.534,0.662-0.801C157.334,56.15,157.113,56.417,156.892,56.684z"/>
<path class="st1" d="M283.844,161.928c-0.018,0.249-0.037,0.497-0.055,0.746C283.807,162.425,283.825,162.176,283.844,161.928z"/>
<path class="st1" d="M83.395,419.342c-0.033-0.286-0.066-0.572-0.099-0.858C83.329,418.77,83.362,419.056,83.395,419.342z"/>
<path class="st1" d="M289.382,55.137c-0.371,0.365-0.339,0.64,0.18,0.807C289.502,55.675,289.442,55.406,289.382,55.137z"/>
<path class="st1" d="M199.821,118.141c-0.153-0.312-0.307-0.625-0.46-0.937C199.514,117.516,199.668,117.829,199.821,118.141z"/>
<path class="st1" d="M304.372,230.849c0.392-0.037,0.784-0.073,1.176-0.11c-0.53-0.268-1.061-0.576-1.567,0.043
	C304.111,230.804,304.242,230.826,304.372,230.849z"/>
<path class="st1" d="M181.465,161.231c0.292,0.208,0.585,0.417,0.878,0.626C182.05,161.648,181.758,161.44,181.465,161.231z"/>
<path class="st1" d="M271.034,233.5c-0.156-0.29-0.311-0.579-0.467-0.869C270.723,232.921,270.879,233.211,271.034,233.5z"/>
<path class="st1" d="M206.241,18.414c0.274-0.227,0.547-0.454,0.821-0.681C206.789,17.96,206.515,18.187,206.241,18.414z"/>
<path class="st1" d="M272.986,241.361c-0.023-0.25-0.046-0.5-0.069-0.75C272.94,240.861,272.963,241.111,272.986,241.361z"/>
<path class="st1" d="M267.669,219.632c-0.229,0.265-0.458,0.53-0.688,0.795C267.211,220.162,267.44,219.897,267.669,219.632z"/>
<path class="st1" d="M212.626,219.596c-0.358-0.137-0.717-0.275-1.076-0.412C211.908,219.321,212.267,219.459,212.626,219.596z"/>
<path class="st1" d="M233.911,9.743c0.516-0.104,1.032-0.207,1.548-0.311c-0.499-0.001-0.997-0.002-1.496-0.004
	C233.952,9.534,233.935,9.639,233.911,9.743z"/>
<path class="st1" d="M277.433,64.85c-0.244-0.257-0.488-0.513-0.732-0.77C276.945,64.337,277.189,64.594,277.433,64.85z"/>
<path class="st1" d="M279.583,67.945c-0.189-0.302-0.377-0.605-0.566-0.907C279.206,67.34,279.395,67.642,279.583,67.945z"/>
<path class="st1" d="M403.86,493.534c-0.111-0.264-0.223-0.529-0.334-0.793C404.068,492.823,404.242,493.061,403.86,493.534z"/>
<path class="st1" d="M290.644,68.913c-0.459,0.224-0.461,0.507-0.11,0.837C290.571,69.471,290.607,69.192,290.644,68.913z"/>
<path class="st1" d="M403.443,497.682c0.128-0.255,0.256-0.509,0.384-0.764C404.336,497.493,403.782,497.533,403.443,497.682z"/>
<path class="st1" d="M299.569,111.34c-0.033,0.25-0.066,0.499-0.099,0.749C299.503,111.839,299.536,111.589,299.569,111.34z"/>
<path class="st1" d="M379.867,272.369c0.18,0.279,0.36,0.559,0.539,0.838C380.227,272.928,380.047,272.649,379.867,272.369z"/>
<path class="st1" d="M195.473,209.401c-0.304-0.189-0.609-0.378-0.913-0.568C194.864,209.022,195.169,209.211,195.473,209.401z"/>
<path class="st1" d="M265.871,22.095c0.178,0.307,0.356,0.613,0.534,0.92C266.227,22.709,266.049,22.402,265.871,22.095z"/>
<path class="st1" d="M284.213,77.884c-0.243-0.231-0.487-0.463-0.73-0.694C283.726,77.421,283.97,77.653,284.213,77.884z"/>
<path class="st1" d="M347.017,382.606c-0.464,0.1-0.829,0.243-0.332,0.762C346.796,383.114,346.906,382.86,347.017,382.606z"/>
<path class="st1" d="M165.229,144.447c0.155-0.314,0.311-0.627,0.466-0.941C165.144,143.623,164.994,143.94,165.229,144.447z"/>
<path class="st1" d="M275.059,198.959c-0.521,0.09-0.708,0.328-0.353,0.803C274.824,199.495,274.941,199.227,275.059,198.959z"/>
<path class="st1" d="M177.445,85.431c0.03,0.471,0.171,0.835,0.749,0.779C177.945,85.95,177.695,85.69,177.445,85.431z"/>
<path class="st1" d="M176.583,29.207c0.294-0.203,0.587-0.406,0.881-0.609C177.171,28.801,176.877,29.004,176.583,29.207z"/>
<path class="st1" d="M349.718,369.131c-0.011,0.25-0.022,0.5-0.033,0.75C349.696,369.631,349.707,369.381,349.718,369.131z"/>
<path class="st1" d="M403.038,335.835c-0.052-0.267-0.103-0.534-0.155-0.801C402.492,335.387,402.537,335.655,403.038,335.835z"/>
<path class="st1" d="M402.654,343.086c0.119-0.329,0.237-0.657,0.356-0.986C402.891,342.429,402.773,342.757,402.654,343.086z"/>
<path class="st1" d="M256.118,107.59c-0.017-0.248-0.034-0.495-0.051-0.743C256.084,107.095,256.101,107.342,256.118,107.59z"/>
<path class="st1" d="M68.873,365.382c-0.002-0.247-0.004-0.494-0.006-0.74C68.869,364.888,68.871,365.135,68.873,365.382z"/>
<path class="st1" d="M157.945,205.764c0.102-0.269,0.203-0.538,0.305-0.807C158.148,205.226,158.046,205.495,157.945,205.764z"/>
<path class="st1" d="M172.863,32.222c0.286-0.211,0.573-0.422,0.859-0.632C173.435,31.8,173.149,32.011,172.863,32.222z"/>
<path class="st1" d="M148.194,227.502c0.262-0.245,0.524-0.489,0.786-0.734C148.718,227.013,148.456,227.258,148.194,227.502z"/>
<path class="st1" d="M371.033,248.507c0.267,0.231,0.533,0.463,0.8,0.694C371.566,248.969,371.299,248.738,371.033,248.507z"/>
<path class="st1" d="M233.911,9.743c0.024-0.104,0.041-0.209,0.052-0.315c-0.38,0.082-0.761,0.163-1.141,0.245
	C233.185,9.696,233.548,9.72,233.911,9.743z"/>
<path class="st1" d="M263.91,91.103c-0.015,0.102-0.032,0.203-0.051,0.304c0.406-0.08,0.812-0.16,1.219-0.24
	c-0.147-0.06-0.295-0.119-0.442-0.179C264.394,91.026,264.152,91.064,263.91,91.103z"/>
<path class="st1" d="M336.215,407.14c0.129,0.074,0.257,0.147,0.386,0.221c0.259-0.12,0.519-0.241,0.778-0.361
	C336.991,407.047,336.603,407.094,336.215,407.14z"/>
<path class="st1" d="M264.636,90.987c0.147,0.06,0.295,0.119,0.442,0.179c0.227-0.036,0.453-0.072,0.68-0.109
	c0.022-0.101,0.04-0.202,0.056-0.303C265.421,90.832,265.029,90.91,264.636,90.987z"/>
<path class="st1" d="M244.801,228.465c0.27,0.059,0.539,0.118,0.809,0.177c0.125,0.001,0.242-0.03,0.35-0.091
	C245.609,228.053,245.212,228.163,244.801,228.465z"/>
<path class="st1" d="M278.129,90.601c0.395,0.001,0.789,0.001,1.184,0.002C278.918,90.602,278.523,90.602,278.129,90.601z"/>
<path class="st1" d="M259.86,50.929c-0.243-0.121-0.485-0.243-0.728-0.364C259.375,50.686,259.618,50.808,259.86,50.929z"/>
<path class="st1" d="M207.781,217.322c-0.227-0.138-0.453-0.276-0.68-0.414C207.327,217.046,207.554,217.184,207.781,217.322z"/>
<path class="st1" d="M290.196,88.103c0.139,0.206,0.278,0.413,0.417,0.619C290.474,88.516,290.335,88.309,290.196,88.103z"/>
<path class="st1" d="M267.641,90.57c0.252,0.025,0.503,0.05,0.755,0.074c0.028-0.077,0.045-0.157,0.051-0.239
	C268.178,90.46,267.91,90.515,267.641,90.57z"/>
<path class="st1" d="M183.04,57.779c-0.26,0.108-0.52,0.216-0.781,0.325C182.52,57.995,182.78,57.887,183.04,57.779z"/>
<path class="st1" d="M399.888,347.779c0.124-0.125,0.247-0.25,0.371-0.375C400.135,347.529,400.011,347.654,399.888,347.779z"/>
<path class="st1" d="M250.858,145.391c0.12-0.028,0.24-0.056,0.361-0.085c-0.148-0.072-0.296-0.145-0.444-0.217
	C250.79,145.193,250.818,145.294,250.858,145.391z"/>
<path class="st1" d="M274.389,61.152c-0.116-0.134-0.232-0.268-0.348-0.401C274.157,60.885,274.273,61.019,274.389,61.152z"/>
<path class="st1" d="M277.769,65.266c-0.111-0.138-0.223-0.277-0.334-0.415C277.546,64.99,277.658,65.128,277.769,65.266z"/>
<path class="st1" d="M111.473,259.701c0.13-0.12,0.259-0.239,0.389-0.359C111.732,259.461,111.603,259.581,111.473,259.701z"/>
<path class="st1" d="M152.242,223.67c0.121-0.124,0.242-0.248,0.363-0.372C152.484,223.422,152.363,223.546,152.242,223.67z"/>
<path class="st1" d="M100.988,268.698c0.133-0.118,0.265-0.236,0.398-0.354C101.254,268.462,101.121,268.58,100.988,268.698z"/>
<path class="st1" d="M208.208,217.522c-0.136-0.064-0.273-0.127-0.409-0.191C207.936,217.395,208.072,217.458,208.208,217.522z"/>
<path class="st1" d="M168.447,216.972c0.098,0.144,0.197,0.287,0.295,0.431C168.644,217.259,168.546,217.115,168.447,216.972z"/>
<path class="st1" d="M289.765,87.784c0.123,0.1,0.246,0.2,0.368,0.3C290.01,87.984,289.887,87.884,289.765,87.784z"/>
<path class="st1" d="M248.988,100.146c-0.157,0.088-0.314,0.176-0.471,0.264C248.673,100.322,248.831,100.234,248.988,100.146z"/>
<path class="st1" d="M254.851,101.241c-0.099-0.125-0.197-0.249-0.296-0.374C254.654,100.992,254.752,101.116,254.851,101.241z"/>
<path class="st1" d="M247.277,101.506c-0.07,0.156-0.139,0.312-0.209,0.469C247.138,101.818,247.207,101.662,247.277,101.506z"/>
<path class="st1" d="M78.087,287.001c0.151-0.099,0.301-0.198,0.452-0.296C78.388,286.803,78.237,286.902,78.087,287.001z"/>
<path class="st1" d="M77.311,287.354c0.164-0.088,0.328-0.176,0.492-0.264C77.639,287.178,77.475,287.266,77.311,287.354z"/>
<path class="st1" d="M158.974,204.159c0.159-0.083,0.318-0.166,0.476-0.248C159.292,203.993,159.133,204.076,158.974,204.159z"/>
<path class="st1" d="M347.491,381.167l-0.132,0.106c0,0,0.057,0.159,0.057,0.159c0.055-0.057,0.112-0.111,0.16-0.174
	C347.58,381.252,347.521,381.198,347.491,381.167z"/>
<path class="st1" d="M74.095,292.752c0.091-0.152,0.183-0.303,0.274-0.455C74.278,292.448,74.187,292.6,74.095,292.752z"/>
<path class="st1" d="M401.443,333.116c-0.149-0.107-0.298-0.214-0.447-0.32C401.146,332.903,401.294,333.01,401.443,333.116z"/>
<path class="st1" d="M402.14,344.041c0.074-0.137,0.148-0.274,0.222-0.41C402.288,343.768,402.214,343.905,402.14,344.041z"/>
<path class="st1" d="M400.649,346.676c0.071-0.14,0.142-0.281,0.213-0.421C400.791,346.395,400.72,346.535,400.649,346.676z"/>
<path class="st1" d="M157.98,108.6c-0.156-0.075-0.311-0.149-0.467-0.224C157.668,108.451,157.824,108.525,157.98,108.6z"/>
<path class="st1" d="M205.104,163.029c0.138-0.112,0.276-0.224,0.415-0.335C205.381,162.805,205.242,162.917,205.104,163.029z"/>
<path class="st1" d="M205.519,162.691c0.127-0.121,0.254-0.243,0.382-0.364C205.774,162.449,205.647,162.57,205.519,162.691z"/>
<path class="st1" d="M400.265,347.402c0.109-0.129,0.218-0.258,0.327-0.387C400.482,347.144,400.374,347.273,400.265,347.402z"/>
<path class="st1" d="M200.633,119.209c-0.115-0.137-0.23-0.273-0.344-0.41C200.404,118.936,200.518,119.072,200.633,119.209z"/>
<path class="st1" d="M206.962,153.262c0.093-0.135,0.185-0.27,0.278-0.405C207.147,152.992,207.054,153.127,206.962,153.262z"/>
<path class="st1" d="M399.433,353.712c-0.132,0.083-0.265,0.166-0.397,0.249C399.168,353.878,399.3,353.795,399.433,353.712z"/>
<path class="st1" d="M372.144,259.368c0.117,0.132,0.234,0.263,0.352,0.395C372.378,259.632,372.261,259.5,372.144,259.368z"/>
<path class="st1" d="M251.893,409.839c1.251,0.023,2.501,0.047,3.752,0.07c0.041-0.078,0.067-0.161,0.077-0.249
	C254.445,409.719,253.169,409.779,251.893,409.839z"/>
<path class="st1" d="M286.398,408.262c0.21,0.037,0.42,0.074,0.63,0.111c0.078-0.062,0.134-0.14,0.168-0.233
	C286.931,408.181,286.664,408.222,286.398,408.262z"/>
<path class="st1" d="M269.154,409.035c0.163-0.03,0.327-0.059,0.49-0.089C269.481,408.976,269.317,409.006,269.154,409.035z"/>
<path class="st1" d="M310.299,408.05c0.08-0.058,0.143-0.132,0.188-0.22c-0.169,0.044-0.338,0.087-0.508,0.131
	C310.078,408.017,310.185,408.047,310.299,408.05z"/>
<path class="st1" d="M208.086,88.827c2.599,0.002,5.198,0.006,7.797,0.004c2.167-0.001,4.334-0.009,6.5-0.014
	c-0.022-0.097-0.038-0.195-0.048-0.294c-1.488-0.067-2.975-0.133-4.463-0.2c-0.135,0.002-0.27,0.004-0.405,0.006
	c-3.101,0.069-6.202,0.138-9.303,0.208C208.144,88.635,208.117,88.732,208.086,88.827z"/>
<path class="st1" d="M278.848,94.044c4.276,0.015,8.552,0.031,12.829,0.046c-0.252-0.136-0.504-0.273-0.757-0.409
	c-0.647-0.019-1.294-0.037-1.942-0.056c-0.22-0.01-0.44-0.021-0.66-0.031c-2.902,0.009-5.804,0.018-8.706,0.027
	c-0.232,0.04-0.464,0.081-0.696,0.121C278.91,93.846,278.887,93.947,278.848,94.044z"/>
<path class="st1" d="M227.257,123.354c-3.879-0.068-7.758-0.136-11.636-0.204c-0.136,0.02-0.273,0.041-0.409,0.061
	c0,0,0.02,0.142,0.02,0.142c0.967,0.12,1.932,0.332,2.9,0.343c3.021,0.034,6.044-0.008,9.066-0.021
	C227.227,123.569,227.247,123.462,227.257,123.354z"/>
<path class="st1" d="M219.682,44.484c3.779-0.001,7.557-0.002,11.336-0.003c-0.163-0.077-0.326-0.222-0.489-0.222
	c-3.452-0.011-6.903-0.009-10.355,0.006C220.01,44.265,219.846,44.407,219.682,44.484z"/>
<path class="st1" d="M279.613,93.62c2.902-0.009,5.804-0.018,8.706-0.027c-0.407-0.094-0.814-0.265-1.222-0.27
	c-2.028-0.025-4.057-0.024-6.085,0.011C280.544,93.342,280.079,93.52,279.613,93.62z"/>
<path class="st1" d="M288.288,125.937c-2.131,0.028-4.262,0.055-6.393,0.083c0.002,0.1,0.007,0.199,0.015,0.299
	C284.036,126.192,286.162,126.065,288.288,125.937z"/>
<path class="st1" d="M281.909,126.319c-0.007-0.1-0.012-0.199-0.015-0.299c-1.501-0.139-3.002-0.279-4.503-0.418
	C278.898,125.841,280.404,126.08,281.909,126.319z"/>
<path class="st1" d="M269.931,94.488c1.607-0.148,3.213-0.296,4.82-0.445c0.015-0.097,0.032-0.194,0.053-0.291
	c-1.797,0.187-3.594,0.374-5.391,0.562C269.586,94.373,269.759,94.431,269.931,94.488z"/>
<path class="st1" d="M235.146,86.948c0.363-0.162,0.727-0.323,1.09-0.485c-1.359-0.103-2.718-0.205-4.077-0.308
	c-0.014,0.149-0.027,0.299-0.041,0.448C233.128,86.718,234.137,86.833,235.146,86.948z"/>
<path class="st1" d="M269.931,94.488c-0.172-0.058-0.345-0.115-0.517-0.173c-0.802,0.067-1.617,0.069-2.4,0.228
	c-0.437,0.089-0.822,0.44-1.23,0.673C267.166,94.974,268.548,94.731,269.931,94.488z"/>
<path class="st1" d="M242.148,103.108c-0.933,0.493-0.664,1.388-0.727,2.173c0.132,0.018,0.265,0.037,0.397,0.055
	C242.265,104.442,242.39,103.598,242.148,103.108z"/>
<path class="st1" d="M274.103,124.39c-0.916-0.456-1.833-0.911-2.749-1.367C272.02,123.983,273.048,124.214,274.103,124.39z"/>
<path class="st1" d="M232.099,122.58c-1.28,0.224-2.559,0.447-3.838,0.671c0.279,0.066,0.558,0.131,0.836,0.197
	C230.097,123.158,231.098,122.869,232.099,122.58z"/>
<path class="st1" d="M239.541,112.805c-0.922,0.539-1.171,1.428-1.251,2.406C238.707,114.409,239.124,113.607,239.541,112.805z"/>
<path class="st1" d="M274.804,93.753c-0.021,0.096-0.039,0.193-0.053,0.291c1.366,0,2.732,0,4.097,0
	c0.039-0.097,0.061-0.198,0.068-0.303C277.546,93.745,276.175,93.749,274.804,93.753z"/>
<path class="st1" d="M202.167,91.51c0.499-0.489,0.998-0.979,1.497-1.468C202.812,90.171,202.389,90.738,202.167,91.51z"/>
<path class="st1" d="M241.818,105.336c-0.132-0.018-0.264-0.036-0.397-0.055c0.007,0.645,0.013,1.291,0.02,1.936
	C241.567,106.59,241.692,105.963,241.818,105.336z"/>
<path class="st1" d="M224.968,88.86c0.994,0.148,1.988,0.295,2.982,0.443c0.028-0.063,0.055-0.126,0.079-0.19
	c-0.048-0.065-0.078-0.138-0.09-0.219C226.948,88.883,225.958,88.872,224.968,88.86z"/>
<path class="st1" d="M227.95,89.303c1.014,0.1,2.028,0.199,3.043,0.299c-0.754-0.181-1.508-0.362-2.262-0.543
	c-0.234,0.018-0.468,0.036-0.702,0.054C228.005,89.177,227.978,89.24,227.95,89.303z"/>
<path class="st1" d="M208.086,88.827c0.031-0.095,0.057-0.192,0.079-0.29c-0.896,0.018-1.855-0.393-2.64,0.387
	C206.379,88.892,207.233,88.86,208.086,88.827z"/>
<path class="st1" d="M222.336,88.524c0.009,0.099,0.025,0.197,0.048,0.294c0.866,0.01,1.732,0.019,2.598,0.029
	C224.1,88.739,223.218,88.632,222.336,88.524z"/>
<path class="st1" d="M250.006,99.625c0.918-0.014,1.836-0.028,2.755-0.042C251.836,99.133,250.918,99.165,250.006,99.625z"/>
<path class="st1" d="M286.652,106.66c0.612,0.591,1.101,0.205,1.587-0.2C287.709,106.527,287.18,106.594,286.652,106.66z"/>
<path class="st1" d="M286.538,105.177c-0.348,0.484-0.512,0.961,0.059,1.406C286.578,106.114,286.558,105.646,286.538,105.177z"/>
<path class="st1" d="M295.679,104.147c0.491,0.04,0.983,0.081,1.474,0.121C296.729,103.406,296.236,103.39,295.679,104.147z"/>
<path class="st1" d="M229.097,123.447c-0.279-0.066-0.557-0.131-0.836-0.197c-0.335,0.034-0.669,0.069-1.003,0.103
	c-0.01,0.109-0.03,0.216-0.06,0.321C227.83,123.599,228.463,123.523,229.097,123.447z"/>
<path class="st1" d="M262.753,116.639c-0.215-0.408-0.429-0.816-0.644-1.225C262.324,115.822,262.538,116.231,262.753,116.639z"/>
<path class="st1" d="M275.603,125.131c-0.414-0.211-0.827-0.422-1.241-0.633C274.776,124.709,275.189,124.92,275.603,125.131z"/>
<path class="st1" d="M288.978,93.625c0.647,0.019,1.294,0.037,1.942,0.056C290.273,93.662,289.626,93.643,288.978,93.625z"/>
<path class="st1" d="M288.292,102.739c-0.573-0.149-1.123-0.224-1.454,0.435C287.322,103.029,287.807,102.884,288.292,102.739z"/>
<path class="st1" d="M265.101,118.786c-0.293-0.208-0.586-0.416-0.879-0.624C264.515,118.37,264.808,118.578,265.101,118.786z"/>
<path class="st1" d="M237.266,117.273c-0.2,0.292-0.4,0.583-0.601,0.875C236.866,117.857,237.066,117.565,237.266,117.273z"/>
<path class="st1" d="M235.805,119.18c-0.215,0.283-0.429,0.566-0.644,0.849C235.376,119.746,235.591,119.463,235.805,119.18z"/>
<path class="st1" d="M200.628,94.104c0.117-0.257,0.234-0.514,0.351-0.77C200.862,93.59,200.745,93.847,200.628,94.104z"/>
<path class="st1" d="M234.036,121.151c-0.275,0.226-0.55,0.452-0.825,0.678C233.485,121.603,233.76,121.377,234.036,121.151z"/>
<path class="st1" d="M241.552,95.431c-0.159,0.53,0.029,0.845,0.579,0.935C242.353,95.798,242.062,95.547,241.552,95.431z"/>
<path class="st1" d="M228.029,89.113c0.234-0.018,0.468-0.036,0.702-0.054c-0.264-0.055-0.528-0.11-0.792-0.165
	C227.951,88.974,227.981,89.047,228.029,89.113z"/>
<path class="st1" d="M288.618,106.346c0.25-0.086,0.5-0.173,0.749-0.259C289.117,106.173,288.867,106.259,288.618,106.346z"/>
<path class="st1" d="M289.741,105.976c0.249-0.089,0.497-0.178,0.745-0.267C290.238,105.798,289.99,105.887,289.741,105.976z"/>
<path class="st1" d="M250.796,45.977c0.265,0.013,0.53,0.026,0.795,0.039C251.326,46.003,251.061,45.99,250.796,45.977z"/>
<path class="st1" d="M290.865,105.588c0.259-0.078,0.518-0.156,0.777-0.233C291.383,105.432,291.124,105.51,290.865,105.588z"/>
<path class="st1" d="M217.468,88.33c0.135-0.002,0.27-0.004,0.405-0.006C217.738,88.326,217.603,88.328,217.468,88.33z"/>
<path class="st1" d="M201.012,92.984c0.088-0.15,0.176-0.3,0.264-0.45C201.188,92.684,201.1,92.834,201.012,92.984z"/>
<path class="st1" d="M243.629,46.426c0.053-0.075,0.093-0.157,0.119-0.245c-0.143,0.05-0.287,0.1-0.431,0.15
	C243.408,46.407,243.512,46.439,243.629,46.426z"/>
<path class="st1" d="M296.763,110.183c-0.067,0.157-0.134,0.315-0.2,0.472C296.63,110.498,296.697,110.341,296.763,110.183z"/>
<path class="st1" d="M236.565,118.441c-0.118,0.132-0.236,0.264-0.354,0.396C236.329,118.705,236.447,118.573,236.565,118.441z"/>
<path class="st1" d="M236.214,118.836c-0.135,0.114-0.271,0.228-0.406,0.342C235.943,119.063,236.078,118.95,236.214,118.836z"/>
<path class="st1" d="M293.142,122.204c-0.121,0.132-0.241,0.263-0.362,0.395C292.901,122.467,293.021,122.335,293.142,122.204z"/>
<path class="st1" d="M292.78,122.598c-0.125,0.125-0.25,0.25-0.374,0.375C292.531,122.847,292.656,122.722,292.78,122.598z"/>
<path class="st1" d="M291.211,124.397c-0.107,0.144-0.214,0.287-0.322,0.431C290.997,124.684,291.104,124.541,291.211,124.397z"/>
<path class="st1" d="M290.89,124.825c-0.128,0.123-0.256,0.247-0.385,0.37C290.634,125.072,290.762,124.949,290.89,124.825z"/>
<path class="st1" d="M215.59,126.187c0.132-0.037,0.265-0.075,0.397-0.113C215.854,126.112,215.722,126.149,215.59,126.187z"/>
<path class="st1" d="M219.346,161.664c0.231,0.082,0.461,0.236,0.692,0.236c3.55,0.011,7.101,0.008,10.651-0.011
	c0.232-0.001,0.463-0.153,0.694-0.235c-0.523-0.044-1.046-0.087-1.568-0.131c-0.123-0.041-0.245-0.082-0.368-0.123
	c-2.611,0.014-5.222,0.028-7.833,0.042c-0.748,0.015-1.496,0.03-2.245,0.044L219.346,161.664z"/>
<path class="st1" d="M250.447,169.382c-3.494-0.038-6.988-0.076-10.481-0.114c-0.133,0.015-0.266,0.029-0.399,0.044
	c-0.253,0.048-0.506,0.097-0.759,0.145c0.23,0.086,0.46,0.248,0.689,0.248c3.654-0.005,7.309-0.031,10.963-0.051
	C250.452,169.564,250.448,169.473,250.447,169.382z"/>
<path class="st1" d="M250.447,169.382c0,0.091,0.005,0.182,0.014,0.272c2.124-0.317,4.249-0.634,6.373-0.95
	C254.705,168.93,252.576,169.156,250.447,169.382z"/>
<path class="st1" d="M259.777,159.303c2.012,0.541,4.025,0.732,6.042,0.026c-1.868-0.072-3.737-0.145-5.605-0.217
	C260.069,159.176,259.923,159.24,259.777,159.303z"/>
<path class="st1" d="M271.42,169.797c-0.858,0.816-1.306,1.786-1.114,2.993C270.677,171.792,271.048,170.794,271.42,169.797z"/>
<path class="st1" d="M229.816,161.523c0.523,0.044,1.045,0.087,1.568,0.131c1.113-0.151,2.225-0.303,3.338-0.454
	c-1.604,0.024-3.208,0.047-4.812,0.07C229.885,161.357,229.854,161.441,229.816,161.523z"/>
<path class="st1" d="M271.869,161.855c0.178,1.015,0.356,2.03,0.535,3.045c0.951-0.317,0.574-1.083,0.416-1.611
	C272.661,162.763,272.198,162.329,271.869,161.855z"/>
<path class="st1" d="M260.121,169.082c-0.613-1.514-1.363-1.64-2.579-0.434C258.51,168.146,259.341,168.463,260.121,169.082z"/>
<path class="st1" d="M229.452,188.737c-1.237,0.055-2.473,0.109-3.71,0.164c1.491,0.648,2.984,0.569,4.479,0.011
	c0,0,0.021-0.131,0.021-0.13C229.979,188.767,229.715,188.752,229.452,188.737z"/>
<path class="st1" d="M236.583,181.784c-0.471,0.771-0.942,1.543-1.412,2.314C236.119,183.619,236.328,182.687,236.583,181.784z"/>
<path class="st1" d="M266.167,159.3c0.911-0.154,1.822-0.309,2.733-0.463C267.831,158.051,266.951,158.394,266.167,159.3z"/>
<path class="st1" d="M215.605,161.532c1.247,0.044,2.494,0.088,3.741,0.132c0,0,0.024-0.178,0.024-0.178
	c-0.03-0.079-0.049-0.161-0.058-0.245c-0.911-0.074-1.823-0.147-2.735-0.221c-0.259,0.018-0.518,0.035-0.776,0.052
	c-0.085-0.023-0.151,0.002-0.198,0.076C215.604,161.277,215.605,161.405,215.605,161.532z"/>
<path class="st1" d="M212.49,172.4c0.968-0.427,0.414-1.229,0.463-1.882C212.121,170.979,212.105,171.64,212.49,172.4z"/>
<path class="st1" d="M259.777,159.303c0.146-0.064,0.292-0.128,0.437-0.191c-0.767-0.172-1.535-0.343-2.302-0.515
	c0.021,0.099,0.039,0.2,0.053,0.301C258.57,159.033,259.174,159.168,259.777,159.303z"/>
<path class="st1" d="M233.734,169.254c-0.634,0.857-0.017,1.259,0.603,1.66C234.136,170.361,233.935,169.808,233.734,169.254z"/>
<path class="st1" d="M214.448,181.823c-0.143-0.647-0.157-1.374-0.987-1.597C213.79,180.758,214.119,181.29,214.448,181.823z"/>
<path class="st1" d="M266.537,179.522c-0.346,0.403-0.692,0.807-1.037,1.21C265.845,180.329,266.191,179.926,266.537,179.522z"/>
<path class="st1" d="M257.966,158.898c-0.014-0.101-0.032-0.201-0.053-0.3c-0.642-0.113-1.285-0.227-1.927-0.34
	C256.413,159.19,257.224,158.936,257.966,158.898z"/>
<path class="st1" d="M259.769,179.177c-0.105-0.381-0.21-0.763-0.315-1.144C258.781,178.629,259.129,178.943,259.769,179.177z"/>
<path class="st1" d="M219.313,161.241c0.009,0.084,0.028,0.166,0.058,0.245c0.748-0.015,1.497-0.03,2.245-0.044
	C220.847,161.375,220.08,161.308,219.313,161.241z"/>
<path class="st1" d="M272.146,166.404c-0.381,0.288-0.943,0.503-0.448,1.137C271.847,167.162,271.996,166.783,272.146,166.404z"/>
<path class="st1" d="M259.68,173.69c0.105-0.455,0.21-0.909,0.315-1.364C259.89,172.78,259.785,173.235,259.68,173.69z"/>
<path class="st1" d="M214.847,164.17c0.045-0.291,0.089-0.583,0.134-0.874C214.936,163.588,214.892,163.879,214.847,164.17z"/>
<path class="st1" d="M215.605,161.532c-0.001-0.128-0.001-0.255-0.002-0.383c-0.153,0.257-0.307,0.513-0.46,0.77
	C215.297,161.79,215.451,161.661,215.605,161.532z"/>
<path class="st1" d="M247.056,156.288c0.272-0.232,0.544-0.464,0.816-0.696C247.6,155.824,247.328,156.056,247.056,156.288z"/>
<path class="st1" d="M235.853,168.331c-0.537,0.074-1.075,0.147-1.612,0.22C234.778,168.478,235.316,168.405,235.853,168.331z"/>
<path class="st1" d="M248.881,154.747c0.293-0.212,0.586-0.425,0.879-0.637C249.467,154.323,249.174,154.535,248.881,154.747z"/>
<path class="st1" d="M234.341,185.531c-0.239,0.264-0.478,0.528-0.717,0.792C233.863,186.06,234.102,185.795,234.341,185.531z"/>
<path class="st1" d="M250.868,154.013c0.221,0.279,0.442,0.558,0.662,0.837C251.309,154.571,251.088,154.292,250.868,154.013z"/>
<path class="st1" d="M249.988,153.972c0.291,0.011,0.582,0.022,0.872,0.033C250.484,153.362,250.463,153.361,249.988,153.972z"/>
<path class="st1" d="M235.09,184.408c-0.22,0.273-0.44,0.546-0.66,0.819C234.65,184.955,234.87,184.682,235.09,184.408z"/>
<path class="st1" d="M215.161,183.729c-0.149-0.308-0.297-0.616-0.446-0.923C214.863,183.114,215.012,183.422,215.161,183.729z"/>
<path class="st1" d="M263.97,182.188c-0.266,0.241-0.532,0.481-0.798,0.721C263.438,182.669,263.704,182.429,263.97,182.188z"/>
<path class="st1" d="M237.269,228.295c0.021,0.085,0.057,0.163,0.108,0.235c0.125,0.003,0.239-0.032,0.341-0.104
	C237.568,228.381,237.419,228.338,237.269,228.295z"/>
<path class="st1" d="M225.75,188.776c-0.138,0.018-0.276,0.037-0.414,0.055C225.474,188.813,225.612,188.794,225.75,188.776z"/>
<path class="st1" d="M232.323,187.682c-0.098,0.132-0.197,0.265-0.295,0.397C232.126,187.947,232.224,187.815,232.323,187.682z"/>
<path class="st1" d="M215.987,184.777c-0.111-0.133-0.221-0.266-0.331-0.399C215.766,184.511,215.877,184.644,215.987,184.777z"/>
<path class="st1" d="M229.816,161.523c0.038-0.082,0.07-0.167,0.095-0.253c-0.154,0.044-0.308,0.087-0.463,0.13
	C229.571,161.441,229.693,161.482,229.816,161.523z"/>
<path class="st1" d="M215.802,161.073c0.259-0.017,0.517-0.035,0.776-0.052C216.32,161.038,216.061,161.055,215.802,161.073z"/>
<path class="st1" d="M253.777,157.107c0.15,0.089,0.301,0.178,0.451,0.267C254.077,157.285,253.927,157.196,253.777,157.107z"/>
<path class="st1" d="M269.134,158.974c0.155,0.092,0.309,0.184,0.464,0.276C269.443,159.158,269.289,159.066,269.134,158.974z"/>
<path class="st1" d="M274.749,88.923c0.015,0.084,0.043,0.164,0.082,0.24c3.117,0.004,6.233,0.009,9.35,0.013
	c-0.352-0.085-0.704-0.242-1.056-0.244C280.333,88.912,277.541,88.922,274.749,88.923z"/>
<path class="st1" d="M266.911,89.121c0.373,0.014,0.746,0.028,1.119,0.042c0.029-0.077,0.049-0.156,0.06-0.237
	C267.698,88.991,267.305,89.056,266.911,89.121z"/>
<path class="st1" d="M215.212,123.211c0.136-0.02,0.273-0.041,0.409-0.061C215.484,123.17,215.348,123.191,215.212,123.211z"/>
<path class="st1" d="M229.452,188.737c0.263,0.015,0.527,0.03,0.79,0.045C229.979,188.767,229.715,188.752,229.452,188.737z"/>
<path class="st1" d="M239.567,169.312c0.133-0.015,0.266-0.029,0.399-0.044C239.833,169.283,239.7,169.297,239.567,169.312z"/>
</svg>
